<?xml version="1.0" encoding="UTF-8" standalone="no"?>
<!DOCTYPE svg PUBLIC "-//W3C//DTD SVG 1.0//EN" "http://www.w3.org/TR/2001/PR-SVG-20010719/DTD/svg10.dtd">
<svg width="60cm" height="55cm" viewBox="55 -322 1194 1089" xmlns="http://www.w3.org/2000/svg" xmlns:xlink="http://www.w3.org/1999/xlink">
  <g>
    <path style="fill: #be7467" d="M 523.894 -280.544 C 370.688,-242.892 599.198,-85.7906 762.792,-87.089 C 926.386,-88.3872 1170.48,-272.754 1026.36,-292.23 C 882.24,-311.706 677.1,-318.196 523.894,-280.544z"/>
    <path style="fill: none; fill-opacity:0; stroke-width: 2; stroke: #000000" d="M 523.894 -280.544 C 370.688,-242.892 599.198,-85.7906 762.792,-87.089 C 926.386,-88.3872 1170.48,-272.754 1026.36,-292.23 C 882.24,-311.706 677.1,-318.196 523.894,-280.544"/>
  </g>
  <g>
    <path style="fill: #8dc2bc" d="M 293.034 303.238 C 301.946,148.378 742.09,248.352 845.96,334.044 C 949.828,419.736 1042.01,537.886 981.166,588.876 C 847.832,700.612 666.335,759.02 493.653,752.528 C 320.971,746.036 280.216,525.976 293.034,303.238z"/>
    <path style="fill: none; fill-opacity:0; stroke-width: 2; stroke: #000000" d="M 293.034 303.238 C 301.946,148.378 742.09,248.352 845.96,334.044 C 949.828,419.736 1042.01,537.886 981.166,588.876 C 847.832,700.612 666.335,759.02 493.653,752.528 C 320.971,746.036 280.216,525.976 293.034,303.238"/>
  </g>
  <g>
    <path style="fill: #edd6b4" d="M 417.101 -23.6103 C 461.335,-89.9625 627.795,-96.3005 718.681,-66.4383 C 809.565,-36.5759 1027.85,59.2219 885.559,174.596 C 811.182,234.902 544.051,216.69 449.347,186.657 C 354.643,156.624 345.721,83.4597 417.101,-23.6103z"/>
    <path style="fill: none; fill-opacity:0; stroke-width: 2; stroke: #000000" d="M 417.101 -23.6103 C 461.335,-89.9625 627.795,-96.3005 718.681,-66.4383 C 809.565,-36.5759 1027.85,59.2219 885.559,174.596 C 811.182,234.902 544.051,216.69 449.347,186.657 C 354.643,156.624 345.721,83.4597 417.101,-23.6103"/>
  </g>
  <rect style="fill: none; fill-opacity:0; stroke-width: 4; stroke: #000000" x="254.766" y="-319.409" width="821" height="1084.55"/>
  <text font-size="12.8" style="fill: #000000;text-anchor:start;font-family:sans-serif;font-style:normal;font-weight:normal" x="273.766" y="299.033">
    <tspan x="273.766" y="299.033"></tspan>
  </text>
  <g>
    <ellipse style="fill: #ffffff" cx="95.7626" cy="91.8649" rx="6" ry="6"/>
    <ellipse style="fill: none; fill-opacity:0; stroke-width: 2; stroke: #000000" cx="95.7626" cy="91.8649" rx="6" ry="6"/>
    <line style="fill: none; fill-opacity:0; stroke-width: 2; stroke: #000000" x1="71.7626" y1="103.865" x2="119.763" y2="103.865"/>
    <line style="fill: none; fill-opacity:0; stroke-width: 2; stroke: #000000" x1="95.7626" y1="97.8649" x2="95.7626" y2="127.865"/>
    <line style="fill: none; fill-opacity:0; stroke-width: 2; stroke: #000000" x1="95.7626" y1="127.865" x2="71.7626" y2="153.865"/>
    <line style="fill: none; fill-opacity:0; stroke-width: 2; stroke: #000000" x1="95.7626" y1="127.865" x2="119.763" y2="153.865"/>
    <text font-size="12.8" style="fill: #000000;text-anchor:middle;font-family:sans-serif;font-style:normal;font-weight:normal" x="95.7626" y="177.765">
      <tspan x="95.7626" y="177.765">UserAccount</tspan>
    </text>
  </g>
  <g>
    <ellipse style="fill: #ffffff" cx="1211.49" cy="367.689" rx="6" ry="6"/>
    <ellipse style="fill: none; fill-opacity:0; stroke-width: 2; stroke: #000000" cx="1211.49" cy="367.689" rx="6" ry="6"/>
    <line style="fill: none; fill-opacity:0; stroke-width: 2; stroke: #000000" x1="1187.49" y1="379.689" x2="1235.49" y2="379.689"/>
    <line style="fill: none; fill-opacity:0; stroke-width: 2; stroke: #000000" x1="1211.49" y1="373.689" x2="1211.49" y2="403.689"/>
    <line style="fill: none; fill-opacity:0; stroke-width: 2; stroke: #000000" x1="1211.49" y1="403.689" x2="1187.49" y2="429.689"/>
    <line style="fill: none; fill-opacity:0; stroke-width: 2; stroke: #000000" x1="1211.49" y1="403.689" x2="1235.49" y2="429.689"/>
    <text font-size="12.8" style="fill: #000000;text-anchor:middle;font-family:sans-serif;font-style:normal;font-weight:normal" x="1211.49" y="453.589">
      <tspan x="1211.49" y="453.589">Third Party</tspan>
      <tspan x="1211.49" y="469.589">Consortium</tspan>
    </text>
  </g>
  <g>
    <ellipse style="fill: #ffffff" cx="525.221" cy="112.063" rx="100.475" ry="33.4917"/>
    <ellipse style="fill: none; fill-opacity:0; stroke-width: 2; stroke: #000000" cx="525.221" cy="112.063" rx="100.475" ry="33.4917"/>
    <text font-size="12.8" style="fill: #000000;text-anchor:middle;font-family:sans-serif;font-style:normal;font-weight:normal" x="525.221" y="115.963">
      <tspan x="525.221" y="115.963">        Make a search       </tspan>
    </text>
  </g>
  <g>
    <line style="fill: none; fill-opacity:0; stroke-width: 2; stroke: #000000" x1="407.159" y1="116.407" x2="136.188" y2="126.377"/>
    <polygon style="fill: #000000" points="407.343,121.403 423.148,115.818 406.975,111.41 "/>
    <polygon style="fill: none; fill-opacity:0; stroke-width: 2; stroke: #000000" points="407.343,121.403 423.148,115.818 406.975,111.41 "/>
  </g>
  <g>
    <ellipse style="fill: #ffffff" cx="696.111" cy="303.195" rx="74.375" ry="24.7917"/>
    <ellipse style="fill: none; fill-opacity:0; stroke-width: 2; stroke: #000000" cx="696.111" cy="303.195" rx="74.375" ry="24.7917"/>
    <text font-size="12.8" style="fill: #000000;text-anchor:middle;font-family:sans-serif;font-style:normal;font-weight:normal" x="696.111" y="307.095">
      <tspan x="696.111" y="307.095">Make a booking</tspan>
    </text>
  </g>
  <g>
    <ellipse style="fill: #ffffff" cx="855.643" cy="-188.546" rx="50.375" ry="20"/>
    <ellipse style="fill: none; fill-opacity:0; stroke-width: 2; stroke: #000000" cx="855.643" cy="-188.546" rx="50.375" ry="20"/>
    <text font-size="12.8" style="fill: #000000;text-anchor:middle;font-family:sans-serif;font-style:normal;font-weight:normal" x="855.643" y="-184.646">
      <tspan x="855.643" y="-184.646">Register</tspan>
    </text>
  </g>
  <g>
    <ellipse style="fill: #ffffff" cx="794.647" cy="77.932" rx="86.525" ry="28.8417"/>
    <ellipse style="fill: none; fill-opacity:0; stroke-width: 2; stroke: #000000" cx="794.647" cy="77.932" rx="86.525" ry="28.8417"/>
    <text font-size="12.8" style="fill: #000000;text-anchor:middle;font-family:sans-serif;font-style:normal;font-weight:normal" x="794.647" y="81.832">
      <tspan x="794.647" y="81.832">Filter search results</tspan>
    </text>
  </g>
  <g>
    <line style="fill: none; fill-opacity:0; stroke-width: 2; stroke-dasharray: 6; stroke: #000000" x1="703.153" y1="89.5224" x2="647.517" y2="96.5703"/>
    <polygon style="fill: #000000" points="646.888,91.6099 631.644,98.5811 648.145,101.531 "/>
    <polygon style="fill: none; fill-opacity:0; stroke-width: 2; stroke: #000000" points="646.888,91.6099 631.644,98.5811 648.145,101.531 "/>
  </g>
  <g>
    <ellipse style="fill: #ffffff" cx="627.919" cy="-31.646" rx="83.825" ry="27.9417"/>
    <ellipse style="fill: none; fill-opacity:0; stroke-width: 2; stroke: #000000" cx="627.919" cy="-31.646" rx="83.825" ry="27.9417"/>
    <text font-size="12.8" style="fill: #000000;text-anchor:middle;font-family:sans-serif;font-style:normal;font-weight:normal" x="627.919" y="-27.746">
      <tspan x="627.919" y="-27.746">Sort search results</tspan>
    </text>
  </g>
  <g>
    <line style="fill: none; fill-opacity:0; stroke-width: 2; stroke-dasharray: 6; stroke: #000000" x1="604.921" y1="0.536038" x2="562.084" y2="60.4794"/>
    <polygon style="fill: #000000" points="558.016,57.5723 552.781,73.4971 566.152,63.3865 "/>
    <polygon style="fill: none; fill-opacity:0; stroke-width: 2; stroke: #000000" points="558.016,57.5723 552.781,73.4971 566.152,63.3865 "/>
  </g>
  <g>
    <rect style="fill: #edd6b4" x="620.875" y="58.3032" width="77" height="14.9"/>
    <text font-size="12.8" style="fill: #000000;text-anchor:start;font-family:monospace;font-style:normal;font-weight:normal" x="620.875" y="70.2032">
      <tspan x="620.875" y="70.2032">«includes»</tspan>
    </text>
  </g>
  <g>
    <ellipse style="fill: #ffffff" cx="487.199" cy="515.593" rx="77.375" ry="25.7917"/>
    <ellipse style="fill: none; fill-opacity:0; stroke-width: 2; stroke: #000000" cx="487.199" cy="515.593" rx="77.375" ry="25.7917"/>
    <text font-size="12.8" style="fill: #000000;text-anchor:middle;font-family:sans-serif;font-style:normal;font-weight:normal" x="487.199" y="519.493">
      <tspan x="487.199" y="519.493">Make a payment</tspan>
    </text>
  </g>
  <g>
    <line style="fill: none; fill-opacity:0; stroke-width: 2; stroke: #000000" x1="1159.35" y1="429.008" x2="941.713" y2="534.683"/>
    <polygon style="fill: #000000" points="1161.53,433.506 1173.74,422.02 1157.16,424.51 "/>
    <polygon style="fill: none; fill-opacity:0; stroke-width: 2; stroke: #000000" points="1161.53,433.506 1173.74,422.02 1157.16,424.51 "/>
  </g>
  <g>
    <polyline style="fill: none; fill-opacity:0; stroke-width: 2; stroke: #000000" points="129.851,182.854 336.239,515.784 391.826,515.714 "/>
    <polygon style="fill: #000000" points="391.832,520.714 407.826,515.693 391.82,510.714 "/>
    <polygon style="fill: none; fill-opacity:0; stroke-width: 2; stroke: #000000" points="391.832,520.714 407.826,515.693 391.82,510.714 "/>
  </g>
  <g>
    <ellipse style="fill: #ffffff" cx="399.676" cy="295.813" rx="66.725" ry="22.2417"/>
    <ellipse style="fill: none; fill-opacity:0; stroke-width: 2; stroke: #000000" cx="399.676" cy="295.813" rx="66.725" ry="22.2417"/>
    <text font-size="12.8" style="fill: #000000;text-anchor:middle;font-family:sans-serif;font-style:normal;font-weight:normal" x="399.676" y="299.713">
      <tspan x="399.676" y="299.713">View booking</tspan>
    </text>
  </g>
  <g>
    <ellipse style="fill: #ffffff" cx="395.336" cy="363.838" rx="73.25" ry="24.4167"/>
    <ellipse style="fill: none; fill-opacity:0; stroke-width: 2; stroke: #000000" cx="395.336" cy="363.838" rx="73.25" ry="24.4167"/>
    <text font-size="12.8" style="fill: #000000;text-anchor:middle;font-family:sans-serif;font-style:normal;font-weight:normal" x="395.336" y="367.738">
      <tspan x="395.336" y="367.738">Cancel booking</tspan>
    </text>
  </g>
  <g>
    <line style="fill: none; fill-opacity:0; stroke-width: 2; stroke-dasharray: 6; stroke: #000000" x1="473.505" y1="348.077" x2="600.166" y2="322.54"/>
    <polygon style="fill: #000000" points="601.155,327.441 615.851,319.377 599.178,317.638 "/>
    <polygon style="fill: none; fill-opacity:0; stroke-width: 2; stroke: #000000" points="601.155,327.441 615.851,319.377 599.178,317.638 "/>
  </g>
  <g>
    <rect style="fill: #8dc2bc" x="490.706" y="347.045" width="69.3" height="14.9"/>
    <text font-size="12.8" style="fill: #000000;text-anchor:start;font-family:monospace;font-style:normal;font-weight:normal" x="490.706" y="358.945">
      <tspan x="490.706" y="358.945">«extends»</tspan>
    </text>
  </g>
  <g>
    <line style="fill: none; fill-opacity:0; stroke-width: 2; stroke-dasharray: 6; stroke: #000000" x1="471.125" y1="297.592" x2="599.76" y2="300.796"/>
    <polygon style="fill: #000000" points="599.636,305.794 615.755,301.194 599.885,295.797 "/>
    <polygon style="fill: none; fill-opacity:0; stroke-width: 2; stroke: #000000" points="599.636,305.794 615.755,301.194 599.885,295.797 "/>
  </g>
  <g>
    <rect style="fill: #8dc2bc" x="502.455" y="283.892" width="69.3" height="14.9"/>
    <text font-size="12.8" style="fill: #000000;text-anchor:start;font-family:monospace;font-style:normal;font-weight:normal" x="502.455" y="295.792">
      <tspan x="502.455" y="295.792">«extends»</tspan>
    </text>
  </g>
  <g>
    <line style="fill: none; fill-opacity:0; stroke-width: 2; stroke-dasharray: 6; stroke: #000000" x1="516.347" y1="485.958" x2="656.023" y2="343.952"/>
    <polygon style="fill: #000000" points="659.588,347.458 667.243,332.545 652.459,340.445 "/>
    <polygon style="fill: none; fill-opacity:0; stroke-width: 2; stroke: #000000" points="659.588,347.458 667.243,332.545 652.459,340.445 "/>
  </g>
  <g>
    <rect style="fill: #8dc2bc" x="511.206" y="436.317" width="77" height="14.9"/>
    <text font-size="12.8" style="fill: #000000;text-anchor:start;font-family:monospace;font-style:normal;font-weight:normal" x="511.206" y="448.217">
      <tspan x="511.206" y="448.217">«includes»</tspan>
    </text>
  </g>
  <g>
    <line style="fill: none; fill-opacity:0; stroke-width: 2; stroke: #000000" x1="349.709" y1="327.898" x2="136.181" y2="159.702"/>
    <polygon style="fill: #000000" points="346.615,331.826 362.278,337.799 352.803,323.97 "/>
    <polygon style="fill: none; fill-opacity:0; stroke-width: 2; stroke: #000000" points="346.615,331.826 362.278,337.799 352.803,323.97 "/>
  </g>
  <g>
    <line style="fill: none; fill-opacity:0; stroke-width: 2; stroke: #000000" x1="342.764" y1="264.362" x2="136.163" y2="150.191"/>
    <polygon style="fill: #000000" points="340.345,268.739 356.768,272.101 345.182,259.986 "/>
    <polygon style="fill: none; fill-opacity:0; stroke-width: 2; stroke: #000000" points="340.345,268.739 356.768,272.101 345.182,259.986 "/>
  </g>
  <g>
    <ellipse style="fill: #ffffff" cx="983.424" cy="-257.214" rx="80.25" ry="26.75"/>
    <ellipse style="fill: none; fill-opacity:0; stroke-width: 2; stroke: #000000" cx="983.424" cy="-257.214" rx="80.25" ry="26.75"/>
    <text font-size="12.8" style="fill: #000000;text-anchor:middle;font-family:sans-serif;font-style:normal;font-weight:normal" x="983.424" y="-253.314">
      <tspan x="983.424" y="-253.314">Store user details</tspan>
    </text>
  </g>
  <g>
    <line style="fill: none; fill-opacity:0; stroke-width: 2; stroke-dasharray: 6; stroke: #000000" x1="928.364" y1="-227.625" x2="913.215" y2="-219.484"/>
    <polygon style="fill: #000000" points="910.848,-223.889 899.121,-211.911 915.582,-215.08 "/>
    <polygon style="fill: none; fill-opacity:0; stroke-width: 2; stroke: #000000" points="910.848,-223.889 899.121,-211.911 915.582,-215.08 "/>
  </g>
  <text font-size="12.8" style="fill: #000000;text-anchor:start;font-family:monospace;font-style:normal;font-weight:normal" x="832.166" y="-224.24">
    <tspan x="832.166" y="-224.24">«includes»</tspan>
  </text>
  <g>
    <ellipse style="fill: #ffffff" cx="605.192" cy="-258.173" rx="88.15" ry="29.3833"/>
    <ellipse style="fill: none; fill-opacity:0; stroke-width: 2; stroke: #000000" cx="605.192" cy="-258.173" rx="88.15" ry="29.3833"/>
    <text font-size="12.8" style="fill: #000000;text-anchor:middle;font-family:sans-serif;font-style:normal;font-weight:normal" x="605.192" y="-254.273">
      <tspan x="605.192" y="-254.273">Confirm registration</tspan>
    </text>
  </g>
  <g>
    <ellipse style="fill: #ffffff" cx="772.14" cy="464.705" rx="71.65" ry="23.8833"/>
    <ellipse style="fill: none; fill-opacity:0; stroke-width: 2; stroke: #000000" cx="772.14" cy="464.705" rx="71.65" ry="23.8833"/>
    <text font-size="12.8" style="fill: #000000;text-anchor:middle;font-family:sans-serif;font-style:normal;font-weight:normal" x="772.14" y="468.605">
      <tspan x="772.14" y="468.605">Check voucher</tspan>
    </text>
  </g>
  <g>
    <line style="fill: none; fill-opacity:0; stroke-width: 2; stroke-dasharray: 6; stroke: #000000" x1="569.511" y1="500.893" x2="678.823" y2="481.37"/>
    <polygon style="fill: #000000" points="679.702,486.293 694.574,478.557 677.944,476.448 "/>
    <polygon style="fill: none; fill-opacity:0; stroke-width: 2; stroke: #000000" points="679.702,486.293 694.574,478.557 677.944,476.448 "/>
  </g>
  <g>
    <rect style="fill: #8dc2bc" x="594.018" y="496.985" width="69.3" height="14.9"/>
    <text font-size="12.8" style="fill: #000000;text-anchor:start;font-family:monospace;font-style:normal;font-weight:normal" x="594.018" y="508.885">
      <tspan x="594.018" y="508.885">«extends»</tspan>
    </text>
  </g>
  <g>
    <ellipse style="fill: #ffffff" cx="868.825" cy="570.075" rx="103.175" ry="34.3917"/>
    <ellipse style="fill: none; fill-opacity:0; stroke-width: 2; stroke: #000000" cx="868.825" cy="570.075" rx="103.175" ry="34.3917"/>
    <text font-size="12.8" style="fill: #000000;text-anchor:middle;font-family:sans-serif;font-style:normal;font-weight:normal" x="868.825" y="565.975">
      <tspan x="868.825" y="565.975">Encrypt payment</tspan>
      <tspan x="868.825" y="581.975">information</tspan>
    </text>
  </g>
  <g>
    <line style="fill: none; fill-opacity:0; stroke-width: 2; stroke: #000000" x1="747.819" y1="552.8" x2="565.567" y2="526.781"/>
    <polygon style="fill: #000000" points="747.113,557.75 763.659,555.061 748.526,547.85 "/>
    <polygon style="fill: none; fill-opacity:0; stroke-width: 2; stroke: #000000" points="747.113,557.75 763.659,555.061 748.526,547.85 "/>
  </g>
  <g>
    <polyline style="fill: none; fill-opacity:0; stroke-width: 2; stroke: #000000" points="128.254,72.8596 282.648,-188.514 787.291,-188.542 "/>
    <polygon style="fill: #000000" points="787.291,-183.542 803.291,-188.543 787.29,-193.542 "/>
    <polygon style="fill: none; fill-opacity:0; stroke-width: 2; stroke: #000000" points="787.291,-183.542 803.291,-188.543 787.29,-193.542 "/>
  </g>
  <g>
    <line style="fill: none; fill-opacity:0; stroke-width: 2; stroke: #000000" x1="711.325" y1="-257.904" x2="902.902" y2="-257.418"/>
    <polygon style="fill: #000000" points="711.338,-262.904 695.325,-257.944 711.312,-252.904 "/>
    <polygon style="fill: none; fill-opacity:0; stroke-width: 2; stroke: #000000" points="711.338,-262.904 695.325,-257.944 711.312,-252.904 "/>
  </g>
  <g>
    <ellipse style="fill: #ffffff" cx="748.698" cy="-118.956" rx="34.6" ry="20"/>
    <ellipse style="fill: none; fill-opacity:0; stroke-width: 2; stroke: #000000" cx="748.698" cy="-118.956" rx="34.6" ry="20"/>
    <text font-size="12.8" style="fill: #000000;text-anchor:middle;font-family:sans-serif;font-style:normal;font-weight:normal" x="748.698" y="-115.056">
      <tspan x="748.698" y="-115.056">Login</tspan>
    </text>
  </g>
  <g>
    <polyline style="fill: none; fill-opacity:0; stroke-width: 2; stroke: #000000" points="136.182,79.931 303.422,-118.403 696.107,-118.891 "/>
    <polygon style="fill: #000000" points="696.113,-113.891 712.107,-118.911 696.101,-123.891 "/>
    <polygon style="fill: none; fill-opacity:0; stroke-width: 2; stroke: #000000" points="696.113,-113.891 712.107,-118.911 696.101,-123.891 "/>
  </g>
  <g>
    <ellipse style="fill: #ffffff" cx="777.09" cy="393.047" rx="92.6" ry="32"/>
    <ellipse style="fill: none; fill-opacity:0; stroke-width: 2; stroke: #000000" cx="777.09" cy="393.047" rx="92.6" ry="32"/>
    <text font-size="12.8" style="fill: #000000;text-anchor:middle;font-family:sans-serif;font-style:normal;font-weight:normal" x="777.09" y="388.947">
      <tspan x="777.09" y="388.947">Save payment</tspan>
      <tspan x="777.09" y="404.947">details</tspan>
    </text>
  </g>
  <g>
    <line style="fill: none; fill-opacity:0; stroke-width: 2; stroke-dasharray: 6; stroke: #000000" x1="549.767" y1="489.143" x2="679.665" y2="434.232"/>
    <polygon style="fill: #000000" points="681.612,438.837 694.403,428.002 677.719,429.626 "/>
    <polygon style="fill: none; fill-opacity:0; stroke-width: 2; stroke: #000000" points="681.612,438.837 694.403,428.002 677.719,429.626 "/>
  </g>
  <g>
    <rect style="fill: #8dc2bc" x="622.848" y="549.241" width="77" height="14.9"/>
    <text font-size="12.8" style="fill: #000000;text-anchor:start;font-family:monospace;font-style:normal;font-weight:normal" x="622.848" y="561.141">
      <tspan x="622.848" y="561.141">«includes»</tspan>
    </text>
  </g>
  <g>
    <ellipse style="fill: #ffffff" cx="526.993" cy="628.011" rx="79.775" ry="26.5917"/>
    <ellipse style="fill: none; fill-opacity:0; stroke-width: 2; stroke: #000000" cx="526.993" cy="628.011" rx="79.775" ry="26.5917"/>
    <text font-size="12.8" style="fill: #000000;text-anchor:middle;font-family:sans-serif;font-style:normal;font-weight:normal" x="526.993" y="631.911">
      <tspan x="526.993" y="631.911">Confirm payment</tspan>
    </text>
  </g>
  <g>
    <polyline style="fill: none; fill-opacity:0; stroke-width: 2; stroke: #000000" points="446.235,627.914 295.755,627.732 124.08,198.642 "/>
    <polygon style="fill: #000000" points="128.722,196.785 118.136,183.787 119.438,200.499 "/>
    <polygon style="fill: none; fill-opacity:0; stroke-width: 2; stroke: #000000" points="128.722,196.785 118.136,183.787 119.438,200.499 "/>
  </g>
  <g>
    <polyline style="fill: none; fill-opacity:0; stroke-width: 2; stroke: #000000" points="1174.64,441.567 993.494,627.732 624.757,627.953 "/>
    <polygon style="fill: #000000" points="624.754,622.953 608.757,627.962 624.76,632.953 "/>
    <polygon style="fill: none; fill-opacity:0; stroke-width: 2; stroke: #000000" points="624.754,622.953 608.757,627.962 624.76,632.953 "/>
  </g>
  <g>
    <polyline style="fill: none; fill-opacity:0; stroke-width: 2; stroke: #000000" points="516.052,-257.969 234.608,-257.328 121.341,56.905 "/>
    <polygon style="fill: #000000" points="116.637,55.2095 115.915,71.957 126.044,58.6005 "/>
    <polygon style="fill: none; fill-opacity:0; stroke-width: 2; stroke: #000000" points="116.637,55.2095 115.915,71.957 126.044,58.6005 "/>
  </g>
  <g>
    <line style="fill: none; fill-opacity:0; stroke-width: 2; stroke: #000000" x1="604.41" y1="276.414" x2="136.188" y2="139.671"/>
    <polygon style="fill: #000000" points="603.009,281.214 619.769,280.899 605.812,271.615 "/>
    <polygon style="fill: none; fill-opacity:0; stroke-width: 2; stroke: #000000" points="603.009,281.214 619.769,280.899 605.812,271.615 "/>
  </g>
  <g>
    <line style="fill: none; fill-opacity:0; stroke-width: 2; stroke-dasharray: 6; stroke: #000000" x1="797.599" y1="492.451" x2="822.525" y2="519.616"/>
    <polygon style="fill: #000000" points="818.841,522.996 833.342,531.405 826.209,516.235 "/>
    <polygon style="fill: none; fill-opacity:0; stroke-width: 2; stroke: #000000" points="818.841,522.996 833.342,531.405 826.209,516.235 "/>
  </g>
  <g>
    <rect style="fill: #8dc2bc" x="810.56" y="487.287" width="77" height="14.9"/>
    <text font-size="12.8" style="fill: #000000;text-anchor:start;font-family:monospace;font-style:normal;font-weight:normal" x="810.56" y="499.187">
      <tspan x="810.56" y="499.187">«includes»</tspan>
    </text>
  </g>
  <g>
    <line style="fill: none; fill-opacity:0; stroke-width: 2; stroke-dasharray: 6; stroke: #000000" x1="784.335" y1="-142.145" x2="805.757" y2="-156.085"/>
    <polygon style="fill: #000000" points="808.484,-151.894 819.168,-164.811 803.03,-160.275 "/>
    <polygon style="fill: none; fill-opacity:0; stroke-width: 2; stroke: #000000" points="808.484,-151.894 819.168,-164.811 803.03,-160.275 "/>
  </g>
  <text font-size="12.8" style="fill: #000000;text-anchor:start;font-family:monospace;font-style:normal;font-weight:normal" x="711.886" y="-147.531">
    <tspan x="711.886" y="-147.531">«includes»</tspan>
  </text>
  <g>
    <rect style="fill: #edd6b4" x="548.569" y="6.4929" width="77" height="14.9"/>
    <text font-size="12.8" style="fill: #000000;text-anchor:start;font-family:monospace;font-style:normal;font-weight:normal" x="548.569" y="18.3929">
      <tspan x="548.569" y="18.3929">«includes»</tspan>
    </text>
  </g>
  <g>
    <ellipse style="fill: #ffffff" cx="1187.06" cy="-79.8238" rx="6" ry="6"/>
    <ellipse style="fill: none; fill-opacity:0; stroke-width: 2; stroke: #000000" cx="1187.06" cy="-79.8238" rx="6" ry="6"/>
    <line style="fill: none; fill-opacity:0; stroke-width: 2; stroke: #000000" x1="1163.06" y1="-67.8238" x2="1211.06" y2="-67.8238"/>
    <line style="fill: none; fill-opacity:0; stroke-width: 2; stroke: #000000" x1="1187.06" y1="-73.8238" x2="1187.06" y2="-43.8238"/>
    <line style="fill: none; fill-opacity:0; stroke-width: 2; stroke: #000000" x1="1187.06" y1="-43.8238" x2="1163.06" y2="-17.8238"/>
    <line style="fill: none; fill-opacity:0; stroke-width: 2; stroke: #000000" x1="1187.06" y1="-43.8238" x2="1211.06" y2="-17.8238"/>
    <text font-size="12.8" style="fill: #000000;text-anchor:middle;font-family:sans-serif;font-style:normal;font-weight:normal" x="1187.06" y="6.07623">
      <tspan x="1187.06" y="6.07623">GDS</tspan>
    </text>
  </g>
  <g>
    <line style="fill: none; fill-opacity:0; stroke-width: 2; stroke: #000000" x1="898.994" y1="93.2837" x2="1157.09" y2="131.255"/>
    <polygon style="fill: #000000" points="899.722,88.337 883.165,90.9549 898.266,98.2305 "/>
    <polygon style="fill: none; fill-opacity:0; stroke-width: 2; stroke: #000000" points="899.722,88.337 883.165,90.9549 898.266,98.2305 "/>
  </g>
  <g>
    <line style="fill: none; fill-opacity:0; stroke-width: 2; stroke: #000000" x1="729.038" y1="-1.40393" x2="1157.07" y2="126.611"/>
    <polygon style="fill: #000000" points="730.471,-6.19429 713.709,-5.98848 727.605,3.38642 "/>
    <polygon style="fill: none; fill-opacity:0; stroke-width: 2; stroke: #000000" points="730.471,-6.19429 713.709,-5.98848 727.605,3.38642 "/>
  </g>
  <g>
    <line style="fill: none; fill-opacity:0; stroke-width: 2; stroke-dasharray: 6; stroke: #000000" x1="566.062" y1="157.741" x2="670.394" y2="274.432"/>
    <polygon style="fill: #000000" points="569.789,154.408 559.396,150.286 562.334,161.073 "/>
    <polygon style="fill: none; fill-opacity:0; stroke-width: 2; stroke: #000000" points="569.789,154.408 559.396,150.286 562.334,161.073 "/>
  </g>
  <g>
    <rect style="fill: #edd6b4" x="579.398" y="178.354" width="77" height="14.9"/>
    <text font-size="12.8" style="fill: #000000;text-anchor:start;font-family:monospace;font-style:normal;font-weight:normal" x="579.398" y="190.254">
      <tspan x="579.398" y="190.254">«includes»</tspan>
    </text>
  </g>
  <g>
    <ellipse style="fill: #ffffff" cx="1186.65" cy="-258.807" rx="6" ry="6"/>
    <ellipse style="fill: none; fill-opacity:0; stroke-width: 2; stroke: #000000" cx="1186.65" cy="-258.807" rx="6" ry="6"/>
    <line style="fill: none; fill-opacity:0; stroke-width: 2; stroke: #000000" x1="1162.65" y1="-246.807" x2="1210.65" y2="-246.807"/>
    <line style="fill: none; fill-opacity:0; stroke-width: 2; stroke: #000000" x1="1186.65" y1="-252.807" x2="1186.65" y2="-222.807"/>
    <line style="fill: none; fill-opacity:0; stroke-width: 2; stroke: #000000" x1="1186.65" y1="-222.807" x2="1162.65" y2="-196.807"/>
    <line style="fill: none; fill-opacity:0; stroke-width: 2; stroke: #000000" x1="1186.65" y1="-222.807" x2="1210.65" y2="-196.807"/>
    <text font-size="12.8" style="fill: #000000;text-anchor:middle;font-family:sans-serif;font-style:normal;font-weight:normal" x="1186.65" y="-172.907">
      <tspan x="1186.65" y="-172.907">User</tspan>
      <tspan x="1186.65" y="-156.907">Database</tspan>
    </text>
  </g>
  <g>
    <line style="fill: none; fill-opacity:0; stroke-width: 2; stroke: #000000" x1="1081.41" y1="-240.625" x2="1156.28" y2="-227.948"/>
    <polygon style="fill: #000000" points="1082.24,-245.555 1065.63,-243.296 1080.57,-235.695 "/>
    <polygon style="fill: none; fill-opacity:0; stroke-width: 2; stroke: #000000" points="1082.24,-245.555 1065.63,-243.296 1080.57,-235.695 "/>
  </g>
  <g>
    <ellipse style="fill: #ffffff" cx="1187.62" cy="99.747" rx="6" ry="6"/>
    <ellipse style="fill: none; fill-opacity:0; stroke-width: 2; stroke: #000000" cx="1187.62" cy="99.747" rx="6" ry="6"/>
    <line style="fill: none; fill-opacity:0; stroke-width: 2; stroke: #000000" x1="1163.62" y1="111.747" x2="1211.62" y2="111.747"/>
    <line style="fill: none; fill-opacity:0; stroke-width: 2; stroke: #000000" x1="1187.62" y1="105.747" x2="1187.62" y2="135.747"/>
    <line style="fill: none; fill-opacity:0; stroke-width: 2; stroke: #000000" x1="1187.62" y1="135.747" x2="1163.62" y2="161.747"/>
    <line style="fill: none; fill-opacity:0; stroke-width: 2; stroke: #000000" x1="1187.62" y1="135.747" x2="1211.62" y2="161.747"/>
    <text font-size="12.8" style="fill: #000000;text-anchor:middle;font-family:sans-serif;font-style:normal;font-weight:normal" x="1187.62" y="185.647">
      <tspan x="1187.62" y="185.647">Product</tspan>
      <tspan x="1187.62" y="201.647">Database</tspan>
    </text>
  </g>
  <g>
    <ellipse style="fill: #ffffff" cx="537.867" cy="711.524" rx="77.1" ry="25.7"/>
    <ellipse style="fill: none; fill-opacity:0; stroke-width: 2; stroke: #000000" cx="537.867" cy="711.524" rx="77.1" ry="25.7"/>
    <text font-size="12.8" style="fill: #000000;text-anchor:middle;font-family:sans-serif;font-style:normal;font-weight:normal" x="537.867" y="715.424">
      <tspan x="537.867" y="715.424">Refund payment</tspan>
    </text>
  </g>
  <g>
    <polyline style="fill: none; fill-opacity:0; stroke-width: 2; stroke: #000000" points="1174.62,463.622 1022.05,711.604 632.958,711.54 "/>
    <polygon style="fill: #000000" points="632.959,706.54 616.958,711.537 632.957,716.54 "/>
    <polygon style="fill: none; fill-opacity:0; stroke-width: 2; stroke: #000000" points="632.959,706.54 616.958,711.537 632.957,716.54 "/>
  </g>
  <text font-size="12.7998" style="fill: #000000;text-anchor:start;font-family:sans-serif;font-style:normal;font-weight:normal" x="282.322" y="-287.011">
    <tspan x="282.322" y="-287.011">Travpedia</tspan>
  </text>
  <g>
    <line style="fill: none; fill-opacity:0; stroke-width: 2; stroke: #000000" x1="1145.63" y1="135.116" x2="626.692" y2="115.833"/>
    <polygon style="fill: #000000" points="1145.45,140.112 1161.62,135.71 1145.82,130.119 "/>
    <polygon style="fill: none; fill-opacity:0; stroke-width: 2; stroke: #000000" points="1145.45,140.112 1161.62,135.71 1145.82,130.119 "/>
  </g>
  <g>
    <line style="fill: none; fill-opacity:0; stroke-width: 2; stroke: #000000" x1="1187.29" y1="28.1741" x2="1187.45" y2="80.7491"/>
    <polygon style="fill: #000000" points="1192.29,28.1585 1187.24,12.1742 1182.29,28.1897 "/>
    <polygon style="fill: none; fill-opacity:0; stroke-width: 2; stroke: #000000" points="1192.29,28.1585 1187.24,12.1742 1182.29,28.1897 "/>
  </g>
  <g>
    <polyline style="fill: none; fill-opacity:0; stroke-width: 2; stroke: #000000" points="459.783,711.908 303.471,712.676 101.957,197.696 "/>
    <polygon style="fill: #000000" points="106.614,195.874 96.127,182.796 97.3012,199.518 "/>
    <polygon style="fill: none; fill-opacity:0; stroke-width: 2; stroke: #000000" points="106.614,195.874 96.127,182.796 97.3012,199.518 "/>
  </g>
  <g>
    <line style="fill: none; fill-opacity:0; stroke-width: 2; stroke: #000000" x1="1146.68" y1="-162.708" x2="799.012" y2="360.082"/>
    <polygon style="fill: #000000" points="1150.84,-159.939 1155.54,-176.031 1142.52,-165.477 "/>
    <polygon style="fill: none; fill-opacity:0; stroke-width: 2; stroke: #000000" points="1150.84,-159.939 1155.54,-176.031 1142.52,-165.477 "/>
  </g>
</svg>
