<?xml version="1.0" encoding="UTF-8" standalone="no"?>
<!DOCTYPE svg PUBLIC "-//W3C//DTD SVG 1.0//EN" "http://www.w3.org/TR/2001/PR-SVG-20010719/DTD/svg10.dtd">
<svg width="66cm" height="48cm" viewBox="53 -179 1307 947" xmlns="http://www.w3.org/2000/svg" xmlns:xlink="http://www.w3.org/1999/xlink">
  <rect style="fill: none; fill-opacity:0; stroke-width: 4; stroke: #000000" x="189.202" y="-176.457" width="896.01" height="942.456"/>
  <g>
    <path style="fill: #be7467" d="M 241.577 -121.186 C 146.918,-79.0827 294.416,122.918 392.714,105.52 C 491.012,88.1225 802.438,-97.5705 651.3,-138.897 C 500.164,-180.224 336.236,-163.289 241.577,-121.186z"/>
    <path style="fill: none; fill-opacity:0; stroke-width: 2; stroke: #000000" d="M 241.577 -121.186 C 146.918,-79.0827 294.416,122.918 392.714,105.52 C 491.012,88.1225 802.438,-97.5705 651.3,-138.897 C 500.164,-180.224 336.236,-163.289 241.577,-121.186"/>
  </g>
  <g>
    <path style="fill: #8dc2bc" d="M 239.946 318.637 C 248.858,163.777 788.699,283.887 892.569,369.579 C 996.437,455.271 988.924,553.285 928.078,604.275 C 794.744,716.011 657.534,770.795 488.263,749.99 C 318.993,729.185 227.129,541.375 239.946,318.637z"/>
    <path style="fill: none; fill-opacity:0; stroke-width: 2; stroke: #000000" d="M 239.946 318.637 C 248.858,163.777 788.699,283.887 892.569,369.579 C 996.437,455.271 988.924,553.285 928.078,604.275 C 794.744,716.011 657.534,770.795 488.263,749.99 C 318.993,729.185 227.129,541.375 239.946,318.637"/>
  </g>
  <g>
    <path style="fill: #edd6b4" d="M 584.31 46.9308 C 642.892,-15.9538 741.148,-45.528 832.034,-15.6657 C 922.918,14.1967 1141.21,109.994 998.91,225.368 C 924.534,285.674 657.402,267.462 562.698,237.43 C 467.996,207.396 496.598,141.088 584.31,46.9308z"/>
    <path style="fill: none; fill-opacity:0; stroke-width: 2; stroke: #000000" d="M 584.31 46.9308 C 642.892,-15.9538 741.148,-45.528 832.034,-15.6657 C 922.918,14.1967 1141.21,109.994 998.91,225.368 C 924.534,285.674 657.402,267.462 562.698,237.43 C 467.996,207.396 496.598,141.088 584.31,46.9308"/>
  </g>
  <text font-size="12.8" style="fill: #000000;text-anchor:start;font-family:sans-serif;font-style:normal;font-weight:normal" x="156.871" y="299.034">
    <tspan x="156.871" y="299.034"></tspan>
  </text>
  <g>
    <ellipse style="fill: #ffffff" cx="114.442" cy="165.059" rx="6" ry="6"/>
    <ellipse style="fill: none; fill-opacity:0; stroke-width: 2; stroke: #000000" cx="114.442" cy="165.059" rx="6" ry="6"/>
    <line style="fill: none; fill-opacity:0; stroke-width: 2; stroke: #000000" x1="90.4419" y1="177.059" x2="138.442" y2="177.059"/>
    <line style="fill: none; fill-opacity:0; stroke-width: 2; stroke: #000000" x1="114.442" y1="171.059" x2="114.442" y2="201.059"/>
    <line style="fill: none; fill-opacity:0; stroke-width: 2; stroke: #000000" x1="114.442" y1="201.059" x2="90.4419" y2="227.059"/>
    <line style="fill: none; fill-opacity:0; stroke-width: 2; stroke: #000000" x1="114.442" y1="201.059" x2="138.442" y2="227.059"/>
    <text font-size="12.8" style="fill: #000000;text-anchor:middle;font-family:sans-serif;font-style:normal;font-weight:700" x="114.442" y="250.959">
      <tspan x="114.442" y="250.959">UserAccount</tspan>
    </text>
  </g>
  <g>
    <ellipse style="fill: #ffffff" cx="1155.61" cy="575.455" rx="6" ry="6"/>
    <ellipse style="fill: none; fill-opacity:0; stroke-width: 2; stroke: #000000" cx="1155.61" cy="575.455" rx="6" ry="6"/>
    <line style="fill: none; fill-opacity:0; stroke-width: 2; stroke: #000000" x1="1131.61" y1="587.455" x2="1179.61" y2="587.455"/>
    <line style="fill: none; fill-opacity:0; stroke-width: 2; stroke: #000000" x1="1155.61" y1="581.455" x2="1155.61" y2="611.455"/>
    <line style="fill: none; fill-opacity:0; stroke-width: 2; stroke: #000000" x1="1155.61" y1="611.455" x2="1131.61" y2="637.455"/>
    <line style="fill: none; fill-opacity:0; stroke-width: 2; stroke: #000000" x1="1155.61" y1="611.455" x2="1179.61" y2="637.455"/>
    <text font-size="12.8" style="fill: #000000;text-anchor:middle;font-family:sans-serif;font-style:normal;font-weight:700" x="1155.61" y="661.355">
      <tspan x="1155.61" y="661.355">Third Party</tspan>
      <tspan x="1155.61" y="677.355">Consortium</tspan>
    </text>
  </g>
  <g>
    <ellipse style="fill: #ffffff" cx="638.573" cy="162.835" rx="100.475" ry="33.4917"/>
    <ellipse style="fill: none; fill-opacity:0; stroke-width: 2; stroke: #000000" cx="638.573" cy="162.835" rx="100.475" ry="33.4917"/>
    <text font-size="12.8" style="fill: #000000;text-anchor:middle;font-family:sans-serif;font-style:normal;font-weight:normal" x="638.573" y="166.735">
      <tspan x="638.573" y="166.735">        Make a search       </tspan>
    </text>
  </g>
  <g>
    <line style="fill: none; fill-opacity:0; stroke-width: 2; stroke: #000000" x1="520.136" y1="171.473" x2="160.028" y2="197.735"/>
    <polygon style="fill: #000000" points="520.5,176.459 536.094,170.309 519.773,166.486 "/>
    <polygon style="fill: none; fill-opacity:0; stroke-width: 2; stroke: #000000" points="520.5,176.459 536.094,170.309 519.773,166.486 "/>
  </g>
  <g>
    <ellipse style="fill: #ffffff" cx="541.584" cy="311.681" rx="74.375" ry="24.7917"/>
    <ellipse style="fill: none; fill-opacity:0; stroke-width: 2; stroke: #000000" cx="541.584" cy="311.681" rx="74.375" ry="24.7917"/>
    <text font-size="12.8" style="fill: #000000;text-anchor:middle;font-family:sans-serif;font-style:normal;font-weight:normal" x="541.584" y="315.581">
      <tspan x="541.584" y="315.581">Make a booking</tspan>
    </text>
  </g>
  <g>
    <ellipse style="fill: #ffffff" cx="386.567" cy="-35.4959" rx="50.375" ry="20"/>
    <ellipse style="fill: none; fill-opacity:0; stroke-width: 2; stroke: #000000" cx="386.567" cy="-35.4959" rx="50.375" ry="20"/>
    <text font-size="12.8" style="fill: #000000;text-anchor:middle;font-family:sans-serif;font-style:normal;font-weight:normal" x="386.567" y="-31.5959">
      <tspan x="386.567" y="-31.5959">Register</tspan>
    </text>
  </g>
  <g>
    <ellipse style="fill: #ffffff" cx="907.999" cy="128.705" rx="86.525" ry="28.8417"/>
    <ellipse style="fill: none; fill-opacity:0; stroke-width: 2; stroke: #000000" cx="907.999" cy="128.705" rx="86.525" ry="28.8417"/>
    <text font-size="12.8" style="fill: #000000;text-anchor:middle;font-family:sans-serif;font-style:normal;font-weight:normal" x="907.999" y="132.605">
      <tspan x="907.999" y="132.605">Filter search results</tspan>
    </text>
  </g>
  <g>
    <line style="fill: none; fill-opacity:0; stroke-width: 2; stroke-dasharray: 6; stroke: #000000" x1="816.505" y1="140.295" x2="760.877" y2="147.342"/>
    <polygon style="fill: #000000" points="760.249,142.381 745.004,149.353 761.505,152.302 "/>
    <polygon style="fill: none; fill-opacity:0; stroke-width: 2; stroke: #000000" points="760.249,142.381 745.004,149.353 761.505,152.302 "/>
  </g>
  <g>
    <ellipse style="fill: #ffffff" cx="741.271" cy="19.1265" rx="83.825" ry="27.9417"/>
    <ellipse style="fill: none; fill-opacity:0; stroke-width: 2; stroke: #000000" cx="741.271" cy="19.1265" rx="83.825" ry="27.9417"/>
    <text font-size="12.8" style="fill: #000000;text-anchor:middle;font-family:sans-serif;font-style:normal;font-weight:normal" x="741.271" y="23.0265">
      <tspan x="741.271" y="23.0265">Sort search results</tspan>
    </text>
  </g>
  <g>
    <line style="fill: none; fill-opacity:0; stroke-width: 2; stroke-dasharray: 6; stroke: #000000" x1="718.273" y1="51.3086" x2="675.436" y2="111.252"/>
    <polygon style="fill: #000000" points="671.368,108.345 666.133,124.27 679.504,114.159 "/>
    <polygon style="fill: none; fill-opacity:0; stroke-width: 2; stroke: #000000" points="671.368,108.345 666.133,124.27 679.504,114.159 "/>
  </g>
  <g>
    <rect style="fill: #edd6b4" x="727.144" y="117.341" width="77" height="14.9"/>
    <text font-size="12.8" style="fill: #000000;text-anchor:start;font-family:monospace;font-style:normal;font-weight:normal" x="727.144" y="129.241">
      <tspan x="727.144" y="129.241">«includes»</tspan>
    </text>
  </g>
  <g>
    <ellipse style="fill: #ffffff" cx="355.79" cy="483.203" rx="77.375" ry="25.7917"/>
    <ellipse style="fill: none; fill-opacity:0; stroke-width: 2; stroke: #000000" cx="355.79" cy="483.203" rx="77.375" ry="25.7917"/>
    <text font-size="12.8" style="fill: #000000;text-anchor:middle;font-family:sans-serif;font-style:normal;font-weight:normal" x="355.79" y="487.103">
      <tspan x="355.79" y="487.103">Make a payment</tspan>
    </text>
  </g>
  <g>
    <polyline style="fill: none; fill-opacity:0; stroke-width: 2; stroke: #000000" points="159.989,254.306 321.848,443.523 "/>
    <polygon style="fill: #000000" points="318.048,446.774 332.248,455.682 325.647,440.273 "/>
    <polygon style="fill: none; fill-opacity:0; stroke-width: 2; stroke: #000000" points="318.048,446.774 332.248,455.682 325.647,440.273 "/>
  </g>
  <g>
    <ellipse style="fill: #ffffff" cx="330.395" cy="323.639" rx="66.725" ry="22.2417"/>
    <ellipse style="fill: none; fill-opacity:0; stroke-width: 2; stroke: #000000" cx="330.395" cy="323.639" rx="66.725" ry="22.2417"/>
    <text font-size="12.8" style="fill: #000000;text-anchor:middle;font-family:sans-serif;font-style:normal;font-weight:normal" x="330.395" y="327.539">
      <tspan x="330.395" y="327.539">View booking</tspan>
    </text>
  </g>
  <g>
    <ellipse style="fill: #ffffff" cx="811.792" cy="382.195" rx="73.25" ry="24.4167"/>
    <ellipse style="fill: none; fill-opacity:0; stroke-width: 2; stroke: #000000" cx="811.792" cy="382.195" rx="73.25" ry="24.4167"/>
    <text font-size="12.8" style="fill: #000000;text-anchor:middle;font-family:sans-serif;font-style:normal;font-weight:normal" x="811.792" y="386.095">
      <tspan x="811.792" y="386.095">Cancel booking</tspan>
    </text>
  </g>
  <g>
    <line style="fill: none; fill-opacity:0; stroke-width: 2; stroke-dasharray: 6; stroke: #000000" x1="384.856" y1="456.369" x2="498.394" y2="351.553"/>
    <polygon style="fill: #000000" points="501.785,355.227 510.15,340.7 495.002,347.88 "/>
    <polygon style="fill: none; fill-opacity:0; stroke-width: 2; stroke: #000000" points="501.785,355.227 510.15,340.7 495.002,347.88 "/>
  </g>
  <g>
    <rect style="fill: #8dc2bc" x="347.773" y="399.702" width="77" height="14.9"/>
    <text font-size="12.8" style="fill: #000000;text-anchor:start;font-family:monospace;font-style:normal;font-weight:normal" x="347.773" y="411.602">
      <tspan x="347.773" y="411.602">«includes»</tspan>
    </text>
  </g>
  <g>
    <line style="fill: none; fill-opacity:0; stroke-width: 2; stroke: #000000" x1="274.671" y1="292.009" x2="160.021" y2="226.931"/>
    <polygon style="fill: #000000" points="272.203,296.357 288.586,299.907 277.14,287.66 "/>
    <polygon style="fill: none; fill-opacity:0; stroke-width: 2; stroke: #000000" points="272.203,296.357 288.586,299.907 277.14,287.66 "/>
  </g>
  <g>
    <ellipse style="fill: #ffffff" cx="594.64" cy="-104.164" rx="80.25" ry="26.75"/>
    <ellipse style="fill: none; fill-opacity:0; stroke-width: 2; stroke: #000000" cx="594.64" cy="-104.164" rx="80.25" ry="26.75"/>
    <text font-size="12.8" style="fill: #000000;text-anchor:middle;font-family:sans-serif;font-style:normal;font-weight:normal" x="594.64" y="-100.264">
      <tspan x="594.64" y="-100.264">Store user details</tspan>
    </text>
  </g>
  <g>
    <line style="fill: none; fill-opacity:0; stroke-width: 2; stroke-dasharray: 6; stroke: #000000" x1="509.601" y1="-76.0995" x2="457.88" y2="-59.0304"/>
    <polygon style="fill: #000000" points="456.313,-63.7786 442.686,-54.0161 459.447,-54.2823 "/>
    <polygon style="fill: none; fill-opacity:0; stroke-width: 2; stroke: #000000" points="456.313,-63.7786 442.686,-54.0161 459.447,-54.2823 "/>
  </g>
  <text font-size="12.8" style="fill: #000000;text-anchor:start;font-family:monospace;font-style:normal;font-weight:normal" x="483.888" y="-57.2768">
    <tspan x="483.888" y="-57.2768">«includes»</tspan>
  </text>
  <g>
    <ellipse style="fill: #ffffff" cx="340.388" cy="-103.942" rx="88.15" ry="29.3833"/>
    <ellipse style="fill: none; fill-opacity:0; stroke-width: 2; stroke: #000000" cx="340.388" cy="-103.942" rx="88.15" ry="29.3833"/>
    <text font-size="12.8" style="fill: #000000;text-anchor:middle;font-family:sans-serif;font-style:normal;font-weight:normal" x="340.388" y="-100.042">
      <tspan x="340.388" y="-100.042">Confirm registration</tspan>
    </text>
  </g>
  <g>
    <ellipse style="fill: #ffffff" cx="548.018" cy="592.89" rx="71.65" ry="23.8833"/>
    <ellipse style="fill: none; fill-opacity:0; stroke-width: 2; stroke: #000000" cx="548.018" cy="592.89" rx="71.65" ry="23.8833"/>
    <text font-size="12.8" style="fill: #000000;text-anchor:middle;font-family:sans-serif;font-style:normal;font-weight:normal" x="548.018" y="596.79">
      <tspan x="548.018" y="596.79">Check voucher</tspan>
    </text>
  </g>
  <g>
    <line style="fill: none; fill-opacity:0; stroke-width: 2; stroke-dasharray: 6; stroke: #000000" x1="406.218" y1="511.978" x2="486.168" y2="557.598"/>
    <polygon style="fill: #000000" points="483.69,561.941 500.065,565.527 488.646,553.255 "/>
    <polygon style="fill: none; fill-opacity:0; stroke-width: 2; stroke: #000000" points="483.69,561.941 500.065,565.527 488.646,553.255 "/>
  </g>
  <g>
    <ellipse style="fill: #ffffff" cx="829.173" cy="552.978" rx="103.175" ry="34.3917"/>
    <ellipse style="fill: none; fill-opacity:0; stroke-width: 2; stroke: #000000" cx="829.173" cy="552.978" rx="103.175" ry="34.3917"/>
    <text font-size="12.8" style="fill: #000000;text-anchor:middle;font-family:sans-serif;font-style:normal;font-weight:normal" x="829.173" y="548.878">
      <tspan x="829.173" y="548.878">Encrypt payment</tspan>
      <tspan x="829.173" y="564.878">information</tspan>
    </text>
  </g>
  <g>
    <polyline style="fill: none; fill-opacity:0; stroke-width: 2; stroke: #000000" points="145.629,146.058 248.747,-35.8047 318.204,-35.6491 "/>
    <polygon style="fill: #000000" points="318.193,-30.6491 334.204,-35.6132 318.216,-40.6491 "/>
    <polygon style="fill: none; fill-opacity:0; stroke-width: 2; stroke: #000000" points="318.193,-30.6491 334.204,-35.6132 318.216,-40.6491 "/>
  </g>
  <g>
    <line style="fill: none; fill-opacity:0; stroke-width: 2; stroke: #000000" x1="446.541" y1="-104.035" x2="513.417" y2="-104.093"/>
    <polygon style="fill: #000000" points="446.537,-109.035 430.541,-104.021 446.545,-99.0345 "/>
    <polygon style="fill: none; fill-opacity:0; stroke-width: 2; stroke: #000000" points="446.537,-109.035 430.541,-104.021 446.545,-99.0345 "/>
  </g>
  <g>
    <ellipse style="fill: #ffffff" cx="376.444" cy="50.6249" rx="34.6" ry="20"/>
    <ellipse style="fill: none; fill-opacity:0; stroke-width: 2; stroke: #000000" cx="376.444" cy="50.6249" rx="34.6" ry="20"/>
    <text font-size="12.8" style="fill: #000000;text-anchor:middle;font-family:sans-serif;font-style:normal;font-weight:normal" x="376.444" y="54.5249">
      <tspan x="376.444" y="54.5249">Login</tspan>
    </text>
  </g>
  <g>
    <ellipse style="fill: #ffffff" cx="594.067" cy="418.613" rx="92.6" ry="32"/>
    <ellipse style="fill: none; fill-opacity:0; stroke-width: 2; stroke: #000000" cx="594.067" cy="418.613" rx="92.6" ry="32"/>
    <text font-size="12.8" style="fill: #000000;text-anchor:middle;font-family:sans-serif;font-style:normal;font-weight:normal" x="594.067" y="414.513">
      <tspan x="594.067" y="414.513">Save payment</tspan>
      <tspan x="594.067" y="430.513">details</tspan>
    </text>
  </g>
  <g>
    <line style="fill: none; fill-opacity:0; stroke-width: 2; stroke-dasharray: 6; stroke: #000000" x1="438.024" y1="460.912" x2="480.227" y2="449.472"/>
    <polygon style="fill: #000000" points="481.535,454.297 495.67,445.286 478.919,444.646 "/>
    <polygon style="fill: none; fill-opacity:0; stroke-width: 2; stroke: #000000" points="481.535,454.297 495.67,445.286 478.919,444.646 "/>
  </g>
  <g>
    <rect style="fill: #8dc2bc" x="436.002" y="515.895" width="77" height="14.9"/>
    <text font-size="12.8" style="fill: #000000;text-anchor:start;font-family:monospace;font-style:normal;font-weight:normal" x="436.002" y="527.795">
      <tspan x="436.002" y="527.795">«includes»</tspan>
    </text>
  </g>
  <g>
    <ellipse style="fill: #ffffff" cx="455.8" cy="651.058" rx="79.775" ry="26.5917"/>
    <ellipse style="fill: none; fill-opacity:0; stroke-width: 2; stroke: #000000" cx="455.8" cy="651.058" rx="79.775" ry="26.5917"/>
    <text font-size="12.8" style="fill: #000000;text-anchor:middle;font-family:sans-serif;font-style:normal;font-weight:normal" x="455.8" y="654.958">
      <tspan x="455.8" y="654.958">Confirm payment</tspan>
    </text>
  </g>
  <g>
    <line style="fill: none; fill-opacity:0; stroke-width: 2; stroke: #000000" x1="449.75" y1="287.898" x2="160.046" y2="212.87"/>
    <polygon style="fill: #000000" points="448.497,292.738 465.239,291.909 451.004,283.057 "/>
    <polygon style="fill: none; fill-opacity:0; stroke-width: 2; stroke: #000000" points="448.497,292.738 465.239,291.909 451.004,283.057 "/>
  </g>
  <g>
    <line style="fill: none; fill-opacity:0; stroke-width: 2; stroke-dasharray: 6; stroke: #000000" x1="624.618" y1="582.016" x2="704.21" y2="570.717"/>
    <polygon style="fill: #000000" points="704.912,575.668 720.051,568.468 703.507,565.767 "/>
    <polygon style="fill: none; fill-opacity:0; stroke-width: 2; stroke: #000000" points="704.912,575.668 720.051,568.468 703.507,565.767 "/>
  </g>
  <g>
    <rect style="fill: #8dc2bc" x="645.698" y="582.975" width="77" height="14.9"/>
    <text font-size="12.8" style="fill: #000000;text-anchor:start;font-family:monospace;font-style:normal;font-weight:normal" x="645.698" y="594.875">
      <tspan x="645.698" y="594.875">«includes»</tspan>
    </text>
  </g>
  <g>
    <rect style="fill: #edd6b4" x="661.92" y="57.2656" width="77" height="14.9"/>
    <text font-size="12.8" style="fill: #000000;text-anchor:start;font-family:monospace;font-style:normal;font-weight:normal" x="661.92" y="69.1656">
      <tspan x="661.92" y="69.1656">«includes»</tspan>
    </text>
  </g>
  <g>
    <ellipse style="fill: #ffffff" cx="1289.78" cy="204.768" rx="6" ry="6"/>
    <ellipse style="fill: none; fill-opacity:0; stroke-width: 2; stroke: #000000" cx="1289.78" cy="204.768" rx="6" ry="6"/>
    <line style="fill: none; fill-opacity:0; stroke-width: 2; stroke: #000000" x1="1265.78" y1="216.768" x2="1313.78" y2="216.768"/>
    <line style="fill: none; fill-opacity:0; stroke-width: 2; stroke: #000000" x1="1289.78" y1="210.768" x2="1289.78" y2="240.768"/>
    <line style="fill: none; fill-opacity:0; stroke-width: 2; stroke: #000000" x1="1289.78" y1="240.768" x2="1265.78" y2="266.768"/>
    <line style="fill: none; fill-opacity:0; stroke-width: 2; stroke: #000000" x1="1289.78" y1="240.768" x2="1313.78" y2="266.768"/>
    <text font-size="12.8" style="fill: #000000;text-anchor:middle;font-family:sans-serif;font-style:normal;font-weight:700" x="1289.78" y="290.668">
      <tspan x="1289.78" y="290.668">GDS</tspan>
    </text>
  </g>
  <g>
    <line style="fill: none; fill-opacity:0; stroke-width: 2; stroke: #000000" x1="953.341" y1="169.995" x2="1121.64" y2="323.25"/>
    <polygon style="fill: #000000" points="956.707,166.298 941.511,159.222 949.974,173.691 "/>
    <polygon style="fill: none; fill-opacity:0; stroke-width: 2; stroke: #000000" points="956.707,166.298 941.511,159.222 949.974,173.691 "/>
  </g>
  <g>
    <line style="fill: none; fill-opacity:0; stroke-width: 2; stroke-dasharray: 6; stroke: #000000" x1="607.907" y1="209.898" x2="560.556" y2="282.565"/>
    <polygon style="fill: #000000" points="612.096,212.627 613.366,201.519 603.718,207.168 "/>
    <polygon style="fill: none; fill-opacity:0; stroke-width: 2; stroke: #000000" points="612.096,212.627 613.366,201.519 603.718,207.168 "/>
  </g>
  <g>
    <rect style="fill: #edd6b4" x="592.386" y="219.68" width="77" height="14.9"/>
    <text font-size="12.8" style="fill: #000000;text-anchor:start;font-family:monospace;font-style:normal;font-weight:normal" x="592.386" y="231.58">
      <tspan x="592.386" y="231.58">«includes»</tspan>
    </text>
  </g>
  <g>
    <ellipse style="fill: #ffffff" cx="1289.78" cy="-65.9259" rx="6" ry="6"/>
    <ellipse style="fill: none; fill-opacity:0; stroke-width: 2; stroke: #000000" cx="1289.78" cy="-65.9259" rx="6" ry="6"/>
    <line style="fill: none; fill-opacity:0; stroke-width: 2; stroke: #000000" x1="1265.78" y1="-53.9259" x2="1313.78" y2="-53.9259"/>
    <line style="fill: none; fill-opacity:0; stroke-width: 2; stroke: #000000" x1="1289.78" y1="-59.9259" x2="1289.78" y2="-29.9259"/>
    <line style="fill: none; fill-opacity:0; stroke-width: 2; stroke: #000000" x1="1289.78" y1="-29.9259" x2="1265.78" y2="-3.92588"/>
    <line style="fill: none; fill-opacity:0; stroke-width: 2; stroke: #000000" x1="1289.78" y1="-29.9259" x2="1313.78" y2="-3.92588"/>
    <text font-size="12.8" style="fill: #000000;text-anchor:middle;font-family:sans-serif;font-style:normal;font-weight:700" x="1289.78" y="19.9741">
      <tspan x="1289.78" y="19.9741">User</tspan>
      <tspan x="1289.78" y="35.9741">Database</tspan>
    </text>
  </g>
  <g>
    <line style="fill: none; fill-opacity:0; stroke-width: 2; stroke: #000000" x1="692.799" y1="-93.681" x2="1255.7" y2="-33.5655"/>
    <polygon style="fill: #000000" points="693.33,-98.6527 676.889,-95.3801 692.268,-88.7093 "/>
    <polygon style="fill: none; fill-opacity:0; stroke-width: 2; stroke: #000000" points="693.33,-98.6527 676.889,-95.3801 692.268,-88.7093 "/>
  </g>
  <g>
    <ellipse style="fill: #ffffff" cx="1155.61" cy="318.188" rx="6" ry="6"/>
    <ellipse style="fill: none; fill-opacity:0; stroke-width: 2; stroke: #000000" cx="1155.61" cy="318.188" rx="6" ry="6"/>
    <line style="fill: none; fill-opacity:0; stroke-width: 2; stroke: #000000" x1="1131.61" y1="330.188" x2="1179.61" y2="330.188"/>
    <line style="fill: none; fill-opacity:0; stroke-width: 2; stroke: #000000" x1="1155.61" y1="324.188" x2="1155.61" y2="354.188"/>
    <line style="fill: none; fill-opacity:0; stroke-width: 2; stroke: #000000" x1="1155.61" y1="354.188" x2="1131.61" y2="380.188"/>
    <line style="fill: none; fill-opacity:0; stroke-width: 2; stroke: #000000" x1="1155.61" y1="354.188" x2="1179.61" y2="380.188"/>
    <text font-size="12.8" style="fill: #000000;text-anchor:middle;font-family:sans-serif;font-style:normal;font-weight:700" x="1155.61" y="404.088">
      <tspan x="1155.61" y="404.088">Product</tspan>
      <tspan x="1155.61" y="420.088">Database</tspan>
    </text>
  </g>
  <g>
    <ellipse style="fill: #ffffff" cx="558.43" cy="716.41" rx="77.1" ry="25.7"/>
    <ellipse style="fill: none; fill-opacity:0; stroke-width: 2; stroke: #000000" cx="558.43" cy="716.41" rx="77.1" ry="25.7"/>
    <text font-size="12.8" style="fill: #000000;text-anchor:middle;font-family:sans-serif;font-style:normal;font-weight:normal" x="558.43" y="720.31">
      <tspan x="558.43" y="720.31">Refund payment</tspan>
    </text>
  </g>
  <text font-size="12.8" style="fill: #000000;text-anchor:start;font-family:sans-serif;font-style:normal;font-weight:normal" x="890.201" y="-131.217">
    <tspan x="890.201" y="-131.217">Registration, searching and</tspan>
    <tspan x="890.201" y="-115.217">booking subsystems</tspan>
  </text>
  <g>
    <line style="fill: none; fill-opacity:0; stroke-width: 2; stroke: #000000" x1="1250.82" y1="273.701" x2="1189.68" y2="325.383"/>
    <polygon style="fill: #000000" points="1254.05,277.52 1263.04,263.372 1247.59,269.883 "/>
    <polygon style="fill: none; fill-opacity:0; stroke-width: 2; stroke: #000000" points="1254.05,277.52 1263.04,263.372 1247.59,269.883 "/>
  </g>
  <g>
    <line style="fill: none; fill-opacity:0; stroke-width: 2; stroke-dasharray: 6; stroke: #000000" x1="373.781" y1="513.399" x2="428.612" y2="605.427"/>
    <polygon style="fill: #000000" points="424.317,607.986 436.802,619.172 432.908,602.868 "/>
    <polygon style="fill: none; fill-opacity:0; stroke-width: 2; stroke: #000000" points="424.317,607.986 436.802,619.172 432.908,602.868 "/>
  </g>
  <g>
    <rect style="fill: #8dc2bc" x="317.483" y="548.48" width="77" height="14.9"/>
    <text font-size="12.8" style="fill: #000000;text-anchor:start;font-family:monospace;font-style:normal;font-weight:normal" x="317.483" y="560.38">
      <tspan x="317.483" y="560.38">«includes»</tspan>
    </text>
  </g>
  <g>
    <line style="fill: none; fill-opacity:0; stroke-width: 2; stroke: #000000" x1="326.097" y1="79.533" x2="160.017" y2="174.891"/>
    <polygon style="fill: #000000" points="328.586,83.869 339.972,71.5661 323.607,75.1969 "/>
    <polygon style="fill: none; fill-opacity:0; stroke-width: 2; stroke: #000000" points="328.586,83.869 339.972,71.5661 323.607,75.1969 "/>
  </g>
  <g>
    <polyline style="fill: none; fill-opacity:0; stroke-width: 2; stroke: #000000" points="1132.84,299.193 1016.67,18.6067 843.097,18.9343 "/>
    <polygon style="fill: #000000" points="843.087,13.9344 827.097,18.9645 843.106,23.9343 "/>
    <polygon style="fill: none; fill-opacity:0; stroke-width: 2; stroke: #000000" points="843.087,13.9344 827.097,18.9645 843.106,23.9343 "/>
  </g>
  <g>
    <line style="fill: none; fill-opacity:0; stroke-width: 2; stroke: #000000" x1="653.265" y1="699.742" x2="1114.17" y2="618.739"/>
    <polygon style="fill: #000000" points="652.4,694.818 637.507,702.512 654.131,704.667 "/>
    <polygon style="fill: none; fill-opacity:0; stroke-width: 2; stroke: #000000" points="652.4,694.818 637.507,702.512 654.131,704.667 "/>
  </g>
  <g>
    <line style="fill: none; fill-opacity:0; stroke-width: 2; stroke: #000000" x1="553.553" y1="645.526" x2="1114.13" y2="613.802"/>
    <polygon style="fill: #000000" points="553.271,640.534 537.579,646.43 553.836,650.518 "/>
    <polygon style="fill: none; fill-opacity:0; stroke-width: 2; stroke: #000000" points="553.271,640.534 537.579,646.43 553.836,650.518 "/>
  </g>
  <text font-size="12.8" style="fill: #000000;text-anchor:start;font-family:sans-serif;font-style:italic;font-weight:700" x="1233.63" y="-151.496">
    <tspan x="1233.63" y="-151.496">Secondary Actors</tspan>
  </text>
  <text font-size="12.8" style="fill: #000000;text-anchor:start;font-family:sans-serif;font-style:italic;font-weight:700" x="1102.53" y="-151.496">
    <tspan x="1102.53" y="-151.496">Primary Actors</tspan>
  </text>
  <text font-size="12.8" style="fill: #000000;text-anchor:start;font-family:sans-serif;font-style:italic;font-weight:700" x="64.1718" y="-151.496">
    <tspan x="64.1718" y="-151.496">Primary Actors</tspan>
  </text>
  <g>
    <line style="fill: none; fill-opacity:0; stroke-width: 2; stroke-dasharray: 6; stroke: #000000" x1="733.665" y1="361.807" x2="637.281" y2="336.654"/>
    <polygon style="fill: #000000" points="638.544,331.816 621.799,332.614 636.018,341.492 "/>
    <polygon style="fill: none; fill-opacity:0; stroke-width: 2; stroke: #000000" points="638.544,331.816 621.799,332.614 636.018,341.492 "/>
  </g>
  <g>
    <rect style="fill: #8dc2bc" x="670.248" y="326.453" width="69.3" height="14.9"/>
    <text font-size="12.8" style="fill: #000000;text-anchor:start;font-family:monospace;font-style:normal;font-weight:normal" x="670.248" y="338.353">
      <tspan x="670.248" y="338.353">«extends»</tspan>
    </text>
  </g>
  <g>
    <rect style="fill: #8dc2bc" x="443.877" y="460.113" width="77" height="14.9"/>
    <text font-size="12.8" style="fill: #000000;text-anchor:start;font-family:monospace;font-style:normal;font-weight:normal" x="443.877" y="472.013">
      <tspan x="443.877" y="472.013">«includes»</tspan>
    </text>
  </g>
  <g>
    <line style="fill: none; fill-opacity:0; stroke-width: 2; stroke-dasharray: 6; stroke: #000000" x1="776.846" y1="410.109" x2="595.466" y2="554.99"/>
    <polygon style="fill: #000000" points="592.345,551.083 582.964,564.976 598.586,558.897 "/>
    <polygon style="fill: none; fill-opacity:0; stroke-width: 2; stroke: #000000" points="592.345,551.083 582.964,564.976 598.586,558.897 "/>
  </g>
  <g>
    <rect style="fill: #8dc2bc" x="578.97" y="498.576" width="69.3" height="14.9"/>
    <text font-size="12.8" style="fill: #000000;text-anchor:start;font-family:monospace;font-style:normal;font-weight:normal" x="578.97" y="510.476">
      <tspan x="578.97" y="510.476">«extends»</tspan>
    </text>
  </g>
  <text font-size="12.7998" style="fill: #000000;text-anchor:start;font-family:sans-serif;font-style:normal;font-weight:normal" x="707.457" y="349.078">
    <tspan x="707.457" y="349.078">User aborts booking</tspan>
  </text>
  <g>
    <rect style="fill: #8dc2bc" x="590.267" y="509.903" width="169.4" height="14.9"/>
    <text font-size="12.8" style="fill: #000000;text-anchor:start;font-family:monospace;font-style:normal;font-weight:normal" x="590.267" y="521.803">
      <tspan x="590.267" y="521.803">Voucher info incorrect</tspan>
    </text>
  </g>
  <g>
    <rect style="fill: #8dc2bc" x="459.062" y="473.126" width="61.6" height="14.9"/>
    <text font-size="12.8" style="fill: #000000;text-anchor:start;font-family:monospace;font-style:normal;font-weight:normal" x="459.062" y="485.026">
      <tspan x="459.062" y="485.026">Optional</tspan>
    </text>
  </g>
  <text font-size="15.24" style="fill: #000000;text-anchor:start;font-family:sans-serif;font-style:italic;font-weight:700" x="890.201" y="-151.562">
    <tspan x="890.201" y="-151.562">Travpedia</tspan>
  </text>
  <text font-size="12.7998" style="fill: #000000;text-anchor:start;font-family:sans-serif;font-style:normal;font-weight:normal" x="53.3919" y="273.811">
    <tspan x="53.3919" y="273.811">Person who is not</tspan>
    <tspan x="53.3919" y="289.811">a member who </tspan>
    <tspan x="53.3919" y="305.811">will register or who</tspan>
    <tspan x="53.3919" y="321.811">is logged into the</tspan>
    <tspan x="53.3919" y="337.811">system, ready to</tspan>
    <tspan x="53.3919" y="353.811">make a search or</tspan>
    <tspan x="53.3919" y="369.811">a booking.</tspan>
  </text>
  <text font-size="12.7998" style="fill: #000000;text-anchor:start;font-family:sans-serif;font-style:normal;font-weight:normal" x="1229.84" y="64.3107">
    <tspan x="1229.84" y="64.3107">Database system, </tspan>
    <tspan x="1229.84" y="80.3107">stores info about </tspan>
    <tspan x="1229.84" y="96.3107">users inc. past </tspan>
    <tspan x="1229.84" y="112.311">bookings, settings</tspan>
    <tspan x="1229.84" y="128.311">and vouchers.</tspan>
  </text>
  <text font-size="12.7998" style="fill: #000000;text-anchor:start;font-family:sans-serif;font-style:normal;font-weight:normal" x="1230.03" y="313.415">
    <tspan x="1230.03" y="313.415">Global Distribution</tspan>
    <tspan x="1230.03" y="329.415">System - handles</tspan>
    <tspan x="1230.03" y="345.415">bookings for many</tspan>
    <tspan x="1230.03" y="361.415">hotel and travel </tspan>
    <tspan x="1230.03" y="377.415">systems.</tspan>
  </text>
  <text font-size="12.7998" style="fill: #000000;text-anchor:start;font-family:sans-serif;font-style:normal;font-weight:normal" x="1105.05" y="441.646">
    <tspan x="1105.05" y="441.646">Integrates with</tspan>
    <tspan x="1105.05" y="457.646">GDS to provide </tspan>
    <tspan x="1105.05" y="473.646">product info and</tspan>
    <tspan x="1105.05" y="489.646">statuses.</tspan>
  </text>
  <text font-size="12.7998" style="fill: #000000;text-anchor:start;font-family:sans-serif;font-style:normal;font-weight:normal" x="1105.05" y="697.84">
    <tspan x="1105.05" y="697.84">Handles payments</tspan>
    <tspan x="1105.05" y="713.84">including notifying</tspan>
    <tspan x="1105.05" y="729.84">users.</tspan>
  </text>
</svg>
