<?xml version="1.0" encoding="UTF-8" standalone="no"?>
<!DOCTYPE svg PUBLIC "-//W3C//DTD SVG 1.0//EN" "http://www.w3.org/TR/2001/PR-SVG-20010719/DTD/svg10.dtd">
<svg width="76cm" height="66cm" viewBox="7 -323 1517 1315" xmlns="http://www.w3.org/2000/svg" xmlns:xlink="http://www.w3.org/1999/xlink">
  <g>
    <path style="fill: #be7467" d="M 523.894 -280.544 C 370.688,-242.892 599.198,-85.7906 762.792,-87.089 C 926.386,-88.3872 1170.48,-272.754 1026.36,-292.23 C 882.24,-311.706 677.1,-318.196 523.894,-280.544z"/>
    <path style="fill: none; fill-opacity:0; stroke-width: 2; stroke: #000000" d="M 523.894 -280.544 C 370.688,-242.892 599.198,-85.7906 762.792,-87.089 C 926.386,-88.3872 1170.48,-272.754 1026.36,-292.23 C 882.24,-311.706 677.1,-318.196 523.894,-280.544"/>
  </g>
  <g>
    <path style="fill: #8dc2bc" d="M 293.034 482.738 C 301.946,327.878 742.09,427.852 845.96,513.544 C 949.828,599.236 1042.01,717.386 981.166,768.376 C 847.832,880.112 681.068,857.61 508.386,851.118 C 335.704,844.626 280.216,705.476 293.034,482.738z"/>
    <path style="fill: none; fill-opacity:0; stroke-width: 2; stroke: #000000" d="M 293.034 482.738 C 301.946,327.878 742.09,427.852 845.96,513.544 C 949.828,599.236 1042.01,717.386 981.166,768.376 C 847.832,880.112 681.068,857.61 508.386,851.118 C 335.704,844.626 280.216,705.476 293.034,482.738"/>
  </g>
  <g>
    <path style="fill: #edd6b4" d="M 287.592 -44.243 C 301.874,-157.2 627.762,-97.4758 718.648,-67.6136 C 809.532,-37.7512 1069.28,151.302 925.336,264.614 C 735.99,413.668 588.884,375.918 442.17,333.072 C 295.456,290.226 266.104,125.702 287.592,-44.243z"/>
    <path style="fill: none; fill-opacity:0; stroke-width: 2; stroke: #000000" d="M 287.592 -44.243 C 301.874,-157.2 627.762,-97.4758 718.648,-67.6136 C 809.532,-37.7512 1069.28,151.302 925.336,264.614 C 735.99,413.668 588.884,375.918 442.17,333.072 C 295.456,290.226 266.104,125.702 287.592,-44.243"/>
  </g>
  <rect style="fill: none; fill-opacity:0; stroke-width: 4; stroke: #000000" x="254.766" y="-320.606" width="821" height="1188.02"/>
  <g>
    <ellipse style="fill: #ffffff" cx="1279.35" cy="223.076" rx="6" ry="6"/>
    <ellipse style="fill: none; fill-opacity:0; stroke-width: 2; stroke: #000000" cx="1279.35" cy="223.076" rx="6" ry="6"/>
    <line style="fill: none; fill-opacity:0; stroke-width: 2; stroke: #000000" x1="1255.35" y1="235.076" x2="1303.35" y2="235.076"/>
    <line style="fill: none; fill-opacity:0; stroke-width: 2; stroke: #000000" x1="1279.35" y1="229.076" x2="1279.35" y2="259.076"/>
    <line style="fill: none; fill-opacity:0; stroke-width: 2; stroke: #000000" x1="1279.35" y1="259.076" x2="1255.35" y2="285.076"/>
    <line style="fill: none; fill-opacity:0; stroke-width: 2; stroke: #000000" x1="1279.35" y1="259.076" x2="1303.35" y2="285.076"/>
    <text style="fill: #000000;text-anchor:middle;font-size:12.8;font-family:sanserif;font-style:normal;font-weight:normal" x="1279.35" y="308.976">
      <tspan x="1279.35" y="308.976">System</tspan>
    </text>
  </g>
  <text style="fill: #000000;text-anchor:start;font-size:12.8;font-family:sanserif;font-style:normal;font-weight:normal" x="273.766" y="357.922">
    <tspan x="273.766" y="357.922"></tspan>
  </text>
  <g>
    <ellipse style="fill: #ffffff" cx="47.4969" cy="196.699" rx="6" ry="6"/>
    <ellipse style="fill: none; fill-opacity:0; stroke-width: 2; stroke: #000000" cx="47.4969" cy="196.699" rx="6" ry="6"/>
    <line style="fill: none; fill-opacity:0; stroke-width: 2; stroke: #000000" x1="23.4969" y1="208.699" x2="71.4969" y2="208.699"/>
    <line style="fill: none; fill-opacity:0; stroke-width: 2; stroke: #000000" x1="47.4969" y1="202.699" x2="47.4969" y2="232.699"/>
    <line style="fill: none; fill-opacity:0; stroke-width: 2; stroke: #000000" x1="47.4969" y1="232.699" x2="23.4969" y2="258.699"/>
    <line style="fill: none; fill-opacity:0; stroke-width: 2; stroke: #000000" x1="47.4969" y1="232.699" x2="71.4969" y2="258.699"/>
    <text style="fill: #000000;text-anchor:middle;font-size:12.8;font-family:sanserif;font-style:normal;font-weight:normal" x="47.4969" y="282.599">
      <tspan x="47.4969" y="282.599">UserAccount</tspan>
    </text>
  </g>
  <g>
    <ellipse style="fill: #ffffff" cx="1280.55" cy="585.092" rx="6" ry="6"/>
    <ellipse style="fill: none; fill-opacity:0; stroke-width: 2; stroke: #000000" cx="1280.55" cy="585.092" rx="6" ry="6"/>
    <line style="fill: none; fill-opacity:0; stroke-width: 2; stroke: #000000" x1="1256.55" y1="597.092" x2="1304.55" y2="597.092"/>
    <line style="fill: none; fill-opacity:0; stroke-width: 2; stroke: #000000" x1="1280.55" y1="591.092" x2="1280.55" y2="621.092"/>
    <line style="fill: none; fill-opacity:0; stroke-width: 2; stroke: #000000" x1="1280.55" y1="621.092" x2="1256.55" y2="647.092"/>
    <line style="fill: none; fill-opacity:0; stroke-width: 2; stroke: #000000" x1="1280.55" y1="621.092" x2="1304.55" y2="647.092"/>
    <text style="fill: #000000;text-anchor:middle;font-size:12.8;font-family:sanserif;font-style:normal;font-weight:normal" x="1280.55" y="670.992">
      <tspan x="1280.55" y="670.992">Third Party</tspan>
      <tspan x="1280.55" y="686.992">Consortium</tspan>
    </text>
  </g>
  <g>
    <ellipse style="fill: #ffffff" cx="523.482" cy="153.955" rx="100.425" ry="33.475"/>
    <ellipse style="fill: none; fill-opacity:0; stroke-width: 2; stroke: #000000" cx="523.482" cy="153.955" rx="100.425" ry="33.475"/>
    <text style="fill: #000000;text-anchor:middle;font-size:12.8;font-family:sanserif;font-style:normal;font-weight:normal" x="523.482" y="157.855">
      <tspan x="523.482" y="157.855">        Make a search       </tspan>
    </text>
  </g>
  <g>
    <line style="fill: none; fill-opacity:0; stroke-width: 2; stroke: #000000" x1="405.283" y1="173.509" x2="88.322" y2="225.945"/>
    <polygon style="fill: #000000" points="406.099,178.442 421.068,170.898 404.467,168.576 "/>
    <polygon style="fill: none; fill-opacity:0; stroke-width: 2; stroke: #000000" points="406.099,178.442 421.068,170.898 404.467,168.576 "/>
  </g>
  <g>
    <line style="fill: none; fill-opacity:0; stroke-width: 2; stroke: #000000" x1="1236.58" y1="253.129" x2="624.897" y2="168.059"/>
    <polygon style="fill: #000000" points="1235.89,258.081 1252.43,255.333 1237.27,248.176 "/>
    <polygon style="fill: none; fill-opacity:0; stroke-width: 2; stroke: #000000" points="1235.89,258.081 1252.43,255.333 1237.27,248.176 "/>
  </g>
  <g>
    <ellipse style="fill: #ffffff" cx="695.936" cy="488.667" rx="74.2" ry="24.7333"/>
    <ellipse style="fill: none; fill-opacity:0; stroke-width: 2; stroke: #000000" cx="695.936" cy="488.667" rx="74.2" ry="24.7333"/>
    <text style="fill: #000000;text-anchor:middle;font-size:12.8;font-family:sanserif;font-style:normal;font-weight:normal" x="695.936" y="492.567">
      <tspan x="695.936" y="492.567">Make a booking</tspan>
    </text>
  </g>
  <g>
    <line style="fill: none; fill-opacity:0; stroke-width: 2; stroke: #000000" x1="1237.53" y1="275.535" x2="761.331" y2="462.932"/>
    <polygon style="fill: #000000" points="1239.36,280.187 1252.41,269.675 1235.69,270.882 "/>
    <polygon style="fill: none; fill-opacity:0; stroke-width: 2; stroke: #000000" points="1239.36,280.187 1252.41,269.675 1235.69,270.882 "/>
  </g>
  <g>
    <line style="fill: none; fill-opacity:0; stroke-width: 2; stroke: #000000" x1="1279.59" y1="331.072" x2="1280.37" y2="566.095"/>
    <polygon style="fill: #000000" points="1284.59,331.056 1279.53,315.072 1274.59,331.089 "/>
    <polygon style="fill: none; fill-opacity:0; stroke-width: 2; stroke: #000000" points="1284.59,331.056 1279.53,315.072 1274.59,331.089 "/>
  </g>
  <g>
    <line style="fill: none; fill-opacity:0; stroke-width: 2; stroke: #000000" x1="1280.31" y1="549.096" x2="1279.53" y2="314.072"/>
    <polygon style="fill: #000000" points="1275.31,549.112 1280.36,565.096 1285.31,549.079 "/>
    <polygon style="fill: none; fill-opacity:0; stroke-width: 2; stroke: #000000" points="1275.31,549.112 1280.36,565.096 1285.31,549.079 "/>
  </g>
  <g>
    <line style="fill: none; fill-opacity:0; stroke-width: 2; stroke: #000000" x1="1190.28" y1="-16.8069" x2="1261.59" y2="204.084"/>
    <polygon style="fill: #000000" points="1195.03,-18.3431 1185.36,-32.033 1185.52,-15.2706 "/>
    <polygon style="fill: none; fill-opacity:0; stroke-width: 2; stroke: #000000" points="1195.03,-18.3431 1185.36,-32.033 1185.52,-15.2706 "/>
  </g>
  <g>
    <ellipse style="fill: #ffffff" cx="855.668" cy="-188.546" rx="50.4" ry="20"/>
    <ellipse style="fill: none; fill-opacity:0; stroke-width: 2; stroke: #000000" cx="855.668" cy="-188.546" rx="50.4" ry="20"/>
    <text style="fill: #000000;text-anchor:middle;font-size:12.8;font-family:sanserif;font-style:normal;font-weight:normal" x="855.668" y="-184.646">
      <tspan x="855.668" y="-184.646">Register</tspan>
    </text>
  </g>
  <g>
    <line style="fill: none; fill-opacity:0; stroke-width: 2; stroke: #000000" x1="1241.67" y1="219.272" x2="875.541" y2="-167.55"/>
    <polygon style="fill: #000000" points="1238.04,222.709 1252.67,230.893 1245.3,215.835 "/>
    <polygon style="fill: none; fill-opacity:0; stroke-width: 2; stroke: #000000" points="1238.04,222.709 1252.67,230.893 1245.3,215.835 "/>
  </g>
  <g>
    <ellipse style="fill: #ffffff" cx="808.278" cy="128.325" rx="86.65" ry="28.8833"/>
    <ellipse style="fill: none; fill-opacity:0; stroke-width: 2; stroke: #000000" cx="808.278" cy="128.325" rx="86.65" ry="28.8833"/>
    <text style="fill: #000000;text-anchor:middle;font-size:12.8;font-family:sanserif;font-style:normal;font-weight:normal" x="808.278" y="132.225">
      <tspan x="808.278" y="132.225">Filter search results</tspan>
    </text>
  </g>
  <g>
    <line style="fill: none; fill-opacity:0; stroke-width: 2; stroke-dasharray: 6; stroke: #000000" x1="716.643" y1="136.571" x2="645.808" y2="142.946"/>
    <polygon style="fill: #000000" points="645.359,137.967 629.872,144.381 646.256,147.926 "/>
    <polygon style="fill: none; fill-opacity:0; stroke-width: 2; stroke: #000000" points="645.359,137.967 629.872,144.381 646.256,147.926 "/>
  </g>
  <g>
    <ellipse style="fill: #ffffff" cx="627.994" cy="-15.5606" rx="83.9" ry="27.9667"/>
    <ellipse style="fill: none; fill-opacity:0; stroke-width: 2; stroke: #000000" cx="627.994" cy="-15.5606" rx="83.9" ry="27.9667"/>
    <text style="fill: #000000;text-anchor:middle;font-size:12.8;font-family:sanserif;font-style:normal;font-weight:normal" x="627.994" y="-11.6606">
      <tspan x="627.994" y="-11.6606">Sort search results</tspan>
    </text>
  </g>
  <g>
    <line style="fill: none; fill-opacity:0; stroke-width: 2; stroke-dasharray: 6; stroke: #000000" x1="608.085" y1="16.7316" x2="555.764" y2="101.595"/>
    <polygon style="fill: #000000" points="551.508,98.9709 547.367,115.215 560.02,104.219 "/>
    <polygon style="fill: none; fill-opacity:0; stroke-width: 2; stroke: #000000" points="551.508,98.9709 547.367,115.215 560.02,104.219 "/>
  </g>
  <g>
    <rect style="fill: #edd6b4" x="636.069" y="105.277" width="77" height="14.95"/>
    <text style="fill: #000000;text-anchor:start;font-size:12.8;font-family:monospace;font-style:normal;font-weight:normal" x="636.069" y="117.177">
      <tspan x="636.069" y="117.177">«includes»</tspan>
    </text>
  </g>
  <g>
    <ellipse style="fill: #ffffff" cx="487.099" cy="701.09" rx="77.275" ry="25.7583"/>
    <ellipse style="fill: none; fill-opacity:0; stroke-width: 2; stroke: #000000" cx="487.099" cy="701.09" rx="77.275" ry="25.7583"/>
    <text style="fill: #000000;text-anchor:middle;font-size:12.8;font-family:sanserif;font-style:normal;font-weight:normal" x="487.099" y="704.99">
      <tspan x="487.099" y="704.99">Make a payment</tspan>
    </text>
  </g>
  <g>
    <line style="fill: none; fill-opacity:0; stroke-width: 2; stroke: #000000" x1="1227.55" y1="638.406" x2="972.957" y2="721.573"/>
    <polygon style="fill: #000000" points="1229.1,643.159 1242.76,633.437 1226,633.653 "/>
    <polygon style="fill: none; fill-opacity:0; stroke-width: 2; stroke: #000000" points="1229.1,643.159 1242.76,633.437 1226,633.653 "/>
  </g>
  <g>
    <polyline style="fill: none; fill-opacity:0; stroke-width: 2; stroke: #000000" points="84.8787,287.69 365.742,700.862 391.82,700.918 "/>
    <polygon style="fill: #000000" points="391.809,705.918 407.82,700.953 391.831,695.918 "/>
    <polygon style="fill: none; fill-opacity:0; stroke-width: 2; stroke: #000000" points="391.809,705.918 407.82,700.953 391.831,695.918 "/>
  </g>
  <g>
    <ellipse style="fill: #ffffff" cx="396.007" cy="445.62" rx="66.625" ry="22.2083"/>
    <ellipse style="fill: none; fill-opacity:0; stroke-width: 2; stroke: #000000" cx="396.007" cy="445.62" rx="66.625" ry="22.2083"/>
    <text style="fill: #000000;text-anchor:middle;font-size:12.8;font-family:sanserif;font-style:normal;font-weight:normal" x="396.007" y="449.52">
      <tspan x="396.007" y="449.52">View booking</tspan>
    </text>
  </g>
  <g>
    <ellipse style="fill: #ffffff" cx="395.186" cy="549.319" rx="73.1" ry="24.3667"/>
    <ellipse style="fill: none; fill-opacity:0; stroke-width: 2; stroke: #000000" cx="395.186" cy="549.319" rx="73.1" ry="24.3667"/>
    <text style="fill: #000000;text-anchor:middle;font-size:12.8;font-family:sanserif;font-style:normal;font-weight:normal" x="395.186" y="553.219">
      <tspan x="395.186" y="553.219">Cancel booking</tspan>
    </text>
  </g>
  <g>
    <line style="fill: none; fill-opacity:0; stroke-width: 2; stroke-dasharray: 6; stroke: #000000" x1="473.202" y1="533.585" x2="600.154" y2="507.983"/>
    <polygon style="fill: #000000" points="601.142,512.885 615.838,504.82 599.165,503.082 "/>
    <polygon style="fill: none; fill-opacity:0; stroke-width: 2; stroke: #000000" points="601.142,512.885 615.838,504.82 599.165,503.082 "/>
  </g>
  <g>
    <rect style="fill: #8dc2bc" x="490.706" y="532.576" width="69.3" height="14.95"/>
    <text style="fill: #000000;text-anchor:start;font-size:12.8;font-family:monospace;font-style:normal;font-weight:normal" x="490.706" y="544.476">
      <tspan x="490.706" y="544.476">«extends»</tspan>
    </text>
  </g>
  <g>
    <line style="fill: none; fill-opacity:0; stroke-width: 2; stroke-dasharray: 6; stroke: #000000" x1="467.599" y1="455.895" x2="599.984" y2="474.896"/>
    <polygon style="fill: #000000" points="599.273,479.845 615.821,477.169 600.694,469.947 "/>
    <polygon style="fill: none; fill-opacity:0; stroke-width: 2; stroke: #000000" points="599.273,479.845 615.821,477.169 600.694,469.947 "/>
  </g>
  <g>
    <rect style="fill: #8dc2bc" x="504.24" y="444.44" width="69.3" height="14.95"/>
    <text style="fill: #000000;text-anchor:start;font-size:12.8;font-family:monospace;font-style:normal;font-weight:normal" x="504.24" y="456.34">
      <tspan x="504.24" y="456.34">«extends»</tspan>
    </text>
  </g>
  <g>
    <line style="fill: none; fill-opacity:0; stroke-width: 2; stroke-dasharray: 6; stroke: #000000" x1="516.11" y1="671.581" x2="655.912" y2="529.379"/>
    <polygon style="fill: #000000" points="659.478,532.884 667.129,517.969 652.347,525.873 "/>
    <polygon style="fill: none; fill-opacity:0; stroke-width: 2; stroke: #000000" points="659.478,532.884 667.129,517.969 652.347,525.873 "/>
  </g>
  <g>
    <rect style="fill: #8dc2bc" x="511.206" y="621.848" width="77" height="14.95"/>
    <text style="fill: #000000;text-anchor:start;font-size:12.8;font-family:monospace;font-style:normal;font-weight:normal" x="511.206" y="633.748">
      <tspan x="511.206" y="633.748">«includes»</tspan>
    </text>
  </g>
  <g>
    <line style="fill: none; fill-opacity:0; stroke-width: 2; stroke: #000000" x1="354.764" y1="512.509" x2="88.2842" y2="269.841"/>
    <polygon style="fill: #000000" points="351.397,516.205 366.594,523.281 358.13,508.812 "/>
    <polygon style="fill: none; fill-opacity:0; stroke-width: 2; stroke: #000000" points="351.397,516.205 366.594,523.281 358.13,508.812 "/>
  </g>
  <g>
    <line style="fill: none; fill-opacity:0; stroke-width: 2; stroke: #000000" x1="343.531" y1="413.56" x2="86.9766" y2="256.819"/>
    <polygon style="fill: #000000" points="340.924,417.827 357.184,421.902 346.138,409.293 "/>
    <polygon style="fill: none; fill-opacity:0; stroke-width: 2; stroke: #000000" points="340.924,417.827 357.184,421.902 346.138,409.293 "/>
  </g>
  <g>
    <ellipse style="fill: #ffffff" cx="983.424" cy="-257.214" rx="80.25" ry="26.75"/>
    <ellipse style="fill: none; fill-opacity:0; stroke-width: 2; stroke: #000000" cx="983.424" cy="-257.214" rx="80.25" ry="26.75"/>
    <text style="fill: #000000;text-anchor:middle;font-size:12.8;font-family:sanserif;font-style:normal;font-weight:normal" x="983.424" y="-253.314">
      <tspan x="983.424" y="-253.314">Store user details</tspan>
    </text>
  </g>
  <g>
    <line style="fill: none; fill-opacity:0; stroke-width: 2; stroke-dasharray: 6; stroke: #000000" x1="928.374" y1="-227.625" x2="913.231" y2="-219.486"/>
    <polygon style="fill: #000000" points="910.864,-223.89 899.138,-211.911 915.599,-215.082 "/>
    <polygon style="fill: none; fill-opacity:0; stroke-width: 2; stroke: #000000" points="910.864,-223.89 899.138,-211.911 915.599,-215.082 "/>
  </g>
  <text style="fill: #000000;text-anchor:start;font-size:12.8;font-family:monospace;font-style:normal;font-weight:normal" x="832.166" y="-224.24">
    <tspan x="832.166" y="-224.24">«includes»</tspan>
  </text>
  <g>
    <ellipse style="fill: #ffffff" cx="605.192" cy="-258.173" rx="88.15" ry="29.3833"/>
    <ellipse style="fill: none; fill-opacity:0; stroke-width: 2; stroke: #000000" cx="605.192" cy="-258.173" rx="88.15" ry="29.3833"/>
    <text style="fill: #000000;text-anchor:middle;font-size:12.8;font-family:sanserif;font-style:normal;font-weight:normal" x="605.192" y="-254.273">
      <tspan x="605.192" y="-254.273">Confirm registration</tspan>
    </text>
  </g>
  <g>
    <ellipse style="fill: #ffffff" cx="772.115" cy="650.227" rx="71.625" ry="23.875"/>
    <ellipse style="fill: none; fill-opacity:0; stroke-width: 2; stroke: #000000" cx="772.115" cy="650.227" rx="71.625" ry="23.875"/>
    <text style="fill: #000000;text-anchor:middle;font-size:12.8;font-family:sanserif;font-style:normal;font-weight:normal" x="772.115" y="654.127">
      <tspan x="772.115" y="654.127">Check voucher</tspan>
    </text>
  </g>
  <g>
    <line style="fill: none; fill-opacity:0; stroke-width: 2; stroke-dasharray: 6; stroke: #000000" x1="569.284" y1="686.424" x2="678.822" y2="666.876"/>
    <polygon style="fill: #000000" points="679.7,671.798 694.573,664.065 677.944,661.954 "/>
    <polygon style="fill: none; fill-opacity:0; stroke-width: 2; stroke: #000000" points="679.7,671.798 694.573,664.065 677.944,661.954 "/>
  </g>
  <g>
    <rect style="fill: #8dc2bc" x="594.018" y="682.516" width="69.3" height="14.95"/>
    <text style="fill: #000000;text-anchor:start;font-size:12.8;font-family:monospace;font-style:normal;font-weight:normal" x="594.018" y="694.416">
      <tspan x="594.018" y="694.416">«extends»</tspan>
    </text>
  </g>
  <g>
    <ellipse style="fill: #ffffff" cx="868.8" cy="755.597" rx="103.15" ry="34.3833"/>
    <ellipse style="fill: none; fill-opacity:0; stroke-width: 2; stroke: #000000" cx="868.8" cy="755.597" rx="103.15" ry="34.3833"/>
    <text style="fill: #000000;text-anchor:middle;font-size:12.8;font-family:sanserif;font-style:normal;font-weight:normal" x="868.8" y="751.497">
      <tspan x="868.8" y="751.497">Encrypt payment</tspan>
      <tspan x="868.8" y="767.497">information</tspan>
    </text>
  </g>
  <g>
    <line style="fill: none; fill-opacity:0; stroke-width: 2; stroke: #000000" x1="747.821" y1="738.321" x2="565.005" y2="712.215"/>
    <polygon style="fill: #000000" points="747.114,743.271 763.66,740.583 748.528,733.372 "/>
    <polygon style="fill: none; fill-opacity:0; stroke-width: 2; stroke: #000000" points="747.114,743.271 763.66,740.583 748.528,733.372 "/>
  </g>
  <g>
    <polyline style="fill: none; fill-opacity:0; stroke-width: 2; stroke: #000000" points="78.1825,177.733 282.648,-188.514 787.291,-188.542 "/>
    <polygon style="fill: #000000" points="787.291,-183.542 803.291,-188.543 787.29,-193.542 "/>
    <polygon style="fill: none; fill-opacity:0; stroke-width: 2; stroke: #000000" points="787.291,-183.542 803.291,-188.543 787.29,-193.542 "/>
  </g>
  <g>
    <line style="fill: none; fill-opacity:0; stroke-width: 2; stroke: #000000" x1="711.325" y1="-257.904" x2="902.902" y2="-257.418"/>
    <polygon style="fill: #000000" points="711.338,-262.904 695.325,-257.944 711.312,-252.904 "/>
    <polygon style="fill: none; fill-opacity:0; stroke-width: 2; stroke: #000000" points="711.338,-262.904 695.325,-257.944 711.312,-252.904 "/>
  </g>
  <g>
    <ellipse style="fill: #ffffff" cx="748.548" cy="-118.956" rx="34.45" ry="20"/>
    <ellipse style="fill: none; fill-opacity:0; stroke-width: 2; stroke: #000000" cx="748.548" cy="-118.956" rx="34.45" ry="20"/>
    <text style="fill: #000000;text-anchor:middle;font-size:12.8;font-family:sanserif;font-style:normal;font-weight:normal" x="748.548" y="-115.056">
      <tspan x="748.548" y="-115.056">Login</tspan>
    </text>
  </g>
  <g>
    <line style="fill: none; fill-opacity:0; stroke-width: 2; stroke: #000000" x1="1239.5" y1="230.698" x2="778.046" y2="-97.9476"/>
    <polygon style="fill: #000000" points="1236.6,234.771 1252.53,239.98 1242.4,226.625 "/>
    <polygon style="fill: none; fill-opacity:0; stroke-width: 2; stroke: #000000" points="1236.6,234.771 1252.53,239.98 1242.4,226.625 "/>
  </g>
  <g>
    <polyline style="fill: none; fill-opacity:0; stroke-width: 2; stroke: #000000" points="87.5867,177.7 303.422,-118.403 696.107,-118.891 "/>
    <polygon style="fill: #000000" points="696.113,-113.891 712.107,-118.911 696.101,-123.891 "/>
    <polygon style="fill: none; fill-opacity:0; stroke-width: 2; stroke: #000000" points="696.113,-113.891 712.107,-118.911 696.101,-123.891 "/>
  </g>
  <g>
    <ellipse style="fill: #ffffff" cx="744.862" cy="578.578" rx="92.45" ry="32"/>
    <ellipse style="fill: none; fill-opacity:0; stroke-width: 2; stroke: #000000" cx="744.862" cy="578.578" rx="92.45" ry="32"/>
    <text style="fill: #000000;text-anchor:middle;font-size:12.8;font-family:sanserif;font-style:normal;font-weight:normal" x="744.862" y="574.478">
      <tspan x="744.862" y="574.478">Save payment</tspan>
      <tspan x="744.862" y="590.478">details</tspan>
    </text>
  </g>
  <g>
    <line style="fill: none; fill-opacity:0; stroke-width: 2; stroke-dasharray: 6; stroke: #000000" x1="547.003" y1="672.619" x2="656.467" y2="620.591"/>
    <polygon style="fill: #000000" points="658.614,625.107 670.918,613.723 654.321,616.075 "/>
    <polygon style="fill: none; fill-opacity:0; stroke-width: 2; stroke: #000000" points="658.614,625.107 670.918,613.723 654.321,616.075 "/>
  </g>
  <g>
    <rect style="fill: #8dc2bc" x="622.848" y="734.772" width="77" height="14.95"/>
    <text style="fill: #000000;text-anchor:start;font-size:12.8;font-family:monospace;font-style:normal;font-weight:normal" x="622.848" y="746.672">
      <tspan x="622.848" y="746.672">«includes»</tspan>
    </text>
  </g>
  <g>
    <ellipse style="fill: #ffffff" cx="526.968" cy="813.533" rx="79.75" ry="26.5833"/>
    <ellipse style="fill: none; fill-opacity:0; stroke-width: 2; stroke: #000000" cx="526.968" cy="813.533" rx="79.75" ry="26.5833"/>
    <text style="fill: #000000;text-anchor:middle;font-size:12.8;font-family:sanserif;font-style:normal;font-weight:normal" x="526.968" y="817.433">
      <tspan x="526.968" y="817.433">Confirm payment</tspan>
    </text>
  </g>
  <g>
    <polyline style="fill: none; fill-opacity:0; stroke-width: 2; stroke: #000000" points="446.223,813.13 326.792,812.522 81.3694,303.019 "/>
    <polygon style="fill: #000000" points="85.874,300.849 74.4259,288.604 76.8647,305.189 "/>
    <polygon style="fill: none; fill-opacity:0; stroke-width: 2; stroke: #000000" points="85.874,300.849 74.4259,288.604 76.8647,305.189 "/>
  </g>
  <g>
    <polyline style="fill: none; fill-opacity:0; stroke-width: 2; stroke: #000000" points="1243.68,646.13 996.746,813.82 621.061,813.598 "/>
    <polygon style="fill: #000000" points="621.064,808.598 605.061,813.588 621.058,818.598 "/>
    <polygon style="fill: none; fill-opacity:0; stroke-width: 2; stroke: #000000" points="621.064,808.598 605.061,813.588 621.058,818.598 "/>
  </g>
  <g>
    <polyline style="fill: none; fill-opacity:0; stroke-width: 2; stroke: #000000" points="516.052,-257.969 234.608,-257.328 74.5574,161.83 "/>
    <polygon style="fill: #000000" points="69.8864,160.046 68.8499,176.777 79.2285,163.613 "/>
    <polygon style="fill: none; fill-opacity:0; stroke-width: 2; stroke: #000000" points="69.8864,160.046 68.8499,176.777 79.2285,163.613 "/>
  </g>
  <g>
    <line style="fill: none; fill-opacity:0; stroke-width: 2; stroke: #000000" x1="615.216" y1="456.804" x2="88.3113" y2="248.81"/>
    <polygon style="fill: #000000" points="613.38,461.454 630.099,462.678 617.052,452.153 "/>
    <polygon style="fill: none; fill-opacity:0; stroke-width: 2; stroke: #000000" points="613.38,461.454 630.099,462.678 617.052,452.153 "/>
  </g>
  <g>
    <line style="fill: none; fill-opacity:0; stroke-width: 2; stroke: #000000" x1="1238.77" y1="283.331" x2="800.075" y2="545.573"/>
    <polygon style="fill: #000000" points="1241.34,287.623 1252.51,275.122 1236.21,279.039 "/>
    <polygon style="fill: none; fill-opacity:0; stroke-width: 2; stroke: #000000" points="1241.34,287.623 1252.51,275.122 1236.21,279.039 "/>
  </g>
  <g>
    <line style="fill: none; fill-opacity:0; stroke-width: 2; stroke-dasharray: 6; stroke: #000000" x1="797.633" y1="678.038" x2="822.5" y2="705.138"/>
    <polygon style="fill: #000000" points="818.816,708.518 833.317,716.927 826.184,701.757 "/>
    <polygon style="fill: none; fill-opacity:0; stroke-width: 2; stroke: #000000" points="818.816,708.518 833.317,716.927 826.184,701.757 "/>
  </g>
  <g>
    <rect style="fill: #8dc2bc" x="810.56" y="672.818" width="77" height="14.95"/>
    <text style="fill: #000000;text-anchor:start;font-size:12.8;font-family:monospace;font-style:normal;font-weight:normal" x="810.56" y="684.718">
      <tspan x="810.56" y="684.718">«includes»</tspan>
    </text>
  </g>
  <g>
    <line style="fill: none; fill-opacity:0; stroke-width: 2; stroke: #000000" x1="1240" y1="289.416" x2="804.343" y2="625.374"/>
    <polygon style="fill: #000000" points="1243.06,293.375 1252.67,279.645 1236.95,285.457 "/>
    <polygon style="fill: none; fill-opacity:0; stroke-width: 2; stroke: #000000" points="1243.06,293.375 1252.67,279.645 1236.95,285.457 "/>
  </g>
  <g>
    <line style="fill: none; fill-opacity:0; stroke-width: 2; stroke-dasharray: 6; stroke: #000000" x1="784.24" y1="-142.143" x2="805.72" y2="-156.098"/>
    <polygon style="fill: #000000" points="808.444,-151.905 819.138,-164.814 802.997,-160.291 "/>
    <polygon style="fill: none; fill-opacity:0; stroke-width: 2; stroke: #000000" points="808.444,-151.905 819.138,-164.814 802.997,-160.291 "/>
  </g>
  <text style="fill: #000000;text-anchor:start;font-size:12.8;font-family:monospace;font-style:normal;font-weight:normal" x="711.886" y="-147.531">
    <tspan x="711.886" y="-147.531">«includes»</tspan>
  </text>
  <g>
    <rect style="fill: #edd6b4" x="616.381" y="22.5533" width="77" height="14.95"/>
    <text style="fill: #000000;text-anchor:start;font-size:12.8;font-family:monospace;font-style:normal;font-weight:normal" x="616.381" y="34.4533">
      <tspan x="616.381" y="34.4533">«includes»</tspan>
    </text>
  </g>
  <g>
    <ellipse style="fill: #ffffff" cx="1279.07" cy="36.2944" rx="6" ry="6"/>
    <ellipse style="fill: none; fill-opacity:0; stroke-width: 2; stroke: #000000" cx="1279.07" cy="36.2944" rx="6" ry="6"/>
    <line style="fill: none; fill-opacity:0; stroke-width: 2; stroke: #000000" x1="1255.07" y1="48.2944" x2="1303.07" y2="48.2944"/>
    <line style="fill: none; fill-opacity:0; stroke-width: 2; stroke: #000000" x1="1279.07" y1="42.2944" x2="1279.07" y2="72.2944"/>
    <line style="fill: none; fill-opacity:0; stroke-width: 2; stroke: #000000" x1="1279.07" y1="72.2944" x2="1255.07" y2="98.2944"/>
    <line style="fill: none; fill-opacity:0; stroke-width: 2; stroke: #000000" x1="1279.07" y1="72.2944" x2="1303.07" y2="98.2944"/>
    <text style="fill: #000000;text-anchor:middle;font-size:12.8;font-family:sanserif;font-style:normal;font-weight:normal" x="1279.07" y="122.194">
      <tspan x="1279.07" y="122.194">GDS</tspan>
    </text>
  </g>
  <g>
    <line style="fill: none; fill-opacity:0; stroke-width: 2; stroke: #000000" x1="912.814" y1="115.883" x2="1253.07" y2="75.3876"/>
    <polygon style="fill: #000000" points="912.223,110.918 896.926,117.774 913.404,120.848 "/>
    <polygon style="fill: none; fill-opacity:0; stroke-width: 2; stroke: #000000" points="912.223,110.918 896.926,117.774 913.404,120.848 "/>
  </g>
  <g>
    <line style="fill: none; fill-opacity:0; stroke-width: 2; stroke: #000000" x1="1279.17" y1="144.301" x2="1279.26" y2="204.07"/>
    <polygon style="fill: #000000" points="1284.17,144.293 1279.15,128.301 1274.17,144.308 "/>
    <polygon style="fill: none; fill-opacity:0; stroke-width: 2; stroke: #000000" points="1284.17,144.293 1279.15,128.301 1274.17,144.308 "/>
  </g>
  <g>
    <line style="fill: none; fill-opacity:0; stroke-width: 2; stroke: #000000" x1="729.732" y1="-1.83211" x2="1253.07" y2="68.7862"/>
    <polygon style="fill: #000000" points="730.4,-6.7872 713.875,-3.97174 729.063,3.12298 "/>
    <polygon style="fill: none; fill-opacity:0; stroke-width: 2; stroke: #000000" points="730.4,-6.7872 713.875,-3.97174 729.063,3.12298 "/>
  </g>
  <g>
    <line style="fill: none; fill-opacity:0; stroke-width: 2; stroke-dasharray: 6; stroke: #000000" x1="543.04" y1="191.914" x2="673.076" y2="444.3"/>
    <polygon style="fill: #000000" points="668.632,446.59 680.405,458.523 677.521,442.009 "/>
    <polygon style="fill: none; fill-opacity:0; stroke-width: 2; stroke: #000000" points="668.632,446.59 680.405,458.523 677.521,442.009 "/>
  </g>
  <g>
    <rect style="fill: #edd6b4" x="578.682" y="306.703" width="77" height="14.95"/>
    <text style="fill: #000000;text-anchor:start;font-size:12.8;font-family:monospace;font-style:normal;font-weight:normal" x="578.682" y="318.603">
      <tspan x="578.682" y="318.603">«includes»</tspan>
    </text>
  </g>
  <g>
    <ellipse style="fill: #ffffff" cx="1163.01" cy="-137.249" rx="6" ry="6"/>
    <ellipse style="fill: none; fill-opacity:0; stroke-width: 2; stroke: #000000" cx="1163.01" cy="-137.249" rx="6" ry="6"/>
    <line style="fill: none; fill-opacity:0; stroke-width: 2; stroke: #000000" x1="1139.01" y1="-125.249" x2="1187.01" y2="-125.249"/>
    <line style="fill: none; fill-opacity:0; stroke-width: 2; stroke: #000000" x1="1163.01" y1="-131.249" x2="1163.01" y2="-101.249"/>
    <line style="fill: none; fill-opacity:0; stroke-width: 2; stroke: #000000" x1="1163.01" y1="-101.249" x2="1139.01" y2="-75.2494"/>
    <line style="fill: none; fill-opacity:0; stroke-width: 2; stroke: #000000" x1="1163.01" y1="-101.249" x2="1187.01" y2="-75.2494"/>
    <text style="fill: #000000;text-anchor:middle;font-size:12.8;font-family:sanserif;font-style:normal;font-weight:normal" x="1163.01" y="-51.3494">
      <tspan x="1163.01" y="-51.3494">User</tspan>
      <tspan x="1163.01" y="-35.3494">Database</tspan>
    </text>
  </g>
  <g>
    <line style="fill: none; fill-opacity:0; stroke-width: 2; stroke: #000000" x1="1028.2" y1="-218.328" x2="1132.53" y2="-127.723"/>
    <polygon style="fill: #000000" points="1031.48,-222.103 1016.12,-228.819 1024.92,-214.553 "/>
    <polygon style="fill: none; fill-opacity:0; stroke-width: 2; stroke: #000000" points="1031.48,-222.103 1016.12,-228.819 1024.92,-214.553 "/>
  </g>
  <g>
    <polygon style="fill: #ffffff" points="1219.58,-215.675 1510.48,-215.675 1522.48,-203.675 1522.48,-149.675 1219.58,-149.675 "/>
    <polygon style="fill: none; fill-opacity:0; stroke-width: 2; stroke: #000000" points="1219.58,-215.675 1510.48,-215.675 1522.48,-203.675 1522.48,-149.675 1219.58,-149.675 "/>
    <polyline style="fill: none; fill-opacity:0; stroke-width: 1; stroke: #000000" points="1510.48,-215.675 1510.48,-203.675 1522.48,-203.675 "/>
    <text style="fill: #000000;text-anchor:start;font-size:12.7998;font-family:monospace;font-style:normal;font-weight:normal" x="1226.58" y="-190.775">
      <tspan x="1226.58" y="-190.775">Should the databse be an </tspan>
      <tspan x="1226.58" y="-174.775">actor/ secondary actor/subsystem etc.</tspan>
      <tspan x="1226.58" y="-158.775">Product database - check notes</tspan>
    </text>
  </g>
  <g>
    <ellipse style="fill: #ffffff" cx="1385.73" cy="-130.676" rx="6" ry="6"/>
    <ellipse style="fill: none; fill-opacity:0; stroke-width: 2; stroke: #000000" cx="1385.73" cy="-130.676" rx="6" ry="6"/>
    <line style="fill: none; fill-opacity:0; stroke-width: 2; stroke: #000000" x1="1361.73" y1="-118.676" x2="1409.73" y2="-118.676"/>
    <line style="fill: none; fill-opacity:0; stroke-width: 2; stroke: #000000" x1="1385.73" y1="-124.676" x2="1385.73" y2="-94.6757"/>
    <line style="fill: none; fill-opacity:0; stroke-width: 2; stroke: #000000" x1="1385.73" y1="-94.6757" x2="1361.73" y2="-68.6757"/>
    <line style="fill: none; fill-opacity:0; stroke-width: 2; stroke: #000000" x1="1385.73" y1="-94.6757" x2="1409.73" y2="-68.6757"/>
    <text style="fill: #000000;text-anchor:middle;font-size:12.8;font-family:sanserif;font-style:normal;font-weight:normal" x="1385.73" y="-44.7757">
      <tspan x="1385.73" y="-44.7757">Product</tspan>
      <tspan x="1385.73" y="-28.7757">Database</tspan>
    </text>
  </g>
  <g>
    <ellipse style="fill: #ffffff" cx="448.577" cy="965.601" rx="77.05" ry="25.6833"/>
    <ellipse style="fill: none; fill-opacity:0; stroke-width: 2; stroke: #000000" cx="448.577" cy="965.601" rx="77.05" ry="25.6833"/>
    <text style="fill: #000000;text-anchor:middle;font-size:12.8;font-family:sanserif;font-style:normal;font-weight:normal" x="448.577" y="969.501">
      <tspan x="448.577" y="969.501">Refund payment</tspan>
    </text>
  </g>
</svg>
