<?xml version="1.0" encoding="UTF-8" standalone="no"?>
<!DOCTYPE svg PUBLIC "-//W3C//DTD SVG 1.0//EN" "http://www.w3.org/TR/2001/PR-SVG-20010719/DTD/svg10.dtd">
<svg width="60cm" height="48cm" viewBox="53 -179 1200 947" xmlns="http://www.w3.org/2000/svg" xmlns:xlink="http://www.w3.org/1999/xlink">
  <text font-size="12.8" style="fill: #000000;text-anchor:start;font-family:sans-serif;font-style:normal;font-weight:normal" x="1130.54" y="250.427">
    <tspan x="1130.54" y="250.427">Integrates with</tspan>
    <tspan x="1130.54" y="266.427">GDS to provide </tspan>
    <tspan x="1130.54" y="282.427">product info and</tspan>
    <tspan x="1130.54" y="298.427">statuses.</tspan>
  </text>
  <rect style="fill: none; fill-opacity:0; stroke-width: 4; stroke: #000000" x="189.202" y="-176.457" width="896.01" height="942.456"/>
  <g>
    <path style="fill: #be7467" d="M 241.576 -121.186 C 146.918,-79.0828 294.416,122.918 392.714,105.52 C 491.012,88.1224 802.438,-97.5706 651.3,-138.897 C 500.164,-180.224 336.236,-163.289 241.576,-121.186z"/>
    <path style="fill: none; fill-opacity:0; stroke-width: 2; stroke: #000000" d="M 241.576 -121.186 C 146.918,-79.0828 294.416,122.918 392.714,105.52 C 491.012,88.1224 802.438,-97.5706 651.3,-138.897 C 500.164,-180.224 336.236,-163.289 241.576,-121.186"/>
  </g>
  <g>
    <path style="fill: #8dc2bc" d="M 239.946 318.638 C 248.858,163.777 788.7,283.888 892.57,369.58 C 996.438,455.272 988.924,553.286 928.078,604.276 C 794.744,716.012 657.534,770.794 488.264,749.99 C 318.994,729.186 227.128,541.376 239.946,318.638z"/>
    <path style="fill: none; fill-opacity:0; stroke-width: 2; stroke: #000000" d="M 239.946 318.638 C 248.858,163.777 788.7,283.888 892.57,369.58 C 996.438,455.272 988.924,553.286 928.078,604.276 C 794.744,716.012 657.534,770.794 488.264,749.99 C 318.994,729.186 227.128,541.376 239.946,318.638"/>
  </g>
  <g>
    <path style="fill: #edd6b4" d="M 584.31 46.9308 C 642.892,-15.9538 741.148,-45.528 832.034,-15.6657 C 922.918,14.1967 1116.22,147.962 1010.48,191.081 C 826.168,266.236 661.422,259.864 562.698,237.43 C 463.974,214.996 496.598,141.088 584.31,46.9308z"/>
    <path style="fill: none; fill-opacity:0; stroke-width: 2; stroke: #000000" d="M 584.31 46.9308 C 642.892,-15.9538 741.148,-45.528 832.034,-15.6657 C 922.918,14.1967 1116.22,147.962 1010.48,191.081 C 826.168,266.236 661.422,259.864 562.698,237.43 C 463.974,214.996 496.598,141.088 584.31,46.9308"/>
  </g>
  <text font-size="12.8" style="fill: #000000;text-anchor:start;font-family:sans-serif;font-style:normal;font-weight:normal" x="156.871" y="299.034">
    <tspan x="156.871" y="299.034"></tspan>
  </text>
  <g>
    <ellipse style="fill: #ffffff" cx="114.442" cy="165.059" rx="6" ry="6"/>
    <ellipse style="fill: none; fill-opacity:0; stroke-width: 2; stroke: #000000" cx="114.442" cy="165.059" rx="6" ry="6"/>
    <line style="fill: none; fill-opacity:0; stroke-width: 2; stroke: #000000" x1="90.4418" y1="177.059" x2="138.442" y2="177.059"/>
    <line style="fill: none; fill-opacity:0; stroke-width: 2; stroke: #000000" x1="114.442" y1="171.059" x2="114.442" y2="201.059"/>
    <line style="fill: none; fill-opacity:0; stroke-width: 2; stroke: #000000" x1="114.442" y1="201.059" x2="90.4418" y2="227.059"/>
    <line style="fill: none; fill-opacity:0; stroke-width: 2; stroke: #000000" x1="114.442" y1="201.059" x2="138.442" y2="227.059"/>
    <text font-size="12.8" style="fill: #000000;text-anchor:middle;font-family:sans-serif;font-style:normal;font-weight:700" x="114.442" y="250.959">
      <tspan x="114.442" y="250.959">User</tspan>
    </text>
  </g>
  <g>
    <ellipse style="fill: #ffffff" cx="1183.26" cy="575.456" rx="6" ry="6"/>
    <ellipse style="fill: none; fill-opacity:0; stroke-width: 2; stroke: #000000" cx="1183.26" cy="575.456" rx="6" ry="6"/>
    <line style="fill: none; fill-opacity:0; stroke-width: 2; stroke: #000000" x1="1159.26" y1="587.456" x2="1207.26" y2="587.456"/>
    <line style="fill: none; fill-opacity:0; stroke-width: 2; stroke: #000000" x1="1183.26" y1="581.456" x2="1183.26" y2="611.456"/>
    <line style="fill: none; fill-opacity:0; stroke-width: 2; stroke: #000000" x1="1183.26" y1="611.456" x2="1159.26" y2="637.456"/>
    <line style="fill: none; fill-opacity:0; stroke-width: 2; stroke: #000000" x1="1183.26" y1="611.456" x2="1207.26" y2="637.456"/>
    <text font-size="12.8" style="fill: #000000;text-anchor:middle;font-family:sans-serif;font-style:normal;font-weight:700" x="1183.26" y="661.356">
      <tspan x="1183.26" y="661.356">Third Party</tspan>
      <tspan x="1183.26" y="677.356">Consortium</tspan>
    </text>
  </g>
  <g>
    <ellipse style="fill: #ffffff" cx="638.573" cy="162.835" rx="100.475" ry="33.4917"/>
    <ellipse style="fill: none; fill-opacity:0; stroke-width: 2; stroke: #000000" cx="638.573" cy="162.835" rx="100.475" ry="33.4917"/>
    <text font-size="12.8" style="fill: #000000;text-anchor:middle;font-family:sans-serif;font-style:normal;font-weight:normal" x="638.573" y="166.735">
      <tspan x="638.573" y="166.735">        Make a search       </tspan>
    </text>
  </g>
  <g>
    <line style="fill: none; fill-opacity:0; stroke-width: 2; stroke: #000000" x1="520.136" y1="171.473" x2="140.434" y2="199.164"/>
    <polygon style="fill: #000000" points="520.5,176.459 536.094,170.309 519.773,166.486 "/>
    <polygon style="fill: none; fill-opacity:0; stroke-width: 2; stroke: #000000" points="520.5,176.459 536.094,170.309 519.773,166.486 "/>
  </g>
  <g>
    <ellipse style="fill: #ffffff" cx="541.585" cy="311.682" rx="74.375" ry="24.7917"/>
    <ellipse style="fill: none; fill-opacity:0; stroke-width: 2; stroke: #000000" cx="541.585" cy="311.682" rx="74.375" ry="24.7917"/>
    <text font-size="12.8" style="fill: #000000;text-anchor:middle;font-family:sans-serif;font-style:normal;font-weight:normal" x="541.585" y="315.582">
      <tspan x="541.585" y="315.582">Make a booking</tspan>
    </text>
  </g>
  <g>
    <ellipse style="fill: #ffffff" cx="386.567" cy="-35.496" rx="50.375" ry="20"/>
    <ellipse style="fill: none; fill-opacity:0; stroke-width: 2; stroke: #000000" cx="386.567" cy="-35.496" rx="50.375" ry="20"/>
    <text font-size="12.8" style="fill: #000000;text-anchor:middle;font-family:sans-serif;font-style:normal;font-weight:normal" x="386.567" y="-31.596">
      <tspan x="386.567" y="-31.596">Register</tspan>
    </text>
  </g>
  <g>
    <ellipse style="fill: #ffffff" cx="903.893" cy="139.998" rx="86.525" ry="28.8417"/>
    <ellipse style="fill: none; fill-opacity:0; stroke-width: 2; stroke: #000000" cx="903.893" cy="139.998" rx="86.525" ry="28.8417"/>
    <text font-size="12.8" style="fill: #000000;text-anchor:middle;font-family:sans-serif;font-style:normal;font-weight:normal" x="903.893" y="143.898">
      <tspan x="903.893" y="143.898">Filter search results</tspan>
    </text>
  </g>
  <g>
    <line style="fill: none; fill-opacity:0; stroke-width: 2; stroke-dasharray: 6; stroke: #000000" x1="812.38" y1="147.875" x2="760.974" y2="152.299"/>
    <polygon style="fill: #000000" points="760.546,147.318 745.033,153.672 761.403,157.281 "/>
    <polygon style="fill: none; fill-opacity:0; stroke-width: 2; stroke: #000000" points="760.546,147.318 745.033,153.672 761.403,157.281 "/>
  </g>
  <g>
    <ellipse style="fill: #ffffff" cx="741.271" cy="19.1265" rx="83.825" ry="27.9417"/>
    <ellipse style="fill: none; fill-opacity:0; stroke-width: 2; stroke: #000000" cx="741.271" cy="19.1265" rx="83.825" ry="27.9417"/>
    <text font-size="12.8" style="fill: #000000;text-anchor:middle;font-family:sans-serif;font-style:normal;font-weight:normal" x="741.271" y="23.0265">
      <tspan x="741.271" y="23.0265">Sort search results</tspan>
    </text>
  </g>
  <g>
    <line style="fill: none; fill-opacity:0; stroke-width: 2; stroke-dasharray: 6; stroke: #000000" x1="718.273" y1="51.3086" x2="675.436" y2="111.252"/>
    <polygon style="fill: #000000" points="671.368,108.345 666.133,124.27 679.504,114.159 "/>
    <polygon style="fill: none; fill-opacity:0; stroke-width: 2; stroke: #000000" points="671.368,108.345 666.133,124.27 679.504,114.159 "/>
  </g>
  <g>
    <rect style="fill: #edd6b4" x="727.144" y="125.601" width="77" height="14.9"/>
    <text font-size="12.8" style="fill: #000000;text-anchor:start;font-family:monospace;font-style:normal;font-weight:normal" x="727.144" y="137.501">
      <tspan x="727.144" y="137.501">«includes»</tspan>
    </text>
  </g>
  <g>
    <ellipse style="fill: #ffffff" cx="355.789" cy="483.204" rx="77.375" ry="25.7917"/>
    <ellipse style="fill: none; fill-opacity:0; stroke-width: 2; stroke: #000000" cx="355.789" cy="483.204" rx="77.375" ry="25.7917"/>
    <text font-size="12.8" style="fill: #000000;text-anchor:middle;font-family:sans-serif;font-style:normal;font-weight:normal" x="355.789" y="487.104">
      <tspan x="355.789" y="487.104">Make a payment</tspan>
    </text>
  </g>
  <g>
    <polyline style="fill: none; fill-opacity:0; stroke-width: 2; stroke: #000000" points="140.442,231.454 321.848,443.523 "/>
    <polygon style="fill: #000000" points="318.048,446.773 332.248,455.681 325.647,440.273 "/>
    <polygon style="fill: none; fill-opacity:0; stroke-width: 2; stroke: #000000" points="318.048,446.773 332.248,455.681 325.647,440.273 "/>
  </g>
  <g>
    <ellipse style="fill: #ffffff" cx="330.395" cy="323.638" rx="66.725" ry="22.2417"/>
    <ellipse style="fill: none; fill-opacity:0; stroke-width: 2; stroke: #000000" cx="330.395" cy="323.638" rx="66.725" ry="22.2417"/>
    <text font-size="12.8" style="fill: #000000;text-anchor:middle;font-family:sans-serif;font-style:normal;font-weight:normal" x="330.395" y="327.538">
      <tspan x="330.395" y="327.538">View booking</tspan>
    </text>
  </g>
  <g>
    <ellipse style="fill: #ffffff" cx="811.792" cy="382.195" rx="73.25" ry="24.4167"/>
    <ellipse style="fill: none; fill-opacity:0; stroke-width: 2; stroke: #000000" cx="811.792" cy="382.195" rx="73.25" ry="24.4167"/>
    <text font-size="12.8" style="fill: #000000;text-anchor:middle;font-family:sans-serif;font-style:normal;font-weight:normal" x="811.792" y="386.095">
      <tspan x="811.792" y="386.095">Cancel booking</tspan>
    </text>
  </g>
  <g>
    <line style="fill: none; fill-opacity:0; stroke-width: 2; stroke-dasharray: 6; stroke: #000000" x1="384.856" y1="456.37" x2="498.394" y2="351.554"/>
    <polygon style="fill: #000000" points="501.786,355.228 510.151,340.701 495.003,347.88 "/>
    <polygon style="fill: none; fill-opacity:0; stroke-width: 2; stroke: #000000" points="501.786,355.228 510.151,340.701 495.003,347.88 "/>
  </g>
  <g>
    <rect style="fill: #8dc2bc" x="347.772" y="399.702" width="77" height="14.9"/>
    <text font-size="12.8" style="fill: #000000;text-anchor:start;font-family:monospace;font-style:normal;font-weight:normal" x="347.772" y="411.602">
      <tspan x="347.772" y="411.602">«includes»</tspan>
    </text>
  </g>
  <g>
    <line style="fill: none; fill-opacity:0; stroke-width: 2; stroke: #000000" x1="274.671" y1="292.008" x2="140.447" y2="215.821"/>
    <polygon style="fill: #000000" points="272.203,296.356 288.586,299.906 277.139,287.66 "/>
    <polygon style="fill: none; fill-opacity:0; stroke-width: 2; stroke: #000000" points="272.203,296.356 288.586,299.906 277.139,287.66 "/>
  </g>
  <g>
    <ellipse style="fill: #ffffff" cx="594.64" cy="-104.164" rx="80.25" ry="26.75"/>
    <ellipse style="fill: none; fill-opacity:0; stroke-width: 2; stroke: #000000" cx="594.64" cy="-104.164" rx="80.25" ry="26.75"/>
    <text font-size="12.8" style="fill: #000000;text-anchor:middle;font-family:sans-serif;font-style:normal;font-weight:normal" x="594.64" y="-100.264">
      <tspan x="594.64" y="-100.264">Store user details</tspan>
    </text>
  </g>
  <g>
    <line style="fill: none; fill-opacity:0; stroke-width: 2; stroke-dasharray: 6; stroke: #000000" x1="509.601" y1="-76.0996" x2="457.88" y2="-59.0305"/>
    <polygon style="fill: #000000" points="456.313,-63.7786 442.686,-54.0162 459.447,-54.2824 "/>
    <polygon style="fill: none; fill-opacity:0; stroke-width: 2; stroke: #000000" points="456.313,-63.7786 442.686,-54.0162 459.447,-54.2824 "/>
  </g>
  <text font-size="12.8" style="fill: #000000;text-anchor:start;font-family:monospace;font-style:normal;font-weight:normal" x="483.888" y="-57.2768">
    <tspan x="483.888" y="-57.2768">«includes»</tspan>
  </text>
  <g>
    <ellipse style="fill: #ffffff" cx="340.388" cy="-103.942" rx="88.15" ry="29.3833"/>
    <ellipse style="fill: none; fill-opacity:0; stroke-width: 2; stroke: #000000" cx="340.388" cy="-103.942" rx="88.15" ry="29.3833"/>
    <text font-size="12.8" style="fill: #000000;text-anchor:middle;font-family:sans-serif;font-style:normal;font-weight:normal" x="340.388" y="-100.042">
      <tspan x="340.388" y="-100.042">Confirm registration</tspan>
    </text>
  </g>
  <g>
    <ellipse style="fill: #ffffff" cx="548.018" cy="592.889" rx="71.65" ry="23.8833"/>
    <ellipse style="fill: none; fill-opacity:0; stroke-width: 2; stroke: #000000" cx="548.018" cy="592.889" rx="71.65" ry="23.8833"/>
    <text font-size="12.8" style="fill: #000000;text-anchor:middle;font-family:sans-serif;font-style:normal;font-weight:normal" x="548.018" y="596.789">
      <tspan x="548.018" y="596.789">Check voucher</tspan>
    </text>
  </g>
  <g>
    <line style="fill: none; fill-opacity:0; stroke-width: 2; stroke-dasharray: 6; stroke: #000000" x1="406.218" y1="511.978" x2="486.168" y2="557.598"/>
    <polygon style="fill: #000000" points="483.69,561.94 500.065,565.527 488.646,553.255 "/>
    <polygon style="fill: none; fill-opacity:0; stroke-width: 2; stroke: #000000" points="483.69,561.94 500.065,565.527 488.646,553.255 "/>
  </g>
  <g>
    <ellipse style="fill: #ffffff" cx="829.173" cy="552.978" rx="103.175" ry="34.3917"/>
    <ellipse style="fill: none; fill-opacity:0; stroke-width: 2; stroke: #000000" cx="829.173" cy="552.978" rx="103.175" ry="34.3917"/>
    <text font-size="12.8" style="fill: #000000;text-anchor:middle;font-family:sans-serif;font-style:normal;font-weight:normal" x="829.173" y="548.878">
      <tspan x="829.173" y="548.878">Encrypt payment</tspan>
      <tspan x="829.173" y="564.878">information</tspan>
    </text>
  </g>
  <g>
    <polyline style="fill: none; fill-opacity:0; stroke-width: 2; stroke: #000000" points="140.428,155.231 248.748,-35.8048 318.205,-35.6492 "/>
    <polygon style="fill: #000000" points="318.194,-30.6492 334.205,-35.6133 318.216,-40.6492 "/>
    <polygon style="fill: none; fill-opacity:0; stroke-width: 2; stroke: #000000" points="318.194,-30.6492 334.205,-35.6133 318.216,-40.6492 "/>
  </g>
  <g>
    <line style="fill: none; fill-opacity:0; stroke-width: 2; stroke: #000000" x1="446.541" y1="-104.035" x2="513.417" y2="-104.093"/>
    <polygon style="fill: #000000" points="446.536,-109.035 430.541,-104.021 446.545,-99.0346 "/>
    <polygon style="fill: none; fill-opacity:0; stroke-width: 2; stroke: #000000" points="446.536,-109.035 430.541,-104.021 446.545,-99.0346 "/>
  </g>
  <g>
    <ellipse style="fill: #ffffff" cx="376.444" cy="50.6248" rx="34.6" ry="20"/>
    <ellipse style="fill: none; fill-opacity:0; stroke-width: 2; stroke: #000000" cx="376.444" cy="50.6248" rx="34.6" ry="20"/>
    <text font-size="12.8" style="fill: #000000;text-anchor:middle;font-family:sans-serif;font-style:normal;font-weight:normal" x="376.444" y="54.5248">
      <tspan x="376.444" y="54.5248">Login</tspan>
    </text>
  </g>
  <g>
    <ellipse style="fill: #ffffff" cx="594.068" cy="418.612" rx="92.6" ry="32"/>
    <ellipse style="fill: none; fill-opacity:0; stroke-width: 2; stroke: #000000" cx="594.068" cy="418.612" rx="92.6" ry="32"/>
    <text font-size="12.8" style="fill: #000000;text-anchor:middle;font-family:sans-serif;font-style:normal;font-weight:normal" x="594.068" y="414.512">
      <tspan x="594.068" y="414.512">Save payment</tspan>
      <tspan x="594.068" y="430.512">details</tspan>
    </text>
  </g>
  <g>
    <line style="fill: none; fill-opacity:0; stroke-width: 2; stroke-dasharray: 6; stroke: #000000" x1="438.024" y1="460.912" x2="480.227" y2="449.471"/>
    <polygon style="fill: #000000" points="481.535,454.297 495.67,445.285 478.919,444.646 "/>
    <polygon style="fill: none; fill-opacity:0; stroke-width: 2; stroke: #000000" points="481.535,454.297 495.67,445.285 478.919,444.646 "/>
  </g>
  <g>
    <rect style="fill: #8dc2bc" x="436.002" y="515.896" width="77" height="14.9"/>
    <text font-size="12.8" style="fill: #000000;text-anchor:start;font-family:monospace;font-style:normal;font-weight:normal" x="436.002" y="527.796">
      <tspan x="436.002" y="527.796">«includes»</tspan>
    </text>
  </g>
  <g>
    <ellipse style="fill: #ffffff" cx="455.799" cy="651.058" rx="79.775" ry="26.5917"/>
    <ellipse style="fill: none; fill-opacity:0; stroke-width: 2; stroke: #000000" cx="455.799" cy="651.058" rx="79.775" ry="26.5917"/>
    <text font-size="12.8" style="fill: #000000;text-anchor:middle;font-family:sans-serif;font-style:normal;font-weight:normal" x="455.799" y="654.958">
      <tspan x="455.799" y="654.958">Confirm payment</tspan>
    </text>
  </g>
  <g>
    <line style="fill: none; fill-opacity:0; stroke-width: 2; stroke: #000000" x1="449.751" y1="287.898" x2="140.434" y2="207.791"/>
    <polygon style="fill: #000000" points="448.497,292.739 465.24,291.91 451.004,283.058 "/>
    <polygon style="fill: none; fill-opacity:0; stroke-width: 2; stroke: #000000" points="448.497,292.739 465.24,291.91 451.004,283.058 "/>
  </g>
  <g>
    <line style="fill: none; fill-opacity:0; stroke-width: 2; stroke-dasharray: 6; stroke: #000000" x1="624.618" y1="582.015" x2="704.21" y2="570.717"/>
    <polygon style="fill: #000000" points="704.912,575.667 720.051,568.468 703.507,565.767 "/>
    <polygon style="fill: none; fill-opacity:0; stroke-width: 2; stroke: #000000" points="704.912,575.667 720.051,568.468 703.507,565.767 "/>
  </g>
  <g>
    <rect style="fill: #8dc2bc" x="645.698" y="582.976" width="77" height="14.9"/>
    <text font-size="12.8" style="fill: #000000;text-anchor:start;font-family:monospace;font-style:normal;font-weight:normal" x="645.698" y="594.876">
      <tspan x="645.698" y="594.876">«includes»</tspan>
    </text>
  </g>
  <g>
    <rect style="fill: #edd6b4" x="620.62" y="65.5256" width="77" height="14.9"/>
    <text font-size="12.8" style="fill: #000000;text-anchor:start;font-family:monospace;font-style:normal;font-weight:normal" x="620.62" y="77.4256">
      <tspan x="620.62" y="77.4256">«includes»</tspan>
    </text>
  </g>
  <g>
    <ellipse style="fill: #ffffff" cx="1183.26" cy="327.943" rx="6" ry="6"/>
    <ellipse style="fill: none; fill-opacity:0; stroke-width: 2; stroke: #000000" cx="1183.26" cy="327.943" rx="6" ry="6"/>
    <line style="fill: none; fill-opacity:0; stroke-width: 2; stroke: #000000" x1="1159.26" y1="339.943" x2="1207.26" y2="339.943"/>
    <line style="fill: none; fill-opacity:0; stroke-width: 2; stroke: #000000" x1="1183.26" y1="333.943" x2="1183.26" y2="363.943"/>
    <line style="fill: none; fill-opacity:0; stroke-width: 2; stroke: #000000" x1="1183.26" y1="363.943" x2="1159.26" y2="389.943"/>
    <line style="fill: none; fill-opacity:0; stroke-width: 2; stroke: #000000" x1="1183.26" y1="363.943" x2="1207.26" y2="389.943"/>
    <text font-size="12.8" style="fill: #000000;text-anchor:middle;font-family:sans-serif;font-style:normal;font-weight:700" x="1183.26" y="413.843">
      <tspan x="1183.26" y="413.843">Global</tspan>
      <tspan x="1183.26" y="429.843">DStribution </tspan>
      <tspan x="1183.26" y="445.843">System</tspan>
    </text>
  </g>
  <g>
    <line style="fill: none; fill-opacity:0; stroke-width: 2; stroke: #000000" x1="1008.33" y1="150.741" x2="1149.19" y2="165.23"/>
    <polygon style="fill: #000000" points="1008.84,145.767 992.413,149.103 1007.82,155.714 "/>
    <polygon style="fill: none; fill-opacity:0; stroke-width: 2; stroke: #000000" points="1008.84,145.767 992.413,149.103 1007.82,155.714 "/>
  </g>
  <g>
    <line style="fill: none; fill-opacity:0; stroke-width: 2; stroke-dasharray: 6; stroke: #000000" x1="607.907" y1="209.898" x2="560.557" y2="282.566"/>
    <polygon style="fill: #000000" points="612.096,212.627 613.366,201.519 603.718,207.168 "/>
    <polygon style="fill: none; fill-opacity:0; stroke-width: 2; stroke: #000000" points="612.096,212.627 613.366,201.519 603.718,207.168 "/>
  </g>
  <g>
    <rect style="fill: #edd6b4" x="604.776" y="223.81" width="77" height="14.9"/>
    <text font-size="12.8" style="fill: #000000;text-anchor:start;font-family:monospace;font-style:normal;font-weight:normal" x="604.776" y="235.71">
      <tspan x="604.776" y="235.71">«includes»</tspan>
    </text>
  </g>
  <g>
    <ellipse style="fill: #ffffff" cx="1183.26" cy="-107.895" rx="6" ry="6"/>
    <ellipse style="fill: none; fill-opacity:0; stroke-width: 2; stroke: #000000" cx="1183.26" cy="-107.895" rx="6" ry="6"/>
    <line style="fill: none; fill-opacity:0; stroke-width: 2; stroke: #000000" x1="1159.26" y1="-95.8947" x2="1207.26" y2="-95.8947"/>
    <line style="fill: none; fill-opacity:0; stroke-width: 2; stroke: #000000" x1="1183.26" y1="-101.895" x2="1183.26" y2="-71.8947"/>
    <line style="fill: none; fill-opacity:0; stroke-width: 2; stroke: #000000" x1="1183.26" y1="-71.8947" x2="1159.26" y2="-45.8947"/>
    <line style="fill: none; fill-opacity:0; stroke-width: 2; stroke: #000000" x1="1183.26" y1="-71.8947" x2="1207.26" y2="-45.8947"/>
    <text font-size="12.8" style="fill: #000000;text-anchor:middle;font-family:sans-serif;font-style:normal;font-weight:700" x="1183.26" y="-21.9947">
      <tspan x="1183.26" y="-21.9947">User</tspan>
      <tspan x="1183.26" y="-5.99474">Database</tspan>
    </text>
  </g>
  <g>
    <ellipse style="fill: #ffffff" cx="1183.26" cy="132.735" rx="6" ry="6"/>
    <ellipse style="fill: none; fill-opacity:0; stroke-width: 2; stroke: #000000" cx="1183.26" cy="132.735" rx="6" ry="6"/>
    <line style="fill: none; fill-opacity:0; stroke-width: 2; stroke: #000000" x1="1159.26" y1="144.735" x2="1207.26" y2="144.735"/>
    <line style="fill: none; fill-opacity:0; stroke-width: 2; stroke: #000000" x1="1183.26" y1="138.735" x2="1183.26" y2="168.735"/>
    <line style="fill: none; fill-opacity:0; stroke-width: 2; stroke: #000000" x1="1183.26" y1="168.735" x2="1159.26" y2="194.735"/>
    <line style="fill: none; fill-opacity:0; stroke-width: 2; stroke: #000000" x1="1183.26" y1="168.735" x2="1207.26" y2="194.735"/>
    <text font-size="12.8" style="fill: #000000;text-anchor:middle;font-family:sans-serif;font-style:normal;font-weight:700" x="1183.26" y="218.635">
      <tspan x="1183.26" y="218.635">Product</tspan>
      <tspan x="1183.26" y="234.635">Database</tspan>
    </text>
  </g>
  <g>
    <ellipse style="fill: #ffffff" cx="558.43" cy="716.41" rx="77.1" ry="25.7"/>
    <ellipse style="fill: none; fill-opacity:0; stroke-width: 2; stroke: #000000" cx="558.43" cy="716.41" rx="77.1" ry="25.7"/>
    <text font-size="12.8" style="fill: #000000;text-anchor:middle;font-family:sans-serif;font-style:normal;font-weight:normal" x="558.43" y="720.31">
      <tspan x="558.43" y="720.31">Refund payment</tspan>
    </text>
  </g>
  <text font-size="12.8" style="fill: #000000;text-anchor:start;font-family:sans-serif;font-style:normal;font-weight:normal" x="890.202" y="-131.217">
    <tspan x="890.202" y="-131.217">Registration, searching and</tspan>
    <tspan x="890.202" y="-115.217">booking subsystems</tspan>
  </text>
  <g>
    <line style="fill: none; fill-opacity:0; stroke-width: 2; stroke-dasharray: 6; stroke: #000000" x1="373.78" y1="513.4" x2="428.612" y2="605.427"/>
    <polygon style="fill: #000000" points="424.316,607.987 436.801,619.173 432.907,602.868 "/>
    <polygon style="fill: none; fill-opacity:0; stroke-width: 2; stroke: #000000" points="424.316,607.987 436.801,619.173 432.907,602.868 "/>
  </g>
  <g>
    <rect style="fill: #8dc2bc" x="317.484" y="548.48" width="77" height="14.9"/>
    <text font-size="12.8" style="fill: #000000;text-anchor:start;font-family:monospace;font-style:normal;font-weight:normal" x="317.484" y="560.38">
      <tspan x="317.484" y="560.38">«includes»</tspan>
    </text>
  </g>
  <g>
    <line style="fill: none; fill-opacity:0; stroke-width: 2; stroke: #000000" x1="326.097" y1="79.5329" x2="140.428" y2="186.139"/>
    <polygon style="fill: #000000" points="328.586,83.869 339.972,71.566 323.607,75.1968 "/>
    <polygon style="fill: none; fill-opacity:0; stroke-width: 2; stroke: #000000" points="328.586,83.869 339.972,71.566 323.607,75.1968 "/>
  </g>
  <g>
    <polyline style="fill: none; fill-opacity:0; stroke-width: 2; stroke: #000000" points="1149.19,143.349 981.73,18.6067 843.072,18.9065 "/>
    <polygon style="fill: #000000" points="843.061,13.9065 827.072,18.9411 843.083,23.9065 "/>
    <polygon style="fill: none; fill-opacity:0; stroke-width: 2; stroke: #000000" points="843.061,13.9065 827.072,18.9411 843.083,23.9065 "/>
  </g>
  <g>
    <line style="fill: none; fill-opacity:0; stroke-width: 2; stroke: #000000" x1="614.247" y1="707.034" x2="1142.99" y2="618.221"/>
    <polygon style="fill: #000000" points="613.419,702.103 598.468,709.685 615.076,711.965 "/>
    <polygon style="fill: none; fill-opacity:0; stroke-width: 2; stroke: #000000" points="613.419,702.103 598.468,709.685 615.076,711.965 "/>
  </g>
  <g>
    <line style="fill: none; fill-opacity:0; stroke-width: 2; stroke: #000000" x1="553.55" y1="645.736" x2="1141.78" y2="613.714"/>
    <polygon style="fill: #000000" points="553.279,640.744 537.574,646.606 553.822,650.729 "/>
    <polygon style="fill: none; fill-opacity:0; stroke-width: 2; stroke: #000000" points="553.279,640.744 537.574,646.606 553.822,650.729 "/>
  </g>
  <text font-size="12.8" style="fill: #000000;text-anchor:start;font-family:sans-serif;font-style:italic;font-weight:700" x="1120.16" y="-151.496">
    <tspan x="1120.16" y="-151.496">Secondary Actors</tspan>
  </text>
  <text font-size="12.8" style="fill: #000000;text-anchor:start;font-family:sans-serif;font-style:italic;font-weight:700" x="64.1718" y="-151.496">
    <tspan x="64.1718" y="-151.496">Primary Actors</tspan>
  </text>
  <g>
    <line style="fill: none; fill-opacity:0; stroke-width: 2; stroke-dasharray: 6; stroke: #000000" x1="733.666" y1="361.807" x2="637.282" y2="336.655"/>
    <polygon style="fill: #000000" points="638.544,331.817 621.8,332.615 636.019,341.493 "/>
    <polygon style="fill: none; fill-opacity:0; stroke-width: 2; stroke: #000000" points="638.544,331.817 621.8,332.615 636.019,341.493 "/>
  </g>
  <g>
    <rect style="fill: #8dc2bc" x="670.248" y="322.324" width="69.3" height="14.9"/>
    <text font-size="12.8" style="fill: #000000;text-anchor:start;font-family:monospace;font-style:normal;font-weight:normal" x="670.248" y="334.224">
      <tspan x="670.248" y="334.224">«extends»</tspan>
    </text>
  </g>
  <g>
    <rect style="fill: #8dc2bc" x="443.876" y="460.114" width="77" height="14.9"/>
    <text font-size="12.8" style="fill: #000000;text-anchor:start;font-family:monospace;font-style:normal;font-weight:normal" x="443.876" y="472.014">
      <tspan x="443.876" y="472.014">«includes»</tspan>
    </text>
  </g>
  <g>
    <line style="fill: none; fill-opacity:0; stroke-width: 2; stroke-dasharray: 6; stroke: #000000" x1="776.838" y1="410.115" x2="595.466" y2="554.989"/>
    <polygon style="fill: #000000" points="592.345,551.083 582.964,564.975 598.586,558.896 "/>
    <polygon style="fill: none; fill-opacity:0; stroke-width: 2; stroke: #000000" points="592.345,551.083 582.964,564.975 598.586,558.896 "/>
  </g>
  <g>
    <rect style="fill: #8dc2bc" x="578.97" y="490.316" width="69.3" height="14.9"/>
    <text font-size="12.8" style="fill: #000000;text-anchor:start;font-family:monospace;font-style:normal;font-weight:normal" x="578.97" y="502.216">
      <tspan x="578.97" y="502.216">«extends»</tspan>
    </text>
  </g>
  <text font-size="12.8" style="fill: #000000;text-anchor:start;font-family:sans-serif;font-style:normal;font-weight:normal" x="707.458" y="349.078">
    <tspan x="707.458" y="349.078">User aborts booking</tspan>
  </text>
  <g>
    <rect style="fill: #8dc2bc" x="590.268" y="507.424" width="169.4" height="14.9"/>
    <text font-size="12.8" style="fill: #000000;text-anchor:start;font-family:monospace;font-style:normal;font-weight:normal" x="590.268" y="519.324">
      <tspan x="590.268" y="519.324">Voucher info incorrect</tspan>
    </text>
  </g>
  <g>
    <rect style="fill: #8dc2bc" x="459.062" y="477.256" width="61.6" height="14.9"/>
    <text font-size="12.8" style="fill: #000000;text-anchor:start;font-family:monospace;font-style:normal;font-weight:normal" x="459.062" y="489.156">
      <tspan x="459.062" y="489.156">Optional</tspan>
    </text>
  </g>
  <text font-size="15.24" style="fill: #000000;text-anchor:start;font-family:sans-serif;font-style:italic;font-weight:700" x="890.202" y="-151.562">
    <tspan x="890.202" y="-151.562">Travpedia</tspan>
  </text>
  <text font-size="12.8" style="fill: #000000;text-anchor:start;font-family:sans-serif;font-style:normal;font-weight:normal" x="53.3918" y="273.812">
    <tspan x="53.3918" y="273.812">Person who is not</tspan>
    <tspan x="53.3918" y="289.812">a member who </tspan>
    <tspan x="53.3918" y="305.812">will register or who</tspan>
    <tspan x="53.3918" y="321.812">is logged into the</tspan>
    <tspan x="53.3918" y="337.812">system, ready to</tspan>
    <tspan x="53.3918" y="353.812">make a search or</tspan>
    <tspan x="53.3918" y="369.812">a booking.</tspan>
  </text>
  <text font-size="12.8" style="fill: #000000;text-anchor:start;font-family:sans-serif;font-style:normal;font-weight:normal" x="1124.86" y="15.1365">
    <tspan x="1124.86" y="15.1365">Stores info about </tspan>
    <tspan x="1124.86" y="31.1365">users inc. past </tspan>
    <tspan x="1124.86" y="47.1365">bookings, settings</tspan>
    <tspan x="1124.86" y="63.1365">and vouchers.</tspan>
  </text>
  <text font-size="12.8" style="fill: #000000;text-anchor:start;font-family:sans-serif;font-style:normal;font-weight:normal" x="1123.51" y="465.734">
    <tspan x="1123.51" y="465.734">Global Distribution</tspan>
    <tspan x="1123.51" y="481.734">System - handles</tspan>
    <tspan x="1123.51" y="497.734">bookings for many</tspan>
    <tspan x="1123.51" y="513.734">hotel and travel </tspan>
    <tspan x="1123.51" y="529.734">systems.</tspan>
  </text>
  <text font-size="12.8" style="fill: #000000;text-anchor:start;font-family:sans-serif;font-style:normal;font-weight:normal" x="1123.46" y="697.84">
    <tspan x="1123.46" y="697.84">Handles payments</tspan>
    <tspan x="1123.46" y="713.84">including notifying</tspan>
    <tspan x="1123.46" y="729.84">users.</tspan>
  </text>
  <g>
    <polyline style="fill: none; fill-opacity:0; stroke-width: 2; stroke: #000000" points="1149.19,-73.7629 692.845,-98.7803 "/>
    <polygon style="fill: #000000" points="693.119,-103.773 676.869,-99.6561 692.571,-93.7878 "/>
    <polygon style="fill: none; fill-opacity:0; stroke-width: 2; stroke: #000000" points="693.119,-103.773 676.869,-99.6561 692.571,-93.7878 "/>
  </g>
  <g>
    <polyline style="fill: none; fill-opacity:0; stroke-width: 2; stroke: #000000" points="1208.26,168.735 1251.68,198.698 1251.8,299.128 1234.22,315.755 "/>
    <polygon style="fill: #000000" points="1228.77,320.908 1232.6,310.404 1234.22,315.755 1239.47,317.67 "/>
    <polygon style="fill: none; fill-opacity:0; stroke-width: 2; stroke: #000000" points="1228.77,320.908 1232.6,310.404 1234.22,315.755 1239.47,317.67 "/>
  </g>
</svg>
