<?xml version="1.0" encoding="UTF-8" standalone="no"?>
<!DOCTYPE svg PUBLIC "-//W3C//DTD SVG 1.0//EN" "http://www.w3.org/TR/2001/PR-SVG-20010719/DTD/svg10.dtd">
<svg width="58cm" height="37cm" viewBox="-290 -547 1155 725" xmlns="http://www.w3.org/2000/svg" xmlns:xlink="http://www.w3.org/1999/xlink">
  <g>
    <rect style="fill: #ffffff" x="231.238" y="-142.479" width="194.8" height="28"/>
    <rect style="fill: none; fill-opacity:0; stroke-width: 2; stroke: #000000" x="231.238" y="-142.479" width="194.8" height="28"/>
    <text font-size="16" style="fill: #000000;text-anchor:middle;font-family:sans-serif;font-style:italic;font-weight:700" x="328.638" y="-123.479">Travel</text>
    <rect style="fill: #ffffff" x="231.238" y="-114.479" width="194.8" height="68"/>
    <rect style="fill: none; fill-opacity:0; stroke-width: 2; stroke: #000000" x="231.238" y="-114.479" width="194.8" height="68"/>
    <text font-size="12.8" style="fill: #000000;text-anchor:start;font-family:monospace;font-style:normal;font-weight:normal" x="234.238" y="-100.479">-date: Date</text>
    <text font-size="12.8" style="fill: #000000;text-anchor:start;font-family:monospace;font-style:normal;font-weight:normal" x="234.238" y="-84.4792">-time: Time</text>
    <text font-size="12.8" style="fill: #000000;text-anchor:start;font-family:monospace;font-style:normal;font-weight:normal" x="234.238" y="-68.4792">-startLocation: Location</text>
    <text font-size="12.8" style="fill: #000000;text-anchor:start;font-family:monospace;font-style:normal;font-weight:normal" x="234.238" y="-52.4792">-endLocation: Location</text>
    <rect style="fill: #ffffff" x="231.238" y="-46.4792" width="194.8" height="8"/>
    <rect style="fill: none; fill-opacity:0; stroke-width: 2; stroke: #000000" x="231.238" y="-46.4792" width="194.8" height="8"/>
  </g>
  <g>
    <rect style="fill: #ffffff" x="-288.972" y="-185.046" width="156.3" height="28"/>
    <rect style="fill: none; fill-opacity:0; stroke-width: 2; stroke: #000000" x="-288.972" y="-185.046" width="156.3" height="28"/>
    <text font-size="16" style="fill: #000000;text-anchor:middle;font-family:sans-serif;font-style:normal;font-weight:700" x="-210.822" y="-166.046">Accomodation</text>
    <rect style="fill: #ffffff" x="-288.972" y="-157.046" width="156.3" height="84"/>
    <rect style="fill: none; fill-opacity:0; stroke-width: 2; stroke: #000000" x="-288.972" y="-157.046" width="156.3" height="84"/>
    <text font-size="12.8" style="fill: #000000;text-anchor:start;font-family:monospace;font-style:normal;font-weight:normal" x="-285.972" y="-143.046">-type: String</text>
    <text font-size="12.8" style="fill: #000000;text-anchor:start;font-family:monospace;font-style:normal;font-weight:normal" x="-285.972" y="-127.046">-startDate: Date</text>
    <text font-size="12.8" style="fill: #000000;text-anchor:start;font-family:monospace;font-style:normal;font-weight:normal" x="-285.972" y="-111.046">-endDate: Date</text>
    <text font-size="12.8" style="fill: #000000;text-anchor:start;font-family:monospace;font-style:normal;font-weight:normal" x="-285.972" y="-95.0456">-stars: int</text>
    <text font-size="12.8" style="fill: #000000;text-anchor:start;font-family:monospace;font-style:normal;font-weight:normal" x="-285.972" y="-79.0456">-location: Location</text>
    <rect style="fill: #ffffff" x="-288.972" y="-73.0456" width="156.3" height="20"/>
    <rect style="fill: none; fill-opacity:0; stroke-width: 2; stroke: #000000" x="-288.972" y="-73.0456" width="156.3" height="20"/>
    <text font-size="12.8" style="fill: #000000;text-anchor:start;font-family:monospace;font-style:normal;font-weight:normal" x="-285.972" y="-59.0456">+book(): Booking</text>
  </g>
  <g>
    <rect style="fill: #ffffff" x="-104.638" y="-341.35" width="202.5" height="28"/>
    <rect style="fill: none; fill-opacity:0; stroke-width: 2; stroke: #000000" x="-104.638" y="-341.35" width="202.5" height="28"/>
    <text font-size="16" style="fill: #000000;text-anchor:middle;font-family:sans-serif;font-style:italic;font-weight:700" x="-3.388" y="-322.35">Product</text>
    <rect style="fill: #ffffff" x="-104.638" y="-313.35" width="202.5" height="52"/>
    <rect style="fill: none; fill-opacity:0; stroke-width: 2; stroke: #000000" x="-104.638" y="-313.35" width="202.5" height="52"/>
    <text font-size="12.8" style="fill: #000000;text-anchor:start;font-family:monospace;font-style:normal;font-weight:normal" x="-101.638" y="-299.35">-price: double</text>
    <text font-size="12.8" style="fill: #000000;text-anchor:start;font-family:monospace;font-style:normal;font-weight:normal" x="-101.638" y="-283.35">-reviewScore: int</text>
    <text font-size="12.8" style="fill: #000000;text-anchor:start;font-family:monospace;font-style:normal;font-weight:normal" x="-101.638" y="-267.35">-productReference: String</text>
    <rect style="fill: #ffffff" x="-104.638" y="-261.35" width="202.5" height="8"/>
    <rect style="fill: none; fill-opacity:0; stroke-width: 2; stroke: #000000" x="-104.638" y="-261.35" width="202.5" height="8"/>
  </g>
  <g>
    <rect style="fill: #ffffff" x="-124.58" y="8.9255" width="148.6" height="28"/>
    <rect style="fill: none; fill-opacity:0; stroke-width: 2; stroke: #000000" x="-124.58" y="8.9255" width="148.6" height="28"/>
    <text font-size="16" style="fill: #000000;text-anchor:middle;font-family:sans-serif;font-style:normal;font-weight:700" x="-50.28" y="27.9255">Location</text>
    <rect style="fill: #ffffff" x="-124.58" y="36.9255" width="148.6" height="132"/>
    <rect style="fill: none; fill-opacity:0; stroke-width: 2; stroke: #000000" x="-124.58" y="36.9255" width="148.6" height="132"/>
    <text font-size="12.8" style="fill: #000000;text-anchor:start;font-family:monospace;font-style:normal;font-weight:normal" x="-121.58" y="50.9255">-name: String</text>
    <text font-size="12.8" style="fill: #000000;text-anchor:start;font-family:monospace;font-style:normal;font-weight:normal" x="-121.58" y="66.9255">-number: int</text>
    <text font-size="12.8" style="fill: #000000;text-anchor:start;font-family:monospace;font-style:normal;font-weight:normal" x="-121.58" y="82.9255">-road: String</text>
    <text font-size="12.8" style="fill: #000000;text-anchor:start;font-family:monospace;font-style:normal;font-weight:normal" x="-121.58" y="98.9255">-city: String</text>
    <text font-size="12.8" style="fill: #000000;text-anchor:start;font-family:monospace;font-style:normal;font-weight:normal" x="-121.58" y="114.926">-country: String</text>
    <text font-size="12.8" style="fill: #000000;text-anchor:start;font-family:monospace;font-style:normal;font-weight:normal" x="-121.58" y="130.926">-zipCode: String</text>
    <text font-size="12.8" style="fill: #000000;text-anchor:start;font-family:monospace;font-style:normal;font-weight:normal" x="-121.58" y="146.926">-longitude: double</text>
    <text font-size="12.8" style="fill: #000000;text-anchor:start;font-family:monospace;font-style:normal;font-weight:normal" x="-121.58" y="162.926">-latitude: double</text>
    <rect style="fill: #ffffff" x="-124.58" y="168.925" width="148.6" height="8"/>
    <rect style="fill: none; fill-opacity:0; stroke-width: 2; stroke: #000000" x="-124.58" y="168.925" width="148.6" height="8"/>
  </g>
  <g>
    <rect style="fill: #ffffff" x="294.35" y="-545.242" width="271.8" height="28"/>
    <rect style="fill: none; fill-opacity:0; stroke-width: 2; stroke: #000000" x="294.35" y="-545.242" width="271.8" height="28"/>
    <text font-size="16" style="fill: #000000;text-anchor:middle;font-family:sans-serif;font-style:normal;font-weight:700" x="430.25" y="-526.242">User</text>
    <rect style="fill: #ffffff" x="294.35" y="-517.242" width="271.8" height="68"/>
    <rect style="fill: none; fill-opacity:0; stroke-width: 2; stroke: #000000" x="294.35" y="-517.242" width="271.8" height="68"/>
    <text font-size="12.8" style="fill: #000000;text-anchor:start;font-family:monospace;font-style:normal;font-weight:normal" x="297.35" y="-503.242">-name: String</text>
    <text font-size="12.8" style="fill: #000000;text-anchor:start;font-family:monospace;font-style:normal;font-weight:normal" x="297.35" y="-487.242">-email: String</text>
    <text font-size="12.8" style="fill: #000000;text-anchor:start;font-family:monospace;font-style:normal;font-weight:normal" x="297.35" y="-471.242">-password: String</text>
    <text font-size="12.8" style="fill: #000000;text-anchor:start;font-family:monospace;font-style:normal;font-weight:normal" x="297.35" y="-455.242">-paymentMethods: List&lt;PaymentType&gt;</text>
    <rect style="fill: #ffffff" x="294.35" y="-449.242" width="271.8" height="52"/>
    <rect style="fill: none; fill-opacity:0; stroke-width: 2; stroke: #000000" x="294.35" y="-449.242" width="271.8" height="52"/>
    <text font-size="12.8" style="fill: #000000;text-anchor:start;font-family:monospace;font-style:normal;font-weight:normal" x="297.35" y="-435.242">+register(): boolean</text>
    <text font-size="12.8" style="fill: #000000;text-anchor:start;font-family:monospace;font-style:normal;font-weight:normal" x="297.35" y="-419.242">+logon(): boolean</text>
    <text font-size="12.8" style="fill: #000000;text-anchor:start;font-family:monospace;font-style:normal;font-weight:normal" x="297.35" y="-403.242">+search(): boolean</text>
  </g>
  <g>
    <rect style="fill: #ffffff" x="468.435" y="-142.352" width="202.5" height="28"/>
    <rect style="fill: none; fill-opacity:0; stroke-width: 2; stroke: #000000" x="468.435" y="-142.352" width="202.5" height="28"/>
    <text font-size="16" style="fill: #000000;text-anchor:middle;font-family:sans-serif;font-style:normal;font-weight:700" x="569.685" y="-123.352">PaymentCard</text>
    <rect style="fill: #ffffff" x="468.435" y="-114.352" width="202.5" height="84"/>
    <rect style="fill: none; fill-opacity:0; stroke-width: 2; stroke: #000000" x="468.435" y="-114.352" width="202.5" height="84"/>
    <text font-size="12.8" style="fill: #000000;text-anchor:start;font-family:monospace;font-style:normal;font-weight:normal" x="471.435" y="-100.352">-name: String</text>
    <text font-size="12.8" style="fill: #000000;text-anchor:start;font-family:monospace;font-style:normal;font-weight:normal" x="471.435" y="-84.3525">-billingAddress: Location</text>
    <text font-size="12.8" style="fill: #000000;text-anchor:start;font-family:monospace;font-style:normal;font-weight:normal" x="471.435" y="-68.3525">-cardType: String</text>
    <text font-size="12.8" style="fill: #000000;text-anchor:start;font-family:monospace;font-style:normal;font-weight:normal" x="471.435" y="-52.3525">-cardNumber: String</text>
    <text font-size="12.8" style="fill: #000000;text-anchor:start;font-family:monospace;font-style:normal;font-weight:normal" x="471.435" y="-36.3525">-expiryDate: Date</text>
    <rect style="fill: #ffffff" x="468.435" y="-30.3525" width="202.5" height="8"/>
    <rect style="fill: none; fill-opacity:0; stroke-width: 2; stroke: #000000" x="468.435" y="-30.3525" width="202.5" height="8"/>
  </g>
  <g>
    <rect style="fill: #ffffff" x="634.24" y="-383.222" width="194.8" height="28"/>
    <rect style="fill: none; fill-opacity:0; stroke-width: 2; stroke: #000000" x="634.24" y="-383.222" width="194.8" height="28"/>
    <text font-size="16" style="fill: #000000;text-anchor:middle;font-family:sans-serif;font-style:normal;font-weight:700" x="731.64" y="-364.222">Payment</text>
    <rect style="fill: #ffffff" x="634.24" y="-355.222" width="194.8" height="52"/>
    <rect style="fill: none; fill-opacity:0; stroke-width: 2; stroke: #000000" x="634.24" y="-355.222" width="194.8" height="52"/>
    <text font-size="12.8" style="fill: #000000;text-anchor:start;font-family:monospace;font-style:normal;font-weight:normal" x="637.24" y="-341.222">-value: double</text>
    <text font-size="12.8" style="fill: #000000;text-anchor:start;font-family:monospace;font-style:normal;font-weight:normal" x="637.24" y="-325.222">-payment: paymentType</text>
    <text font-size="12.8" style="fill: #000000;text-anchor:start;font-family:monospace;font-style:normal;font-weight:normal" x="637.24" y="-309.222">-paymentAuthCode: String</text>
    <rect style="fill: #ffffff" x="634.24" y="-303.222" width="194.8" height="20"/>
    <rect style="fill: none; fill-opacity:0; stroke-width: 2; stroke: #000000" x="634.24" y="-303.222" width="194.8" height="20"/>
    <text font-size="12.8" style="fill: #000000;text-anchor:start;font-family:monospace;font-style:normal;font-weight:normal" x="637.24" y="-289.222">+sendDetails(): boolean</text>
  </g>
  <g>
    <polyline style="fill: none; fill-opacity:0; stroke-width: 2; stroke: #000000" points="-98.596,-435.065 -98.596,-394.296 -3.388,-394.296 -3.388,-342.355 "/>
    <polygon style="fill: #ffffff" points="-98.596,-460.237 -93.796,-446.237 -98.596,-432.237 -103.396,-446.237 "/>
    <polygon style="fill: none; fill-opacity:0; stroke-width: 2; stroke: #000000" points="-98.596,-460.237 -93.796,-446.237 -98.596,-432.237 -103.396,-446.237 "/>
    <text font-size="12.7998" style="fill: #000000;text-anchor:middle;font-family:monospace;font-style:normal;font-weight:normal" x="-50.992" y="-397.296">Is made of</text>
    <polygon style="fill: #000000" points="-10.492,-397.296 -10.492,-405.296 -2.492,-401.296 "/>
    <text font-size="12.7998" style="fill: #000000;text-anchor:start;font-family:monospace;font-style:normal;font-weight:normal" x="-87.596" y="-448.237"> 1..*</text>
    <text font-size="12.7998" style="fill: #000000;text-anchor:start;font-family:monospace;font-style:normal;font-weight:normal" x="-87.596" y="-432.237"/>
    <text font-size="12.7998" style="fill: #000000;text-anchor:start;font-family:monospace;font-style:normal;font-weight:normal" x="0.612" y="-362.355"> 0..1</text>
    <text font-size="12.7998" style="fill: #000000;text-anchor:start;font-family:monospace;font-style:normal;font-weight:normal" x="0.612" y="-346.355"/>
  </g>
  <g>
    <polyline style="fill: none; fill-opacity:0; stroke-width: 2; stroke: #000000" points="566.15,-531.242 731.64,-531.242 731.64,-383.222 "/>
    <text font-size="12.7998" style="fill: #000000;text-anchor:middle;font-family:monospace;font-style:normal;font-weight:normal" x="648.895" y="-534.242">Pays a</text>
    <polygon style="fill: #000000" points="673.995,-534.242 673.995,-542.242 681.995,-538.242 "/>
    <text font-size="12.7998" style="fill: #000000;text-anchor:start;font-family:monospace;font-style:normal;font-weight:normal" x="570.15" y="-534.242"/>
    <text font-size="12.7998" style="fill: #000000;text-anchor:start;font-family:monospace;font-style:normal;font-weight:normal" x="735.64" y="-387.222"/>
  </g>
  <g>
    <rect style="fill: #ffffff" x="-215.246" y="-545.242" width="233.3" height="28"/>
    <rect style="fill: none; fill-opacity:0; stroke-width: 2; stroke: #000000" x="-215.246" y="-545.242" width="233.3" height="28"/>
    <text font-size="16" style="fill: #000000;text-anchor:middle;font-family:sans-serif;font-style:normal;font-weight:700" x="-98.596" y="-526.242">SearchResults</text>
    <rect style="fill: #ffffff" x="-215.246" y="-517.242" width="233.3" height="20"/>
    <rect style="fill: none; fill-opacity:0; stroke-width: 2; stroke: #000000" x="-215.246" y="-517.242" width="233.3" height="20"/>
    <text font-size="12.8" style="fill: #000000;text-anchor:start;font-family:monospace;font-style:normal;font-weight:normal" x="-212.246" y="-503.242">-searchResults: List&lt;Product&gt;</text>
    <rect style="fill: #ffffff" x="-215.246" y="-497.242" width="233.3" height="36"/>
    <rect style="fill: none; fill-opacity:0; stroke-width: 2; stroke: #000000" x="-215.246" y="-497.242" width="233.3" height="36"/>
    <text font-size="12.8" style="fill: #000000;text-anchor:start;font-family:monospace;font-style:normal;font-weight:normal" x="-212.246" y="-483.242">+sort()</text>
    <text font-size="12.8" style="fill: #000000;text-anchor:start;font-family:monospace;font-style:normal;font-weight:normal" x="-212.246" y="-467.242">+filter()</text>
  </g>
  <g>
    <rect style="fill: #ffffff" x="252.252" y="-341.35" width="210.2" height="28"/>
    <rect style="fill: none; fill-opacity:0; stroke-width: 2; stroke: #000000" x="252.252" y="-341.35" width="210.2" height="28"/>
    <text font-size="16" style="fill: #000000;text-anchor:middle;font-family:sans-serif;font-style:normal;font-weight:700" x="357.352" y="-322.35">Booking</text>
    <rect style="fill: #ffffff" x="252.252" y="-313.35" width="210.2" height="20"/>
    <rect style="fill: none; fill-opacity:0; stroke-width: 2; stroke: #000000" x="252.252" y="-313.35" width="210.2" height="20"/>
    <text font-size="12.8" style="fill: #000000;text-anchor:start;font-family:monospace;font-style:normal;font-weight:normal" x="255.252" y="-299.35">-items: ArrayList&lt;Product&gt;</text>
    <rect style="fill: #ffffff" x="252.252" y="-293.35" width="210.2" height="36"/>
    <rect style="fill: none; fill-opacity:0; stroke-width: 2; stroke: #000000" x="252.252" y="-293.35" width="210.2" height="36"/>
    <text font-size="12.8" style="fill: #000000;text-anchor:start;font-family:monospace;font-style:normal;font-weight:normal" x="255.252" y="-279.35">+cancel(): boolean</text>
    <text font-size="12.8" style="fill: #000000;text-anchor:start;font-family:monospace;font-style:normal;font-weight:normal" x="255.252" y="-263.35">+view(): boolean</text>
  </g>
  <g>
    <polyline style="fill: none; fill-opacity:0; stroke-width: 2; stroke: #000000" points="430.25,-396.233 430.25,-369.294 357.352,-369.294 357.352,-342.355 "/>
    <text font-size="12.7998" style="fill: #000000;text-anchor:middle;font-family:monospace;font-style:normal;font-weight:normal" x="393.801" y="-372.294">can view</text>
    <polygon style="fill: #000000" points="359.001,-372.294 359.001,-380.294 351.001,-376.294 "/>
    <text font-size="12.7998" style="fill: #000000;text-anchor:start;font-family:monospace;font-style:normal;font-weight:normal" x="434.25" y="-384.233">1</text>
    <text font-size="12.7998" style="fill: #000000;text-anchor:start;font-family:monospace;font-style:normal;font-weight:normal" x="361.352" y="-346.355">0..*</text>
  </g>
  <g>
    <rect style="fill: #ffffff" x="699.589" y="-124.802" width="164" height="28"/>
    <rect style="fill: none; fill-opacity:0; stroke-width: 2; stroke: #000000" x="699.589" y="-124.802" width="164" height="28"/>
    <text font-size="16" style="fill: #000000;text-anchor:middle;font-family:sans-serif;font-style:normal;font-weight:700" x="781.589" y="-105.802">Voucher</text>
    <rect style="fill: #ffffff" x="699.589" y="-96.8023" width="164" height="52"/>
    <rect style="fill: none; fill-opacity:0; stroke-width: 2; stroke: #000000" x="699.589" y="-96.8023" width="164" height="52"/>
    <text font-size="12.8" style="fill: #000000;text-anchor:start;font-family:monospace;font-style:normal;font-weight:normal" x="702.589" y="-82.8023">-value: double</text>
    <text font-size="12.8" style="fill: #000000;text-anchor:start;font-family:monospace;font-style:normal;font-weight:normal" x="702.589" y="-66.8023">-expiraryDate: Date</text>
    <text font-size="12.8" style="fill: #000000;text-anchor:start;font-family:monospace;font-style:normal;font-weight:normal" x="702.589" y="-50.8023">-voucherCode: String</text>
    <rect style="fill: #ffffff" x="699.589" y="-44.8023" width="164" height="20"/>
    <rect style="fill: none; fill-opacity:0; stroke-width: 2; stroke: #000000" x="699.589" y="-44.8023" width="164" height="20"/>
    <text font-size="12.8" style="fill: #000000;text-anchor:start;font-family:monospace;font-style:normal;font-weight:normal" x="702.589" y="-30.8023">+verify(): boolean</text>
  </g>
  <g>
    <rect style="fill: #ffffff" x="667.114" y="-209.314" width="129.05" height="28"/>
    <rect style="fill: none; fill-opacity:0; stroke-width: 2; stroke: #000000" x="667.114" y="-209.314" width="129.05" height="28"/>
    <text font-size="16" style="fill: #000000;text-anchor:middle;font-family:sans-serif;font-style:italic;font-weight:700" x="731.639" y="-190.314">PaymentType</text>
    <rect style="fill: #ffffff" x="667.114" y="-181.314" width="129.05" height="8"/>
    <rect style="fill: none; fill-opacity:0; stroke-width: 2; stroke: #000000" x="667.114" y="-181.314" width="129.05" height="8"/>
    <rect style="fill: #ffffff" x="667.114" y="-173.314" width="129.05" height="8"/>
    <rect style="fill: none; fill-opacity:0; stroke-width: 2; stroke: #000000" x="667.114" y="-173.314" width="129.05" height="8"/>
  </g>
  <g>
    <line style="fill: none; fill-opacity:0; stroke-width: 2; stroke: #000000" x1="758.949" y1="-125.798" x2="741.846" y2="-164.323"/>
    <ellipse style="fill: #ffffff" cx="744.686" cy="-157.925" rx="7" ry="7"/>
    <ellipse style="fill: none; fill-opacity:0; stroke-width: 2; stroke: #000000" cx="744.686" cy="-157.925" rx="7" ry="7"/>
    <text font-size="12.7998" style="fill: #000000;text-anchor:start;font-family:monospace;font-style:normal;font-weight:normal" x="735.846" y="-164.322"/>
  </g>
  <g>
    <line style="fill: none; fill-opacity:0; stroke-width: 2; stroke: #000000" x1="663.809" y1="-143.354" x2="696.172" y2="-164.328"/>
    <ellipse style="fill: #ffffff" cx="690.298" cy="-160.521" rx="7" ry="7"/>
    <ellipse style="fill: none; fill-opacity:0; stroke-width: 2; stroke: #000000" cx="690.298" cy="-160.521" rx="7" ry="7"/>
    <text font-size="12.7998" style="fill: #000000;text-anchor:start;font-family:monospace;font-style:normal;font-weight:normal" x="692.148" y="-164.327"/>
  </g>
  <g>
    <rect style="fill: #ffffff" x="-29.7968" y="-185.046" width="194.8" height="28"/>
    <rect style="fill: none; fill-opacity:0; stroke-width: 2; stroke: #000000" x="-29.7968" y="-185.046" width="194.8" height="28"/>
    <text font-size="16" style="fill: #000000;text-anchor:middle;font-family:sans-serif;font-style:normal;font-weight:700" x="67.6032" y="-166.046">PackageHoliday</text>
    <rect style="fill: #ffffff" x="-29.7968" y="-157.046" width="194.8" height="84"/>
    <rect style="fill: none; fill-opacity:0; stroke-width: 2; stroke: #000000" x="-29.7968" y="-157.046" width="194.8" height="84"/>
    <text font-size="12.8" style="fill: #000000;text-anchor:start;font-family:monospace;font-style:normal;font-weight:normal" x="-26.7968" y="-143.046">-description: String</text>
    <text font-size="12.8" style="fill: #000000;text-anchor:start;font-family:monospace;font-style:normal;font-weight:normal" x="-26.7968" y="-127.046">-startLocation: Location</text>
    <text font-size="12.8" style="fill: #000000;text-anchor:start;font-family:monospace;font-style:normal;font-weight:normal" x="-26.7968" y="-111.046">-destination: Location</text>
    <text font-size="12.8" style="fill: #000000;text-anchor:start;font-family:monospace;font-style:normal;font-weight:normal" x="-26.7968" y="-95.0456">-startDate: Date</text>
    <text font-size="12.8" style="fill: #000000;text-anchor:start;font-family:monospace;font-style:normal;font-weight:normal" x="-26.7968" y="-79.0456">-endDate: Date</text>
    <rect style="fill: #ffffff" x="-29.7968" y="-73.0456" width="194.8" height="20"/>
    <rect style="fill: none; fill-opacity:0; stroke-width: 2; stroke: #000000" x="-29.7968" y="-73.0456" width="194.8" height="20"/>
    <text font-size="12.8" style="fill: #000000;text-anchor:start;font-family:monospace;font-style:normal;font-weight:normal" x="-26.7968" y="-59.0456">+book(): Booking</text>
  </g>
  <g>
    <polyline style="fill: none; fill-opacity:0; stroke-width: 2; stroke: #000000" points="294.35,-531.242 157.74,-531.242 157.74,-531.242 18.0541,-531.242 "/>
    <text font-size="12.7998" style="fill: #000000;text-anchor:middle;font-family:monospace;font-style:normal;font-weight:normal" x="157.74" y="-534.242">searches for</text>
    <polygon style="fill: #000000" points="107.54,-534.242 107.54,-542.242 99.5404,-538.242 "/>
    <text font-size="12.7998" style="fill: #000000;text-anchor:end;font-family:monospace;font-style:normal;font-weight:normal" x="290.35" y="-534.242">1</text>
    <text font-size="12.7998" style="fill: #000000;text-anchor:start;font-family:monospace;font-style:normal;font-weight:normal" x="22.0541" y="-534.242">0..*</text>
  </g>
  <g>
    <polyline style="fill: none; fill-opacity:0; stroke-width: 2; stroke: #000000" points="206.066,-72.4792 188.248,-72.4792 188.248,-35.1292 24.02,-35.1292 24.02,8.9255 "/>
    <polygon style="fill: #000000" points="231.238,-72.4792 217.238,-67.6792 203.238,-72.4792 217.238,-77.2792 "/>
    <polygon style="fill: none; fill-opacity:0; stroke-width: 2; stroke: #000000" points="231.238,-72.4792 217.238,-67.6792 203.238,-72.4792 217.238,-77.2792 "/>
    <text font-size="12.7998" style="fill: #000000;text-anchor:middle;font-family:monospace;font-style:normal;font-weight:normal" x="106.134" y="-38.1292"/>
    <text font-size="12.7998" style="fill: #000000;text-anchor:end;font-family:monospace;font-style:normal;font-weight:normal" x="199.238" y="-75.4792">1</text>
    <text font-size="12.7998" style="fill: #000000;text-anchor:start;font-family:monospace;font-style:normal;font-weight:normal" x="28.02" y="4.9255">2</text>
  </g>
  <g>
    <polyline style="fill: none; fill-opacity:0; stroke-width: 2; stroke: #000000" points="-54.9684,-131.046 -68.5144,-131.046 -68.5144,-68.56 -50.28,-68.56 -50.28,8.9255 "/>
    <polygon style="fill: #000000" points="-29.7968,-131.046 -43.7968,-126.246 -57.7968,-131.046 -43.7968,-135.846 "/>
    <polygon style="fill: none; fill-opacity:0; stroke-width: 2; stroke: #000000" points="-29.7968,-131.046 -43.7968,-126.246 -57.7968,-131.046 -43.7968,-135.846 "/>
    <text font-size="12.7998" style="fill: #000000;text-anchor:middle;font-family:monospace;font-style:normal;font-weight:normal" x="-59.3972" y="-71.56"/>
    <text font-size="12.7998" style="fill: #000000;text-anchor:end;font-family:monospace;font-style:normal;font-weight:normal" x="-61.7968" y="-134.046">1</text>
    <text font-size="12.7998" style="fill: #000000;text-anchor:start;font-family:monospace;font-style:normal;font-weight:normal" x="-46.28" y="4.9255">2</text>
  </g>
  <g>
    <polyline style="fill: none; fill-opacity:0; stroke-width: 2; stroke: #000000" points="-107.5,-83.0456 -88.4023,-83.0456 -88.4023,-44.56 -124.58,-44.56 -124.58,8.9255 "/>
    <polygon style="fill: #000000" points="-132.672,-83.0456 -118.672,-87.8456 -104.672,-83.0456 -118.672,-78.2456 "/>
    <polygon style="fill: none; fill-opacity:0; stroke-width: 2; stroke: #000000" points="-132.672,-83.0456 -118.672,-87.8456 -104.672,-83.0456 -118.672,-78.2456 "/>
    <text font-size="12.7998" style="fill: #000000;text-anchor:middle;font-family:monospace;font-style:normal;font-weight:normal" x="-106.491" y="-47.56"/>
    <text font-size="12.7998" style="fill: #000000;text-anchor:start;font-family:monospace;font-style:normal;font-weight:normal" x="-100.672" y="-86.0456">1</text>
    <text font-size="12.7998" style="fill: #000000;text-anchor:start;font-family:monospace;font-style:normal;font-weight:normal" x="-120.58" y="4.9255">1</text>
  </g>
  <g>
    <polyline style="fill: none; fill-opacity:0; stroke-width: 2; stroke: #000000" points="731.639,-210.32 731.639,-239.268 731.64,-239.268 731.64,-257.044 "/>
    <polygon style="fill: #000000" points="731.64,-282.216 736.44,-268.216 731.64,-254.216 726.84,-268.216 "/>
    <polygon style="fill: none; fill-opacity:0; stroke-width: 2; stroke: #000000" points="731.64,-282.216 736.44,-268.216 731.64,-254.216 726.84,-268.216 "/>
    <text font-size="12.7998" style="fill: #000000;text-anchor:middle;font-family:monospace;font-style:normal;font-weight:normal" x="731.64" y="-242.268"/>
    <text font-size="12.7998" style="fill: #000000;text-anchor:start;font-family:monospace;font-style:normal;font-weight:normal" x="735.639" y="-214.32">1</text>
    <text font-size="12.7998" style="fill: #000000;text-anchor:start;font-family:monospace;font-style:normal;font-weight:normal" x="742.64" y="-270.216">1</text>
  </g>
  <g>
    <polyline style="fill: none; fill-opacity:0; stroke-width: 2; stroke: #000000" points="-3.38797,-234.143 -3.38796,-221.92 67.6032,-221.92 67.6032,-186.004 "/>
    <polygon style="fill: #ffffff" points="4.61203,-234.143 -3.38798,-250.143 -11.388,-234.143 "/>
    <polygon style="fill: none; fill-opacity:0; stroke-width: 2; stroke: #000000" points="4.61203,-234.143 -3.38798,-250.143 -11.388,-234.143 "/>
  </g>
  <g>
    <polyline style="fill: none; fill-opacity:0; stroke-width: 2; stroke: #000000" points="97.862,-235.114 97.862,-217.06 328.638,-217.06 328.638,-143.486 "/>
    <polygon style="fill: #ffffff" points="105.862,-235.114 97.862,-251.114 89.862,-235.114 "/>
    <polygon style="fill: none; fill-opacity:0; stroke-width: 2; stroke: #000000" points="105.862,-235.114 97.862,-251.114 89.862,-235.114 "/>
  </g>
  <g>
    <polyline style="fill: none; fill-opacity:0; stroke-width: 2; stroke: #000000" points="-104.638,-235.114 -104.638,-220.3 -210.822,-220.3 -210.822,-186.05 "/>
    <polygon style="fill: #ffffff" points="-96.638,-235.114 -104.638,-251.114 -112.638,-235.114 "/>
    <polygon style="fill: none; fill-opacity:0; stroke-width: 2; stroke: #000000" points="-96.638,-235.114 -104.638,-251.114 -112.638,-235.114 "/>
  </g>
  <g>
    <polyline style="fill: none; fill-opacity:0; stroke-width: 2; stroke: #000000" points="97.862,-327.35 153.873,-327.35 153.873,-327.35 227.08,-327.35 "/>
    <polygon style="fill: #000000" points="252.252,-327.35 238.252,-322.55 224.252,-327.35 238.252,-332.15 "/>
    <polygon style="fill: none; fill-opacity:0; stroke-width: 2; stroke: #000000" points="252.252,-327.35 238.252,-322.55 224.252,-327.35 238.252,-332.15 "/>
    <text font-size="12.7998" style="fill: #000000;text-anchor:middle;font-family:monospace;font-style:normal;font-weight:normal" x="153.873" y="-330.35">contains</text>
    <text font-size="12.7998" style="fill: #000000;text-anchor:start;font-family:monospace;font-style:normal;font-weight:normal" x="101.862" y="-330.35">1</text>
    <text font-size="12.7998" style="fill: #000000;text-anchor:end;font-family:monospace;font-style:normal;font-weight:normal" x="220.252" y="-330.35">1..*</text>
  </g>
  <g>
    <rect style="fill: #ffffff" x="64.606" y="42.8794" width="171.7" height="28"/>
    <rect style="fill: none; fill-opacity:0; stroke-width: 2; stroke: #000000" x="64.606" y="42.8794" width="171.7" height="28"/>
    <text font-size="16" style="fill: #000000;text-anchor:middle;font-family:sans-serif;font-style:normal;font-weight:700" x="150.456" y="61.8794">Flight</text>
    <rect style="fill: #ffffff" x="64.606" y="70.8794" width="171.7" height="36"/>
    <rect style="fill: none; fill-opacity:0; stroke-width: 2; stroke: #000000" x="64.606" y="70.8794" width="171.7" height="36"/>
    <text font-size="12.8" style="fill: #000000;text-anchor:start;font-family:monospace;font-style:normal;font-weight:normal" x="67.606" y="84.8794">-flightNumber: String</text>
    <text font-size="12.8" style="fill: #000000;text-anchor:start;font-family:monospace;font-style:normal;font-weight:normal" x="67.606" y="100.879">-airline: String</text>
    <rect style="fill: #ffffff" x="64.606" y="106.879" width="171.7" height="20"/>
    <rect style="fill: none; fill-opacity:0; stroke-width: 2; stroke: #000000" x="64.606" y="106.879" width="171.7" height="20"/>
    <text font-size="12.8" style="fill: #000000;text-anchor:start;font-family:monospace;font-style:normal;font-weight:normal" x="67.606" y="120.879">+book(): Booking</text>
  </g>
  <g>
    <rect style="fill: #ffffff" x="417.706" y="42.8794" width="217.9" height="28"/>
    <rect style="fill: none; fill-opacity:0; stroke-width: 2; stroke: #000000" x="417.706" y="42.8794" width="217.9" height="28"/>
    <text font-size="16" style="fill: #000000;text-anchor:middle;font-family:sans-serif;font-style:normal;font-weight:700" x="526.656" y="61.8794">Ferry</text>
    <rect style="fill: #ffffff" x="417.706" y="70.8794" width="217.9" height="36"/>
    <rect style="fill: none; fill-opacity:0; stroke-width: 2; stroke: #000000" x="417.706" y="70.8794" width="217.9" height="36"/>
    <text font-size="12.8" style="fill: #000000;text-anchor:start;font-family:monospace;font-style:normal;font-weight:normal" x="420.706" y="84.8794">-car: boolean</text>
    <text font-size="12.8" style="fill: #000000;text-anchor:start;font-family:monospace;font-style:normal;font-weight:normal" x="420.706" y="100.879">-registrationNumber: String</text>
    <rect style="fill: #ffffff" x="417.706" y="106.879" width="217.9" height="20"/>
    <rect style="fill: none; fill-opacity:0; stroke-width: 2; stroke: #000000" x="417.706" y="106.879" width="217.9" height="20"/>
    <text font-size="12.8" style="fill: #000000;text-anchor:start;font-family:monospace;font-style:normal;font-weight:normal" x="420.706" y="120.879">+book(): Booking</text>
  </g>
  <g>
    <rect style="fill: #ffffff" x="250.488" y="42.8794" width="156.3" height="28"/>
    <rect style="fill: none; fill-opacity:0; stroke-width: 2; stroke: #000000" x="250.488" y="42.8794" width="156.3" height="28"/>
    <text font-size="16" style="fill: #000000;text-anchor:middle;font-family:sans-serif;font-style:normal;font-weight:700" x="328.638" y="61.8794">Rail</text>
    <rect style="fill: #ffffff" x="250.488" y="70.8794" width="156.3" height="36"/>
    <rect style="fill: none; fill-opacity:0; stroke-width: 2; stroke: #000000" x="250.488" y="70.8794" width="156.3" height="36"/>
    <text font-size="12.8" style="fill: #000000;text-anchor:start;font-family:monospace;font-style:normal;font-weight:normal" x="253.488" y="84.8794">-ticketType: String</text>
    <text font-size="12.8" style="fill: #000000;text-anchor:start;font-family:monospace;font-style:normal;font-weight:normal" x="253.488" y="100.879">-seatNumber: String</text>
    <rect style="fill: #ffffff" x="250.488" y="106.879" width="156.3" height="20"/>
    <rect style="fill: none; fill-opacity:0; stroke-width: 2; stroke: #000000" x="250.488" y="106.879" width="156.3" height="20"/>
    <text font-size="12.8" style="fill: #000000;text-anchor:start;font-family:monospace;font-style:normal;font-weight:normal" x="253.488" y="120.879">+book(): Booking</text>
  </g>
  <g>
    <polyline style="fill: none; fill-opacity:0; stroke-width: 2; stroke: #000000" points="328.638,-20.2431 328.638,-21.4792 328.638,41.8794 328.638,42.8794 "/>
    <polygon style="fill: #ffffff" points="336.638,-20.2431 328.638,-36.2431 320.638,-20.2431 "/>
    <polygon style="fill: none; fill-opacity:0; stroke-width: 2; stroke: #000000" points="336.638,-20.2431 328.638,-36.2431 320.638,-20.2431 "/>
  </g>
  <g>
    <polyline style="fill: none; fill-opacity:0; stroke-width: 2; stroke: #000000" points="426.038,-20.2431 426.038,6.08714 526.656,6.08714 526.656,42.8794 "/>
    <polygon style="fill: #ffffff" points="434.038,-20.2431 426.038,-36.2431 418.038,-20.2431 "/>
    <polygon style="fill: none; fill-opacity:0; stroke-width: 2; stroke: #000000" points="434.038,-20.2431 426.038,-36.2431 418.038,-20.2431 "/>
  </g>
  <g>
    <polyline style="fill: none; fill-opacity:0; stroke-width: 2; stroke: #000000" points="231.238,-20.2431 231.238,6.95584 150.456,6.95584 150.456,42.8794 "/>
    <polygon style="fill: #ffffff" points="239.238,-20.2431 231.238,-36.2431 223.238,-20.2431 "/>
    <polygon style="fill: none; fill-opacity:0; stroke-width: 2; stroke: #000000" points="239.238,-20.2431 231.238,-36.2431 223.238,-20.2431 "/>
  </g>
  <g>
    <polyline style="fill: none; fill-opacity:0; stroke-width: 2; stroke: #000000" points="667.114,-195.314 605.598,-195.314 605.598,-249.31 605.598,-249.31 605.598,-459.242 591.322,-459.242 "/>
    <polygon style="fill: #000000" points="566.15,-459.242 580.15,-464.042 594.15,-459.242 580.15,-454.442 "/>
    <polygon style="fill: none; fill-opacity:0; stroke-width: 2; stroke: #000000" points="566.15,-459.242 580.15,-464.042 594.15,-459.242 580.15,-454.442 "/>
    <text font-size="12.7998" style="fill: #000000;text-anchor:start;font-family:monospace;font-style:normal;font-weight:normal" x="607.598" y="-252.31">Stores a</text>
    <polygon style="fill: #000000" points="603.598,-252.31 603.598,-260.31 595.598,-256.31 "/>
    <text font-size="12.7998" style="fill: #000000;text-anchor:end;font-family:monospace;font-style:normal;font-weight:normal" x="663.114" y="-198.314">0..*</text>
    <text font-size="12.7998" style="fill: #000000;text-anchor:start;font-family:monospace;font-style:normal;font-weight:normal" x="598.15" y="-462.242">1</text>
  </g>
  <g>
    <polyline style="fill: none; fill-opacity:0; stroke-width: 2; stroke: #000000" points="634.24,-369.222 555.346,-369.222 555.346,-327.35 487.624,-327.35 "/>
    <polygon style="fill: #000000" points="462.452,-327.35 476.452,-332.15 490.452,-327.35 476.452,-322.55 "/>
    <polygon style="fill: none; fill-opacity:0; stroke-width: 2; stroke: #000000" points="462.452,-327.35 476.452,-332.15 490.452,-327.35 476.452,-322.55 "/>
    <text font-size="12.7998" style="fill: #000000;text-anchor:start;font-family:monospace;font-style:normal;font-weight:normal" x="557.346" y="-351.286"/>
    <text font-size="12.7998" style="fill: #000000;text-anchor:end;font-family:monospace;font-style:normal;font-weight:normal" x="630.24" y="-372.222">1</text>
    <text font-size="12.7998" style="fill: #000000;text-anchor:start;font-family:monospace;font-style:normal;font-weight:normal" x="494.452" y="-330.35">1</text>
  </g>
</svg>
