<?xml version="1.0" encoding="UTF-8" standalone="no"?>
<!DOCTYPE svg PUBLIC "-//W3C//DTD SVG 1.0//EN" "http://www.w3.org/TR/2001/PR-SVG-20010719/DTD/svg10.dtd">
<svg width="65cm" height="37cm" viewBox="-302 -548 1294 726" xmlns="http://www.w3.org/2000/svg" xmlns:xlink="http://www.w3.org/1999/xlink">
  <g>
    <rect style="fill: #ffffff" x="231.238" y="-185.046" width="194.8" height="28"/>
    <rect style="fill: none; fill-opacity:0; stroke-width: 2; stroke: #000000" x="231.238" y="-185.046" width="194.8" height="28"/>
    <text style="fill: #000000;text-anchor:middle;font-size:16;font-family:sanserif;font-style:italic;font-weight:700" x="328.638" y="-166.046">Travel</text>
    <rect style="fill: #ffffff" x="231.238" y="-157.046" width="194.8" height="68"/>
    <rect style="fill: none; fill-opacity:0; stroke-width: 2; stroke: #000000" x="231.238" y="-157.046" width="194.8" height="68"/>
    <text style="fill: #000000;text-anchor:start;font-size:12.8;font-family:monospace;font-style:normal;font-weight:normal" x="234.238" y="-143.046">-date: Date</text>
    <text style="fill: #000000;text-anchor:start;font-size:12.8;font-family:monospace;font-style:normal;font-weight:normal" x="234.238" y="-127.046">-time: Time</text>
    <text style="fill: #000000;text-anchor:start;font-size:12.8;font-family:monospace;font-style:normal;font-weight:normal" x="234.238" y="-111.046">-startLocation: Location</text>
    <text style="fill: #000000;text-anchor:start;font-size:12.8;font-family:monospace;font-style:normal;font-weight:normal" x="234.238" y="-95.0456">-endLocation: Location</text>
    <rect style="fill: #ffffff" x="231.238" y="-89.0456" width="194.8" height="8"/>
    <rect style="fill: none; fill-opacity:0; stroke-width: 2; stroke: #000000" x="231.238" y="-89.0456" width="194.8" height="8"/>
  </g>
  <g>
    <rect style="fill: #ffffff" x="-300.988" y="-185.046" width="156.3" height="28"/>
    <rect style="fill: none; fill-opacity:0; stroke-width: 2; stroke: #000000" x="-300.988" y="-185.046" width="156.3" height="28"/>
    <text style="fill: #000000;text-anchor:middle;font-size:16;font-family:sanserif;font-style:normal;font-weight:700" x="-222.838" y="-166.046">Accomodation</text>
    <rect style="fill: #ffffff" x="-300.988" y="-157.046" width="156.3" height="84"/>
    <rect style="fill: none; fill-opacity:0; stroke-width: 2; stroke: #000000" x="-300.988" y="-157.046" width="156.3" height="84"/>
    <text style="fill: #000000;text-anchor:start;font-size:12.8;font-family:monospace;font-style:normal;font-weight:normal" x="-297.988" y="-143.046">-type: String</text>
    <text style="fill: #000000;text-anchor:start;font-size:12.8;font-family:monospace;font-style:normal;font-weight:normal" x="-297.988" y="-127.046">-startDate: Date</text>
    <text style="fill: #000000;text-anchor:start;font-size:12.8;font-family:monospace;font-style:normal;font-weight:normal" x="-297.988" y="-111.046">-endDate: Date</text>
    <text style="fill: #000000;text-anchor:start;font-size:12.8;font-family:monospace;font-style:normal;font-weight:normal" x="-297.988" y="-95.0456">-stars: int</text>
    <text style="fill: #000000;text-anchor:start;font-size:12.8;font-family:monospace;font-style:normal;font-weight:normal" x="-297.988" y="-79.0456">-location: Location</text>
    <rect style="fill: #ffffff" x="-300.988" y="-73.0456" width="156.3" height="20"/>
    <rect style="fill: none; fill-opacity:0; stroke-width: 2; stroke: #000000" x="-300.988" y="-73.0456" width="156.3" height="20"/>
    <text style="fill: #000000;text-anchor:start;font-size:12.8;font-family:monospace;font-style:normal;font-weight:normal" x="-297.988" y="-59.0456">+book(): Booking</text>
  </g>
  <g>
    <rect style="fill: #ffffff" x="-93.3447" y="-341.35" width="202.5" height="28"/>
    <rect style="fill: none; fill-opacity:0; stroke-width: 2; stroke: #000000" x="-93.3447" y="-341.35" width="202.5" height="28"/>
    <text style="fill: #000000;text-anchor:middle;font-size:16;font-family:sanserif;font-style:italic;font-weight:700" x="7.90527" y="-322.35">Product</text>
    <rect style="fill: #ffffff" x="-93.3447" y="-313.35" width="202.5" height="52"/>
    <rect style="fill: none; fill-opacity:0; stroke-width: 2; stroke: #000000" x="-93.3447" y="-313.35" width="202.5" height="52"/>
    <text style="fill: #000000;text-anchor:start;font-size:12.8;font-family:monospace;font-style:normal;font-weight:normal" x="-90.3447" y="-299.35">-price: double</text>
    <text style="fill: #000000;text-anchor:start;font-size:12.8;font-family:monospace;font-style:normal;font-weight:normal" x="-90.3447" y="-283.35">-reviewScore: int</text>
    <text style="fill: #000000;text-anchor:start;font-size:12.8;font-family:monospace;font-style:normal;font-weight:normal" x="-90.3447" y="-267.35">-productReference: String</text>
    <rect style="fill: #ffffff" x="-93.3447" y="-261.35" width="202.5" height="8"/>
    <rect style="fill: none; fill-opacity:0; stroke-width: 2; stroke: #000000" x="-93.3447" y="-261.35" width="202.5" height="8"/>
  </g>
  <g>
    <rect style="fill: #ffffff" x="-124.58" y="8.9255" width="148.6" height="28"/>
    <rect style="fill: none; fill-opacity:0; stroke-width: 2; stroke: #000000" x="-124.58" y="8.9255" width="148.6" height="28"/>
    <text style="fill: #000000;text-anchor:middle;font-size:16;font-family:sanserif;font-style:normal;font-weight:700" x="-50.28" y="27.9255">Location</text>
    <rect style="fill: #ffffff" x="-124.58" y="36.9255" width="148.6" height="132"/>
    <rect style="fill: none; fill-opacity:0; stroke-width: 2; stroke: #000000" x="-124.58" y="36.9255" width="148.6" height="132"/>
    <text style="fill: #000000;text-anchor:start;font-size:12.8;font-family:monospace;font-style:normal;font-weight:normal" x="-121.58" y="50.9255">-name: String</text>
    <text style="fill: #000000;text-anchor:start;font-size:12.8;font-family:monospace;font-style:normal;font-weight:normal" x="-121.58" y="66.9255">-number: int</text>
    <text style="fill: #000000;text-anchor:start;font-size:12.8;font-family:monospace;font-style:normal;font-weight:normal" x="-121.58" y="82.9255">-road: String</text>
    <text style="fill: #000000;text-anchor:start;font-size:12.8;font-family:monospace;font-style:normal;font-weight:normal" x="-121.58" y="98.9255">-city: String</text>
    <text style="fill: #000000;text-anchor:start;font-size:12.8;font-family:monospace;font-style:normal;font-weight:normal" x="-121.58" y="114.926">-country: String</text>
    <text style="fill: #000000;text-anchor:start;font-size:12.8;font-family:monospace;font-style:normal;font-weight:normal" x="-121.58" y="130.926">-zipCode: String</text>
    <text style="fill: #000000;text-anchor:start;font-size:12.8;font-family:monospace;font-style:normal;font-weight:normal" x="-121.58" y="146.926">-longitude: double</text>
    <text style="fill: #000000;text-anchor:start;font-size:12.8;font-family:monospace;font-style:normal;font-weight:normal" x="-121.58" y="162.926">-latitude: double</text>
    <rect style="fill: #ffffff" x="-124.58" y="168.925" width="148.6" height="8"/>
    <rect style="fill: none; fill-opacity:0; stroke-width: 2; stroke: #000000" x="-124.58" y="168.925" width="148.6" height="8"/>
  </g>
  <g>
    <rect style="fill: #ffffff" x="309.986" y="-545.242" width="271.8" height="28"/>
    <rect style="fill: none; fill-opacity:0; stroke-width: 2; stroke: #000000" x="309.986" y="-545.242" width="271.8" height="28"/>
    <text style="fill: #000000;text-anchor:middle;font-size:16;font-family:sanserif;font-style:normal;font-weight:700" x="445.886" y="-526.242">UserAccount</text>
    <rect style="fill: #ffffff" x="309.986" y="-517.242" width="271.8" height="68"/>
    <rect style="fill: none; fill-opacity:0; stroke-width: 2; stroke: #000000" x="309.986" y="-517.242" width="271.8" height="68"/>
    <text style="fill: #000000;text-anchor:start;font-size:12.8;font-family:monospace;font-style:normal;font-weight:normal" x="312.986" y="-503.242">-name: String</text>
    <text style="fill: #000000;text-anchor:start;font-size:12.8;font-family:monospace;font-style:normal;font-weight:normal" x="312.986" y="-487.242">-email: String</text>
    <text style="fill: #000000;text-anchor:start;font-size:12.8;font-family:monospace;font-style:normal;font-weight:normal" x="312.986" y="-471.242">-password: String</text>
    <text style="fill: #000000;text-anchor:start;font-size:12.8;font-family:monospace;font-style:normal;font-weight:normal" x="312.986" y="-455.242">-paymentMethods: List&lt;PaymentType&gt;</text>
    <rect style="fill: #ffffff" x="309.986" y="-449.242" width="271.8" height="52"/>
    <rect style="fill: none; fill-opacity:0; stroke-width: 2; stroke: #000000" x="309.986" y="-449.242" width="271.8" height="52"/>
    <text style="fill: #000000;text-anchor:start;font-size:12.8;font-family:monospace;font-style:normal;font-weight:normal" x="312.986" y="-435.242">+register(): boolean</text>
    <text style="fill: #000000;text-anchor:start;font-size:12.8;font-family:monospace;font-style:normal;font-weight:normal" x="312.986" y="-419.242">+logon(): boolean</text>
    <text style="fill: #000000;text-anchor:start;font-size:12.8;font-family:monospace;font-style:normal;font-weight:normal" x="312.986" y="-403.242">+search(): boolean</text>
  </g>
  <g>
    <rect style="fill: #ffffff" x="576.581" y="-125.53" width="202.5" height="28"/>
    <rect style="fill: none; fill-opacity:0; stroke-width: 2; stroke: #000000" x="576.581" y="-125.53" width="202.5" height="28"/>
    <text style="fill: #000000;text-anchor:middle;font-size:16;font-family:sanserif;font-style:normal;font-weight:700" x="677.831" y="-106.53">PaymentCard</text>
    <rect style="fill: #ffffff" x="576.581" y="-97.5296" width="202.5" height="84"/>
    <rect style="fill: none; fill-opacity:0; stroke-width: 2; stroke: #000000" x="576.581" y="-97.5296" width="202.5" height="84"/>
    <text style="fill: #000000;text-anchor:start;font-size:12.8;font-family:monospace;font-style:normal;font-weight:normal" x="579.581" y="-83.5296">-name: String</text>
    <text style="fill: #000000;text-anchor:start;font-size:12.8;font-family:monospace;font-style:normal;font-weight:normal" x="579.581" y="-67.5296">-billingAddress: Location</text>
    <text style="fill: #000000;text-anchor:start;font-size:12.8;font-family:monospace;font-style:normal;font-weight:normal" x="579.581" y="-51.5296">-cardType: String</text>
    <text style="fill: #000000;text-anchor:start;font-size:12.8;font-family:monospace;font-style:normal;font-weight:normal" x="579.581" y="-35.5296">-cardNumber: String</text>
    <text style="fill: #000000;text-anchor:start;font-size:12.8;font-family:monospace;font-style:normal;font-weight:normal" x="579.581" y="-19.5296">-expiryDate: Date</text>
    <rect style="fill: #ffffff" x="576.581" y="-13.5296" width="202.5" height="8"/>
    <rect style="fill: none; fill-opacity:0; stroke-width: 2; stroke: #000000" x="576.581" y="-13.5296" width="202.5" height="8"/>
  </g>
  <g>
    <rect style="fill: #ffffff" x="687.111" y="-383.222" width="194.8" height="28"/>
    <rect style="fill: none; fill-opacity:0; stroke-width: 2; stroke: #000000" x="687.111" y="-383.222" width="194.8" height="28"/>
    <text style="fill: #000000;text-anchor:middle;font-size:16;font-family:sanserif;font-style:normal;font-weight:700" x="784.511" y="-364.222">Payment</text>
    <rect style="fill: #ffffff" x="687.111" y="-355.222" width="194.8" height="52"/>
    <rect style="fill: none; fill-opacity:0; stroke-width: 2; stroke: #000000" x="687.111" y="-355.222" width="194.8" height="52"/>
    <text style="fill: #000000;text-anchor:start;font-size:12.8;font-family:monospace;font-style:normal;font-weight:normal" x="690.111" y="-341.222">-value: double</text>
    <text style="fill: #000000;text-anchor:start;font-size:12.8;font-family:monospace;font-style:normal;font-weight:normal" x="690.111" y="-325.222">-payment: paymentType</text>
    <text style="fill: #000000;text-anchor:start;font-size:12.8;font-family:monospace;font-style:normal;font-weight:normal" x="690.111" y="-309.222">-paymentAuthCode: String</text>
    <rect style="fill: #ffffff" x="687.111" y="-303.222" width="194.8" height="20"/>
    <rect style="fill: none; fill-opacity:0; stroke-width: 2; stroke: #000000" x="687.111" y="-303.222" width="194.8" height="20"/>
    <text style="fill: #000000;text-anchor:start;font-size:12.8;font-family:monospace;font-style:normal;font-weight:normal" x="690.111" y="-289.222">+sendDetails(): boolean</text>
  </g>
  <g>
    <polyline style="fill: none; fill-opacity:0; stroke-width: 2; stroke: #000000" points="-98.5959,-460.237 -98.5959,-401.296 7.90527,-401.296 7.90527,-367.527 "/>
    <polygon style="fill: #ffffff" points="7.90527,-342.355 3.10527,-356.355 7.90527,-370.355 12.7053,-356.355 "/>
    <polygon style="fill: none; fill-opacity:0; stroke-width: 2; stroke: #000000" points="7.90527,-342.355 3.10527,-356.355 7.90527,-370.355 12.7053,-356.355 "/>
    <text style="fill: #000000;text-anchor:middle;font-size:12.7998;font-family:monospace;font-style:normal;font-weight:normal" x="-45.3453" y="-405.296">Is made of</text>
    <polygon style="fill: #000000" points="-87.8453,-405.296 -87.8453,-413.296 -95.8453,-409.296 "/>
    <text style="fill: #000000;text-anchor:start;font-size:12.7998;font-family:monospace;font-style:normal;font-weight:normal" x="-94.5959" y="-448.237"> 1..*</text>
    <text style="fill: #000000;text-anchor:start;font-size:12.7998;font-family:monospace;font-style:normal;font-weight:normal" x="-94.5959" y="-432.237"></text>
    <text style="fill: #000000;text-anchor:start;font-size:12.7998;font-family:monospace;font-style:normal;font-weight:normal" x="18.9053" y="-362.355"> 0..1</text>
    <text style="fill: #000000;text-anchor:start;font-size:12.7998;font-family:monospace;font-style:normal;font-weight:normal" x="18.9053" y="-346.355"></text>
  </g>
  <g>
    <polyline style="fill: none; fill-opacity:0; stroke-width: 2; stroke: #000000" points="581.786,-531.242 784.511,-531.242 784.511,-383.222 "/>
    <text style="fill: #000000;text-anchor:middle;font-size:12.7998;font-family:monospace;font-style:normal;font-weight:normal" x="683.149" y="-535.242">Pays a</text>
    <polygon style="fill: #000000" points="708.249,-535.242 708.249,-543.242 716.249,-539.242 "/>
    <text style="fill: #000000;text-anchor:start;font-size:12.7998;font-family:monospace;font-style:normal;font-weight:normal" x="585.786" y="-535.242"></text>
    <text style="fill: #000000;text-anchor:start;font-size:12.7998;font-family:monospace;font-style:normal;font-weight:normal" x="788.511" y="-387.222"></text>
  </g>
  <g>
    <rect style="fill: #ffffff" x="-215.246" y="-545.242" width="233.3" height="28"/>
    <rect style="fill: none; fill-opacity:0; stroke-width: 2; stroke: #000000" x="-215.246" y="-545.242" width="233.3" height="28"/>
    <text style="fill: #000000;text-anchor:middle;font-size:16;font-family:sanserif;font-style:normal;font-weight:700" x="-98.5959" y="-526.242">SearchResults</text>
    <rect style="fill: #ffffff" x="-215.246" y="-517.242" width="233.3" height="20"/>
    <rect style="fill: none; fill-opacity:0; stroke-width: 2; stroke: #000000" x="-215.246" y="-517.242" width="233.3" height="20"/>
    <text style="fill: #000000;text-anchor:start;font-size:12.8;font-family:monospace;font-style:normal;font-weight:normal" x="-212.246" y="-503.242">-searchResults: List&lt;Product&gt;</text>
    <rect style="fill: #ffffff" x="-215.246" y="-497.242" width="233.3" height="36"/>
    <rect style="fill: none; fill-opacity:0; stroke-width: 2; stroke: #000000" x="-215.246" y="-497.242" width="233.3" height="36"/>
    <text style="fill: #000000;text-anchor:start;font-size:12.8;font-family:monospace;font-style:normal;font-weight:normal" x="-212.246" y="-483.242">+sort()</text>
    <text style="fill: #000000;text-anchor:start;font-size:12.8;font-family:monospace;font-style:normal;font-weight:normal" x="-212.246" y="-467.242">+filter()</text>
  </g>
  <g>
    <rect style="fill: #ffffff" x="214.898" y="-341.35" width="210.2" height="28"/>
    <rect style="fill: none; fill-opacity:0; stroke-width: 2; stroke: #000000" x="214.898" y="-341.35" width="210.2" height="28"/>
    <text style="fill: #000000;text-anchor:middle;font-size:16;font-family:sanserif;font-style:normal;font-weight:700" x="319.998" y="-322.35">Booking</text>
    <rect style="fill: #ffffff" x="214.898" y="-313.35" width="210.2" height="20"/>
    <rect style="fill: none; fill-opacity:0; stroke-width: 2; stroke: #000000" x="214.898" y="-313.35" width="210.2" height="20"/>
    <text style="fill: #000000;text-anchor:start;font-size:12.8;font-family:monospace;font-style:normal;font-weight:normal" x="217.898" y="-299.35">-items: ArrayList&lt;Product&gt;</text>
    <rect style="fill: #ffffff" x="214.898" y="-293.35" width="210.2" height="36"/>
    <rect style="fill: none; fill-opacity:0; stroke-width: 2; stroke: #000000" x="214.898" y="-293.35" width="210.2" height="36"/>
    <text style="fill: #000000;text-anchor:start;font-size:12.8;font-family:monospace;font-style:normal;font-weight:normal" x="217.898" y="-279.35">+cancel(): boolean</text>
    <text style="fill: #000000;text-anchor:start;font-size:12.8;font-family:monospace;font-style:normal;font-weight:normal" x="217.898" y="-263.35">+view(): boolean</text>
  </g>
  <g>
    <polyline style="fill: none; fill-opacity:0; stroke-width: 2; stroke: #000000" points="445.886,-396.233 445.886,-369.294 319.998,-369.294 319.998,-342.355 "/>
    <text style="fill: #000000;text-anchor:middle;font-size:12.7998;font-family:monospace;font-style:normal;font-weight:normal" x="382.942" y="-373.294">can view</text>
    <polygon style="fill: #000000" points="348.142,-373.294 348.142,-381.294 340.142,-377.294 "/>
    <text style="fill: #000000;text-anchor:start;font-size:12.7998;font-family:monospace;font-style:normal;font-weight:normal" x="449.886" y="-384.233">1</text>
    <text style="fill: #000000;text-anchor:start;font-size:12.7998;font-family:monospace;font-style:normal;font-weight:normal" x="323.998" y="-346.355">0..*</text>
  </g>
  <g>
    <rect style="fill: #ffffff" x="826.961" y="-125.603" width="164" height="28"/>
    <rect style="fill: none; fill-opacity:0; stroke-width: 2; stroke: #000000" x="826.961" y="-125.603" width="164" height="28"/>
    <text style="fill: #000000;text-anchor:middle;font-size:16;font-family:sanserif;font-style:normal;font-weight:700" x="908.961" y="-106.603">Voucher</text>
    <rect style="fill: #ffffff" x="826.961" y="-97.6034" width="164" height="52"/>
    <rect style="fill: none; fill-opacity:0; stroke-width: 2; stroke: #000000" x="826.961" y="-97.6034" width="164" height="52"/>
    <text style="fill: #000000;text-anchor:start;font-size:12.8;font-family:monospace;font-style:normal;font-weight:normal" x="829.961" y="-83.6034">-value: double</text>
    <text style="fill: #000000;text-anchor:start;font-size:12.8;font-family:monospace;font-style:normal;font-weight:normal" x="829.961" y="-67.6034">-expiraryDate: Date</text>
    <text style="fill: #000000;text-anchor:start;font-size:12.8;font-family:monospace;font-style:normal;font-weight:normal" x="829.961" y="-51.6034">-voucherCode: String</text>
    <rect style="fill: #ffffff" x="826.961" y="-45.6034" width="164" height="20"/>
    <rect style="fill: none; fill-opacity:0; stroke-width: 2; stroke: #000000" x="826.961" y="-45.6034" width="164" height="20"/>
    <text style="fill: #000000;text-anchor:start;font-size:12.8;font-family:monospace;font-style:normal;font-weight:normal" x="829.961" y="-31.6034">+verify(): boolean</text>
  </g>
  <g>
    <rect style="fill: #ffffff" x="719.986" y="-209.314" width="129.05" height="28"/>
    <rect style="fill: none; fill-opacity:0; stroke-width: 2; stroke: #000000" x="719.986" y="-209.314" width="129.05" height="28"/>
    <text style="fill: #000000;text-anchor:middle;font-size:16;font-family:sanserif;font-style:italic;font-weight:700" x="784.511" y="-190.314">PaymentType</text>
    <rect style="fill: #ffffff" x="719.986" y="-181.314" width="129.05" height="8"/>
    <rect style="fill: none; fill-opacity:0; stroke-width: 2; stroke: #000000" x="719.986" y="-181.314" width="129.05" height="8"/>
    <rect style="fill: #ffffff" x="719.986" y="-173.314" width="129.05" height="8"/>
    <rect style="fill: none; fill-opacity:0; stroke-width: 2; stroke: #000000" x="719.986" y="-173.314" width="129.05" height="8"/>
  </g>
  <g>
    <line style="fill: none; fill-opacity:0; stroke-width: 2; stroke: #000000" x1="852.175" y1="-126.577" x2="810.094" y2="-164.35"/>
    <ellipse style="fill: #ffffff" cx="815.303" cy="-159.674" rx="7" ry="7"/>
    <ellipse style="fill: none; fill-opacity:0; stroke-width: 2; stroke: #000000" cx="815.303" cy="-159.674" rx="7" ry="7"/>
    <text style="fill: #000000;text-anchor:start;font-size:12.7998;font-family:monospace;font-style:normal;font-weight:normal" x="804.095" y="-164.349"></text>
  </g>
  <g>
    <line style="fill: none; fill-opacity:0; stroke-width: 2; stroke: #000000" x1="731.223" y1="-126.481" x2="764.379" y2="-164.331"/>
    <ellipse style="fill: #ffffff" cx="759.766" cy="-159.065" rx="7" ry="7"/>
    <ellipse style="fill: none; fill-opacity:0; stroke-width: 2; stroke: #000000" cx="759.766" cy="-159.065" rx="7" ry="7"/>
    <text style="fill: #000000;text-anchor:start;font-size:12.7998;font-family:monospace;font-style:normal;font-weight:normal" x="760.354" y="-164.33"></text>
  </g>
  <g>
    <rect style="fill: #ffffff" x="-29.7968" y="-185.046" width="194.8" height="28"/>
    <rect style="fill: none; fill-opacity:0; stroke-width: 2; stroke: #000000" x="-29.7968" y="-185.046" width="194.8" height="28"/>
    <text style="fill: #000000;text-anchor:middle;font-size:16;font-family:sanserif;font-style:normal;font-weight:700" x="67.6032" y="-166.046">PackageHoliday</text>
    <rect style="fill: #ffffff" x="-29.7968" y="-157.046" width="194.8" height="84"/>
    <rect style="fill: none; fill-opacity:0; stroke-width: 2; stroke: #000000" x="-29.7968" y="-157.046" width="194.8" height="84"/>
    <text style="fill: #000000;text-anchor:start;font-size:12.8;font-family:monospace;font-style:normal;font-weight:normal" x="-26.7968" y="-143.046">-description: String</text>
    <text style="fill: #000000;text-anchor:start;font-size:12.8;font-family:monospace;font-style:normal;font-weight:normal" x="-26.7968" y="-127.046">-startLocation: Location</text>
    <text style="fill: #000000;text-anchor:start;font-size:12.8;font-family:monospace;font-style:normal;font-weight:normal" x="-26.7968" y="-111.046">-endLocation: Location</text>
    <text style="fill: #000000;text-anchor:start;font-size:12.8;font-family:monospace;font-style:normal;font-weight:normal" x="-26.7968" y="-95.0456">-startDate: Date</text>
    <text style="fill: #000000;text-anchor:start;font-size:12.8;font-family:monospace;font-style:normal;font-weight:normal" x="-26.7968" y="-79.0456">-endDate: Date</text>
    <rect style="fill: #ffffff" x="-29.7968" y="-73.0456" width="194.8" height="20"/>
    <rect style="fill: none; fill-opacity:0; stroke-width: 2; stroke: #000000" x="-29.7968" y="-73.0456" width="194.8" height="20"/>
    <text style="fill: #000000;text-anchor:start;font-size:12.8;font-family:monospace;font-style:normal;font-weight:normal" x="-26.7968" y="-59.0456">+book(): Booking</text>
  </g>
  <g>
    <polyline style="fill: none; fill-opacity:0; stroke-width: 2; stroke: #000000" points="309.986,-531.242 157.74,-531.242 157.74,-531.242 43.2257,-531.242 "/>
    <polygon style="fill: #000000" points="18.0541,-531.242 32.0541,-536.042 46.0541,-531.242 32.0541,-526.442 "/>
    <polygon style="fill: none; fill-opacity:0; stroke-width: 2; stroke: #000000" points="18.0541,-531.242 32.0541,-536.042 46.0541,-531.242 32.0541,-526.442 "/>
    <text style="fill: #000000;text-anchor:middle;font-size:12.7998;font-family:monospace;font-style:normal;font-weight:normal" x="157.74" y="-535.242">searches for</text>
    <polygon style="fill: #000000" points="107.54,-535.242 107.54,-543.242 99.5404,-539.242 "/>
    <text style="fill: #000000;text-anchor:end;font-size:12.7998;font-family:monospace;font-style:normal;font-weight:normal" x="305.986" y="-535.242">1</text>
    <text style="fill: #000000;text-anchor:start;font-size:12.7998;font-family:monospace;font-style:normal;font-weight:normal" x="50.0541" y="-535.242">0..*</text>
  </g>
  <g>
    <polyline style="fill: none; fill-opacity:0; stroke-width: 2; stroke: #000000" points="231.238,-115.046 188.248,-115.046 188.248,-35.1292 24.02,-35.1292 24.02,-16.2461 "/>
    <polygon style="fill: #000000" points="24.02,8.9255 19.22,-5.0745 24.02,-19.0745 28.82,-5.0745 "/>
    <polygon style="fill: none; fill-opacity:0; stroke-width: 2; stroke: #000000" points="24.02,8.9255 19.22,-5.0745 24.02,-19.0745 28.82,-5.0745 "/>
    <text style="fill: #000000;text-anchor:middle;font-size:12.7998;font-family:monospace;font-style:normal;font-weight:normal" x="106.134" y="-39.1292"></text>
    <text style="fill: #000000;text-anchor:end;font-size:12.7998;font-family:monospace;font-style:normal;font-weight:normal" x="227.238" y="-119.046">1</text>
    <text style="fill: #000000;text-anchor:start;font-size:12.7998;font-family:monospace;font-style:normal;font-weight:normal" x="35.02" y="4.9255">2</text>
  </g>
  <g>
    <polyline style="fill: none; fill-opacity:0; stroke-width: 2; stroke: #000000" points="-29.7968,-131.046 -50.28,-131.046 -50.28,-16.2461 "/>
    <polygon style="fill: #000000" points="-50.28,8.9255 -55.08,-5.0745 -50.28,-19.0745 -45.48,-5.0745 "/>
    <polygon style="fill: none; fill-opacity:0; stroke-width: 2; stroke: #000000" points="-50.28,8.9255 -55.08,-5.0745 -50.28,-19.0745 -45.48,-5.0745 "/>
    <text style="fill: #000000;text-anchor:middle;font-size:12.7998;font-family:monospace;font-style:normal;font-weight:normal" x="-40.0384" y="-135.046"></text>
    <text style="fill: #000000;text-anchor:end;font-size:12.7998;font-family:monospace;font-style:normal;font-weight:normal" x="-33.7968" y="-135.046">1</text>
    <text style="fill: #000000;text-anchor:start;font-size:12.7998;font-family:monospace;font-style:normal;font-weight:normal" x="-39.28" y="4.9255">2</text>
  </g>
  <g>
    <polyline style="fill: none; fill-opacity:0; stroke-width: 2; stroke: #000000" points="-144.688,-83.0456 -124.58,-83.0456 -124.58,-16.2461 "/>
    <polygon style="fill: #000000" points="-124.58,8.9255 -129.38,-5.0745 -124.58,-19.0745 -119.78,-5.0745 "/>
    <polygon style="fill: none; fill-opacity:0; stroke-width: 2; stroke: #000000" points="-124.58,8.9255 -129.38,-5.0745 -124.58,-19.0745 -119.78,-5.0745 "/>
    <text style="fill: #000000;text-anchor:middle;font-size:12.7998;font-family:monospace;font-style:normal;font-weight:normal" x="-134.634" y="-87.0456"></text>
    <text style="fill: #000000;text-anchor:start;font-size:12.7998;font-family:monospace;font-style:normal;font-weight:normal" x="-140.688" y="-87.0456">1</text>
    <text style="fill: #000000;text-anchor:start;font-size:12.7998;font-family:monospace;font-style:normal;font-weight:normal" x="-113.58" y="4.9255">1</text>
  </g>
  <g>
    <polyline style="fill: none; fill-opacity:0; stroke-width: 2; stroke: #000000" points="784.511,-235.491 784.511,-282.216 784.511,-282.216 "/>
    <polygon style="fill: #000000" points="784.511,-210.32 779.711,-224.32 784.511,-238.32 789.311,-224.32 "/>
    <polygon style="fill: none; fill-opacity:0; stroke-width: 2; stroke: #000000" points="784.511,-210.32 779.711,-224.32 784.511,-238.32 789.311,-224.32 "/>
    <text style="fill: #000000;text-anchor:start;font-size:12.7998;font-family:monospace;font-style:normal;font-weight:normal" x="786.511" y="-250.268"></text>
    <text style="fill: #000000;text-anchor:start;font-size:12.7998;font-family:monospace;font-style:normal;font-weight:normal" x="795.511" y="-214.32">1</text>
    <text style="fill: #000000;text-anchor:start;font-size:12.7998;font-family:monospace;font-style:normal;font-weight:normal" x="788.511" y="-270.216">1</text>
  </g>
  <g>
    <polyline style="fill: none; fill-opacity:0; stroke-width: 2; stroke: #000000" points="7.90527,-234.143 7.90527,-221.919 67.6032,-221.919 67.6032,-186.004 "/>
    <polygon style="fill: #ffffff" points="15.9053,-234.143 7.90527,-250.143 -0.0947292,-234.143 "/>
    <polygon style="fill: none; fill-opacity:0; stroke-width: 2; stroke: #000000" points="15.9053,-234.143 7.90527,-250.143 -0.0947292,-234.143 "/>
  </g>
  <g>
    <polyline style="fill: none; fill-opacity:0; stroke-width: 2; stroke: #000000" points="109.155,-235.114 109.155,-217.059 328.638,-217.059 328.638,-185.964 "/>
    <polygon style="fill: #ffffff" points="117.155,-235.114 109.155,-251.114 101.155,-235.114 "/>
    <polygon style="fill: none; fill-opacity:0; stroke-width: 2; stroke: #000000" points="117.155,-235.114 109.155,-251.114 101.155,-235.114 "/>
  </g>
  <g>
    <polyline style="fill: none; fill-opacity:0; stroke-width: 2; stroke: #000000" points="-93.3447,-235.114 -93.3447,-220.299 -222.838,-220.299 -222.838,-186.049 "/>
    <polygon style="fill: #ffffff" points="-85.3447,-235.114 -93.3447,-251.114 -101.345,-235.114 "/>
    <polygon style="fill: none; fill-opacity:0; stroke-width: 2; stroke: #000000" points="-85.3447,-235.114 -93.3447,-251.114 -101.345,-235.114 "/>
  </g>
  <g>
    <polyline style="fill: none; fill-opacity:0; stroke-width: 2; stroke: #000000" points="134.327,-327.35 214.898,-327.35 214.898,-327.35 "/>
    <polygon style="fill: #000000" points="109.155,-327.35 123.155,-332.15 137.155,-327.35 123.155,-322.55 "/>
    <polygon style="fill: none; fill-opacity:0; stroke-width: 2; stroke: #000000" points="109.155,-327.35 123.155,-332.15 137.155,-327.35 123.155,-322.55 "/>
    <text style="fill: #000000;text-anchor:middle;font-size:12.7998;font-family:monospace;font-style:normal;font-weight:normal" x="162.027" y="-331.35"></text>
    <text style="fill: #000000;text-anchor:start;font-size:12.7998;font-family:monospace;font-style:normal;font-weight:normal" x="141.155" y="-331.35">1</text>
    <text style="fill: #000000;text-anchor:end;font-size:12.7998;font-family:monospace;font-style:normal;font-weight:normal" x="210.898" y="-331.35">1..*</text>
  </g>
  <g>
    <rect style="fill: #ffffff" x="64.606" y="0.313049" width="171.7" height="28"/>
    <rect style="fill: none; fill-opacity:0; stroke-width: 2; stroke: #000000" x="64.606" y="0.313049" width="171.7" height="28"/>
    <text style="fill: #000000;text-anchor:middle;font-size:16;font-family:sanserif;font-style:normal;font-weight:700" x="150.456" y="19.313">Flight</text>
    <rect style="fill: #ffffff" x="64.606" y="28.313" width="171.7" height="20"/>
    <rect style="fill: none; fill-opacity:0; stroke-width: 2; stroke: #000000" x="64.606" y="28.313" width="171.7" height="20"/>
    <text style="fill: #000000;text-anchor:start;font-size:12.8;font-family:monospace;font-style:normal;font-weight:normal" x="67.606" y="42.313">-flightNumber: String</text>
    <rect style="fill: #ffffff" x="64.606" y="48.313" width="171.7" height="20"/>
    <rect style="fill: none; fill-opacity:0; stroke-width: 2; stroke: #000000" x="64.606" y="48.313" width="171.7" height="20"/>
    <text style="fill: #000000;text-anchor:start;font-size:12.8;font-family:monospace;font-style:normal;font-weight:normal" x="67.606" y="62.313">+book(): Booking</text>
  </g>
  <g>
    <rect style="fill: #ffffff" x="417.706" y="0.313049" width="133.2" height="28"/>
    <rect style="fill: none; fill-opacity:0; stroke-width: 2; stroke: #000000" x="417.706" y="0.313049" width="133.2" height="28"/>
    <text style="fill: #000000;text-anchor:middle;font-size:16;font-family:sanserif;font-style:normal;font-weight:700" x="484.306" y="19.313">Ferry</text>
    <rect style="fill: #ffffff" x="417.706" y="28.313" width="133.2" height="20"/>
    <rect style="fill: none; fill-opacity:0; stroke-width: 2; stroke: #000000" x="417.706" y="28.313" width="133.2" height="20"/>
    <text style="fill: #000000;text-anchor:start;font-size:12.8;font-family:monospace;font-style:normal;font-weight:normal" x="420.706" y="42.313">-car: boolean</text>
    <rect style="fill: #ffffff" x="417.706" y="48.313" width="133.2" height="20"/>
    <rect style="fill: none; fill-opacity:0; stroke-width: 2; stroke: #000000" x="417.706" y="48.313" width="133.2" height="20"/>
    <text style="fill: #000000;text-anchor:start;font-size:12.8;font-family:monospace;font-style:normal;font-weight:normal" x="420.706" y="62.313">+book(): Booking</text>
  </g>
  <g>
    <rect style="fill: #ffffff" x="250.488" y="0.313049" width="156.3" height="28"/>
    <rect style="fill: none; fill-opacity:0; stroke-width: 2; stroke: #000000" x="250.488" y="0.313049" width="156.3" height="28"/>
    <text style="fill: #000000;text-anchor:middle;font-size:16;font-family:sanserif;font-style:normal;font-weight:700" x="328.638" y="19.313">Rail</text>
    <rect style="fill: #ffffff" x="250.488" y="28.313" width="156.3" height="20"/>
    <rect style="fill: none; fill-opacity:0; stroke-width: 2; stroke: #000000" x="250.488" y="28.313" width="156.3" height="20"/>
    <text style="fill: #000000;text-anchor:start;font-size:12.8;font-family:monospace;font-style:normal;font-weight:normal" x="253.488" y="42.313">-ticketType: String</text>
    <rect style="fill: #ffffff" x="250.488" y="48.313" width="156.3" height="20"/>
    <rect style="fill: none; fill-opacity:0; stroke-width: 2; stroke: #000000" x="250.488" y="48.313" width="156.3" height="20"/>
    <text style="fill: #000000;text-anchor:start;font-size:12.8;font-family:monospace;font-style:normal;font-weight:normal" x="253.488" y="62.313">+book(): Booking</text>
  </g>
  <g>
    <polyline style="fill: none; fill-opacity:0; stroke-width: 2; stroke: #000000" points="328.638,-62.8095 328.638,0.313049 328.638,0.313049 "/>
    <polygon style="fill: #ffffff" points="336.638,-62.8095 328.638,-78.8095 320.638,-62.8095 "/>
    <polygon style="fill: none; fill-opacity:0; stroke-width: 2; stroke: #000000" points="336.638,-62.8095 328.638,-78.8095 320.638,-62.8095 "/>
  </g>
  <g>
    <polyline style="fill: none; fill-opacity:0; stroke-width: 2; stroke: #000000" points="426.038,-62.8095 426.038,-40.3663 484.306,-40.3663 484.306,0.313049 "/>
    <polygon style="fill: #ffffff" points="434.038,-62.8095 426.038,-78.8095 418.038,-62.8095 "/>
    <polygon style="fill: none; fill-opacity:0; stroke-width: 2; stroke: #000000" points="434.038,-62.8095 426.038,-78.8095 418.038,-62.8095 "/>
  </g>
  <g>
    <polyline style="fill: none; fill-opacity:0; stroke-width: 2; stroke: #000000" points="231.238,-62.8095 231.238,-15.364 150.456,-15.364 150.456,0.313049 "/>
    <polygon style="fill: #ffffff" points="239.238,-62.8095 231.238,-78.8095 223.238,-62.8095 "/>
    <polygon style="fill: none; fill-opacity:0; stroke-width: 2; stroke: #000000" points="239.238,-62.8095 231.238,-78.8095 223.238,-62.8095 "/>
  </g>
  <g>
    <polyline style="fill: none; fill-opacity:0; stroke-width: 2; stroke: #000000" points="694.815,-195.314 598.17,-195.314 598.17,-459.242 581.786,-459.242 "/>
    <polygon style="fill: #000000" points="719.986,-195.314 705.986,-190.514 691.986,-195.314 705.986,-200.114 "/>
    <polygon style="fill: none; fill-opacity:0; stroke-width: 2; stroke: #000000" points="719.986,-195.314 705.986,-190.514 691.986,-195.314 705.986,-200.114 "/>
    <text style="fill: #000000;text-anchor:start;font-size:12.7998;font-family:monospace;font-style:normal;font-weight:normal" x="600.17" y="-331.278">Stores a</text>
    <polygon style="fill: #000000" points="663.77,-331.278 663.77,-339.278 671.77,-335.278 "/>
    <text style="fill: #000000;text-anchor:end;font-size:12.7998;font-family:monospace;font-style:normal;font-weight:normal" x="687.986" y="-199.314">0..*</text>
    <text style="fill: #000000;text-anchor:start;font-size:12.7998;font-family:monospace;font-style:normal;font-weight:normal" x="585.786" y="-463.242">1</text>
  </g>
  <g>
    <polyline style="fill: none; fill-opacity:0; stroke-width: 2; stroke: #000000" points="661.94,-369.222 556.105,-369.222 556.105,-327.35 425.098,-327.35 "/>
    <polygon style="fill: #000000" points="687.111,-369.222 673.111,-364.422 659.111,-369.222 673.111,-374.022 "/>
    <polygon style="fill: none; fill-opacity:0; stroke-width: 2; stroke: #000000" points="687.111,-369.222 673.111,-364.422 659.111,-369.222 673.111,-374.022 "/>
    <text style="fill: #000000;text-anchor:start;font-size:12.7998;font-family:monospace;font-style:normal;font-weight:normal" x="558.105" y="-352.286"></text>
    <text style="fill: #000000;text-anchor:end;font-size:12.7998;font-family:monospace;font-style:normal;font-weight:normal" x="655.111" y="-373.222">1</text>
    <text style="fill: #000000;text-anchor:start;font-size:12.7998;font-family:monospace;font-style:normal;font-weight:normal" x="429.098" y="-331.35">1</text>
  </g>
</svg>
