<?xml version="1.0" encoding="UTF-8" standalone="no"?>
<!DOCTYPE svg PUBLIC "-//W3C//DTD SVG 1.0//EN" "http://www.w3.org/TR/2001/PR-SVG-20010719/DTD/svg10.dtd">
<svg width="34cm" height="15cm" viewBox="-60 -459 672 281" xmlns="http://www.w3.org/2000/svg" xmlns:xlink="http://www.w3.org/1999/xlink">
  <g>
    <rect style="fill: #ffffff" x="260.054" y="-283.694" width="64.65" height="28"/>
    <rect style="fill: none; fill-opacity:0; stroke-width: 2; stroke: #000000" x="260.054" y="-283.694" width="64.65" height="28"/>
    <text font-size="16" style="fill: #000000;text-anchor:middle;font-family:sans-serif;font-style:italic;font-weight:700" x="292.379" y="-264.694">Travel</text>
  </g>
  <g>
    <rect style="fill: #ffffff" x="-58.8916" y="-206.572" width="137.85" height="28"/>
    <rect style="fill: none; fill-opacity:0; stroke-width: 2; stroke: #000000" x="-58.8916" y="-206.572" width="137.85" height="28"/>
    <text font-size="16" style="fill: #000000;text-anchor:middle;font-family:sans-serif;font-style:normal;font-weight:700" x="10.0334" y="-187.572">Accomodation</text>
  </g>
  <g>
    <rect style="fill: #ffffff" x="-26.5686" y="-342.846" width="80.3" height="28"/>
    <rect style="fill: none; fill-opacity:0; stroke-width: 2; stroke: #000000" x="-26.5686" y="-342.846" width="80.3" height="28"/>
    <text font-size="16" style="fill: #000000;text-anchor:middle;font-family:sans-serif;font-style:italic;font-weight:700" x="13.5814" y="-323.846">Product</text>
  </g>
  <g>
    <rect style="fill: #ffffff" x="274.676" y="-457.478" width="124.1" height="28"/>
    <rect style="fill: none; fill-opacity:0; stroke-width: 2; stroke: #000000" x="274.676" y="-457.478" width="124.1" height="28"/>
    <text font-size="16" style="fill: #000000;text-anchor:middle;font-family:sans-serif;font-style:normal;font-weight:700" x="336.726" y="-438.478">UserAccount</text>
  </g>
  <g>
    <rect style="fill: #ffffff" x="500.682" y="-342.846" width="88.6" height="28"/>
    <rect style="fill: none; fill-opacity:0; stroke-width: 2; stroke: #000000" x="500.682" y="-342.846" width="88.6" height="28"/>
    <text font-size="16" style="fill: #000000;text-anchor:middle;font-family:sans-serif;font-style:normal;font-weight:700" x="544.982" y="-323.846">Payment</text>
  </g>
  <g>
    <rect style="fill: #ffffff" x="-55.7686" y="-457.478" width="138.65" height="28"/>
    <rect style="fill: none; fill-opacity:0; stroke-width: 2; stroke: #000000" x="-55.7686" y="-457.478" width="138.65" height="28"/>
    <text font-size="16" style="fill: #000000;text-anchor:middle;font-family:sans-serif;font-style:normal;font-weight:700" x="13.5564" y="-438.478">SearchResults</text>
  </g>
  <g>
    <rect style="fill: #ffffff" x="295.102" y="-342.846" width="83.2" height="28"/>
    <rect style="fill: none; fill-opacity:0; stroke-width: 2; stroke: #000000" x="295.102" y="-342.846" width="83.2" height="28"/>
    <text font-size="16" style="fill: #000000;text-anchor:middle;font-family:sans-serif;font-style:normal;font-weight:700" x="336.702" y="-323.846">Booking</text>
  </g>
  <g>
    <rect style="fill: #ffffff" x="37.2512" y="-255.008" width="152.95" height="28"/>
    <rect style="fill: none; fill-opacity:0; stroke-width: 2; stroke: #000000" x="37.2512" y="-255.008" width="152.95" height="28"/>
    <text font-size="16" style="fill: #000000;text-anchor:middle;font-family:sans-serif;font-style:normal;font-weight:700" x="113.726" y="-236.008">PackageHoliday</text>
  </g>
  <g>
    <polyline style="fill: none; fill-opacity:0; stroke-width: 2; stroke: #000000" points="13.5859,-295.624 13.5885,-276.384 113.705,-276.384 113.717,-256.01 "/>
    <polygon style="fill: #ffffff" points="21.5859,-295.626 13.5837,-311.624 5.58592,-295.623 "/>
    <polygon style="fill: none; fill-opacity:0; stroke-width: 2; stroke: #000000" points="21.5859,-295.626 13.5837,-311.624 5.58592,-295.623 "/>
  </g>
  <g>
    <polyline style="fill: none; fill-opacity:0; stroke-width: 2; stroke: #000000" points="53.7814,-296.61 53.7814,-291.29 292.38,-291.29 292.379,-284.626 "/>
    <polygon style="fill: #ffffff" points="61.7814,-296.61 53.7814,-312.61 45.7814,-296.61 "/>
    <polygon style="fill: none; fill-opacity:0; stroke-width: 2; stroke: #000000" points="61.7814,-296.61 53.7814,-312.61 45.7814,-296.61 "/>
  </g>
  <g>
    <polyline style="fill: none; fill-opacity:0; stroke-width: 2; stroke: #000000" points="-26.5686,-296.61 -26.5686,-243.204 10.0334,-243.204 10.0334,-207.566 "/>
    <polygon style="fill: #ffffff" points="-18.5686,-296.61 -26.5686,-312.61 -34.5686,-296.61 "/>
    <polygon style="fill: none; fill-opacity:0; stroke-width: 2; stroke: #000000" points="-18.5686,-296.61 -26.5686,-312.61 -34.5686,-296.61 "/>
  </g>
  <g>
    <polyline style="fill: none; fill-opacity:0; stroke-width: 2; stroke: #000000" points="54.7365,-328.846 157.138,-328.846 157.138,-328.846 294.178,-328.846 "/>
    <text font-size="12.7998" style="fill: #000000;text-anchor:middle;font-family:monospace;font-style:normal;font-weight:normal" x="157.138" y="-331.846">has a</text>
    <polygon style="fill: #000000" points="133.888,-331.846 133.888,-339.846 125.888,-335.846 "/>
    <text font-size="12.7998" style="fill: #000000;text-anchor:start;font-family:monospace;font-style:normal;font-weight:normal" x="58.7365" y="-331.846">0..1</text>
    <text font-size="12.7998" style="fill: #000000;text-anchor:end;font-family:monospace;font-style:normal;font-weight:normal" x="290.178" y="-331.846">1</text>
  </g>
  <g>
    <polyline style="fill: none; fill-opacity:0; stroke-width: 2; stroke: #000000" points="336.724,-428.478 336.719,-388.448 336.702,-388.448 336.702,-343.805 "/>
    <text font-size="12.7998" style="fill: #000000;text-anchor:middle;font-family:monospace;font-style:normal;font-weight:normal" x="336.71" y="-391.448">makes a</text>
    <polygon style="fill: #000000" points="365.66,-391.448 365.66,-399.448 373.66,-395.448 "/>
    <text font-size="12.7998" style="fill: #000000;text-anchor:start;font-family:monospace;font-style:normal;font-weight:normal" x="340.724" y="-416.478">1</text>
    <text font-size="12.7998" style="fill: #000000;text-anchor:start;font-family:monospace;font-style:normal;font-weight:normal" x="340.702" y="-347.805">0..*</text>
  </g>
  <g>
    <polyline style="fill: none; fill-opacity:0; stroke-width: 2; stroke: #000000" points="83.8766,-443.478 189.373,-443.478 189.373,-443.478 273.68,-443.478 "/>
    <text font-size="12.7998" style="fill: #000000;text-anchor:middle;font-family:monospace;font-style:normal;font-weight:normal" x="189.373" y="-446.478">searches for</text>
    <polygon style="fill: #000000" points="139.173,-446.478 139.173,-454.478 131.173,-450.478 "/>
    <text font-size="12.7998" style="fill: #000000;text-anchor:start;font-family:monospace;font-style:normal;font-weight:normal" x="87.8766" y="-446.478">0..*</text>
    <text font-size="12.7998" style="fill: #000000;text-anchor:end;font-family:monospace;font-style:normal;font-weight:normal" x="269.68" y="-446.478">1</text>
  </g>
  <g>
    <polyline style="fill: none; fill-opacity:0; stroke-width: 2; stroke: #000000" points="13.5564,-428.471 13.5564,-386.162 13.5814,-386.162 13.5814,-343.853 "/>
    <text font-size="12.7998" style="fill: #000000;text-anchor:middle;font-family:monospace;font-style:normal;font-weight:normal" x="13.5689" y="-389.162">contains</text>
    <polygon style="fill: #000000" points="46.3689,-389.162 46.3689,-397.162 54.3689,-393.162 "/>
    <text font-size="12.7998" style="fill: #000000;text-anchor:start;font-family:monospace;font-style:normal;font-weight:normal" x="17.5564" y="-416.471">1</text>
    <text font-size="12.7998" style="fill: #000000;text-anchor:start;font-family:monospace;font-style:normal;font-weight:normal" x="17.5814" y="-347.853">1..*</text>
  </g>
  <g>
    <polyline style="fill: none; fill-opacity:0; stroke-width: 2; stroke: #000000" points="398.726,-443.478 544.956,-443.478 544.956,-342.846 544.956,-342.846 "/>
    <text font-size="12.7998" style="fill: #000000;text-anchor:start;font-family:monospace;font-style:normal;font-weight:normal" x="546.956" y="-396.162">makes a</text>
    <polygon style="fill: #000000" points="602.856,-396.162 602.856,-404.162 610.856,-400.162 "/>
    <text font-size="12.7998" style="fill: #000000;text-anchor:start;font-family:monospace;font-style:normal;font-weight:normal" x="402.726" y="-446.478">1</text>
    <text font-size="12.7998" style="fill: #000000;text-anchor:start;font-family:monospace;font-style:normal;font-weight:normal" x="548.956" y="-346.846">0..1</text>
  </g>
  <g>
    <polyline style="fill: none; fill-opacity:0; stroke-width: 2; stroke: #000000" points="499.681,-328.846 440.062,-328.846 440.062,-328.846 378.302,-328.846 "/>
    <text font-size="12.7998" style="fill: #000000;text-anchor:middle;font-family:monospace;font-style:normal;font-weight:normal" x="440.062" y="-331.846">Pays for</text>
    <polygon style="fill: #000000" points="405.262,-331.846 405.262,-339.846 397.262,-335.846 "/>
    <text font-size="12.7998" style="fill: #000000;text-anchor:end;font-family:monospace;font-style:normal;font-weight:normal" x="495.681" y="-331.846">1</text>
    <text font-size="12.7998" style="fill: #000000;text-anchor:start;font-family:monospace;font-style:normal;font-weight:normal" x="382.302" y="-331.846">1</text>
  </g>
  <g>
    <rect style="fill: #ffffff" x="192.001" y="-206.572" width="62.45" height="28"/>
    <rect style="fill: none; fill-opacity:0; stroke-width: 2; stroke: #000000" x="192.001" y="-206.572" width="62.45" height="28"/>
    <text font-size="16" style="fill: #000000;text-anchor:middle;font-family:sans-serif;font-style:normal;font-weight:700" x="223.226" y="-187.572">Flight</text>
  </g>
  <g>
    <rect style="fill: #ffffff" x="270.354" y="-206.572" width="44.1" height="28"/>
    <rect style="fill: none; fill-opacity:0; stroke-width: 2; stroke: #000000" x="270.354" y="-206.572" width="44.1" height="28"/>
    <text font-size="16" style="fill: #000000;text-anchor:middle;font-family:sans-serif;font-style:normal;font-weight:700" x="292.404" y="-187.572">Rail</text>
  </g>
  <g>
    <rect style="fill: #ffffff" x="329.528" y="-206.572" width="57.4" height="28"/>
    <rect style="fill: none; fill-opacity:0; stroke-width: 2; stroke: #000000" x="329.528" y="-206.572" width="57.4" height="28"/>
    <text font-size="16" style="fill: #000000;text-anchor:middle;font-family:sans-serif;font-style:normal;font-weight:700" x="358.228" y="-187.572">Ferry</text>
  </g>
  <g>
    <polyline style="fill: none; fill-opacity:0; stroke-width: 2; stroke: #000000" points="260.054,-237.458 260.054,-229.088 223.206,-229.088 223.218,-207.567 "/>
    <polygon style="fill: #ffffff" points="268.054,-237.458 260.054,-253.458 252.054,-237.458 "/>
    <polygon style="fill: none; fill-opacity:0; stroke-width: 2; stroke: #000000" points="268.054,-237.458 260.054,-253.458 252.054,-237.458 "/>
  </g>
  <g>
    <polyline style="fill: none; fill-opacity:0; stroke-width: 2; stroke: #000000" points="292.379,-236.454 292.379,-216.276 292.404,-216.276 292.404,-207.48 "/>
    <polygon style="fill: #ffffff" points="300.379,-236.454 292.379,-252.454 284.379,-236.454 "/>
    <polygon style="fill: none; fill-opacity:0; stroke-width: 2; stroke: #000000" points="300.379,-236.454 292.379,-252.454 284.379,-236.454 "/>
  </g>
  <g>
    <polyline style="fill: none; fill-opacity:0; stroke-width: 2; stroke: #000000" points="324.704,-237.458 324.704,-223.97 358.204,-223.97 358.204,-206.572 "/>
    <polygon style="fill: #ffffff" points="332.704,-237.458 324.704,-253.458 316.704,-237.458 "/>
    <polygon style="fill: none; fill-opacity:0; stroke-width: 2; stroke: #000000" points="332.704,-237.458 324.704,-253.458 316.704,-237.458 "/>
  </g>
  <g>
    <rect style="fill: #ffffff" x="479.782" y="-251.492" width="130.35" height="28"/>
    <rect style="fill: none; fill-opacity:0; stroke-width: 2; stroke: #000000" x="479.782" y="-251.492" width="130.35" height="28"/>
    <text font-size="16" style="fill: #000000;text-anchor:middle;font-family:sans-serif;font-style:normal;font-weight:700" x="544.957" y="-232.492">PaymentType</text>
  </g>
  <g>
    <polyline style="fill: none; fill-opacity:0; stroke-width: 2; stroke: #000000" points="544.982,-314.846 544.982,-283.169 544.957,-283.169 544.957,-251.492 "/>
    <text font-size="12.7998" style="fill: #000000;text-anchor:middle;font-family:monospace;font-style:normal;font-weight:normal" x="544.969" y="-286.169">is a</text>
    <polygon style="fill: #000000" points="562.37,-286.169 562.37,-294.169 570.37,-290.169 "/>
    <text font-size="12.7998" style="fill: #000000;text-anchor:start;font-family:monospace;font-style:normal;font-weight:normal" x="548.982" y="-302.846">1</text>
    <text font-size="12.7998" style="fill: #000000;text-anchor:start;font-family:monospace;font-style:normal;font-weight:normal" x="548.957" y="-255.492">0..1</text>
  </g>
</svg>
